<svg width="500" height="418" viewBox="0 0 500 418" fill="none" xmlns="http://www.w3.org/2000/svg">
<path d="M90.1895 356.258C180.12 392.351 325.94 392.351 415.88 356.258C505.82 320.164 505.81 261.654 415.88 225.561C325.95 189.468 180.12 189.468 90.1895 225.561C0.259529 261.654 0.249527 320.164 90.1895 356.258Z" fill="#F5F5F5"/>
<path d="M442.36 319.406C420.65 327.962 385.51 327.862 363.87 319.18C342.23 310.499 342.29 296.539 364 287.982C385.71 279.426 420.85 279.534 442.49 288.208C464.13 296.881 464.07 310.833 442.36 319.406Z" fill="#E0E0E0"/>
<path d="M320.51 55.5103L327.32 58.7877C327.32 58.5375 327.26 58.2873 327.26 58.0371V56.3692C327.26 53.4421 329.73 52.2495 332.77 53.7173C334.078 54.3858 335.196 55.2819 336.05 56.3442C336.55 52.6665 340.05 51.2905 344.22 53.317C348.77 55.5103 352.46 60.8225 352.46 65.2175V67.7193C352.489 68.7011 352.253 69.6757 351.77 70.5714L357.42 73.2901C358.311 73.7747 359.052 74.4274 359.583 75.1953C360.115 75.9632 360.422 76.8247 360.48 77.71C360.48 79.3279 359.11 79.9867 357.42 79.1778L320.51 61.3896C319.619 60.9073 318.878 60.2563 318.346 59.4897C317.814 58.723 317.507 57.8624 317.45 56.978C317.45 55.3602 318.82 54.7013 320.51 55.5103Z" fill="#EBEBEB"/>
<path d="M291.35 72.0643L296.49 74.5662C296.49 74.3743 296.49 74.1825 296.49 73.9991V72.7315C296.49 70.5215 298.35 69.6208 300.65 70.73C301.636 71.2349 302.478 71.912 303.12 72.7148C303.5 69.9377 306.12 68.9036 309.29 70.4298C311.102 71.4125 312.609 72.7383 313.69 74.2991C314.771 75.8599 315.395 77.6116 315.51 79.4114V81.2711C315.533 82.0127 315.352 82.7489 314.98 83.4227L319.25 85.4826C319.924 85.8463 320.485 86.3384 320.887 86.9183C321.288 87.4983 321.519 88.1495 321.56 88.8184C321.56 90.0443 320.56 90.5446 319.25 89.9275L291.35 76.5009C290.678 76.1353 290.12 75.6425 289.721 75.0628C289.321 74.4831 289.091 73.8329 289.05 73.1651C289.05 71.9475 290.08 71.4472 291.35 72.0643Z" fill="#EBEBEB"/>
<path d="M108.6 282.879L115.22 279.726C115.22 279.726 118.4 265.115 116.03 252.556C112.68 234.893 98.2696 228.805 93.0296 230.556C87.7896 232.308 86.5596 237.545 96.0296 247.753C101.6 253.765 108.77 266.491 108.6 282.879Z" fill="#E32764"/>
<g opacity="0.1">
<path opacity="0.1" d="M108.6 282.879L115.22 279.726C115.22 279.726 118.4 265.115 116.03 252.556C112.68 234.893 98.2696 228.805 93.0296 230.556C87.7896 232.308 86.5596 237.545 96.0296 247.753C101.6 253.765 108.77 266.491 108.6 282.879Z" fill="#101828"/>
</g>
<path d="M110.999 275.865H110.929C110.806 275.85 110.695 275.796 110.62 275.713C110.545 275.63 110.512 275.526 110.529 275.423C113.269 258.886 105.299 240.781 96.3395 233.475C96.2506 233.402 96.2002 233.303 96.1992 233.199C96.1983 233.095 96.2469 232.995 96.3345 232.921C96.422 232.847 96.5412 232.805 96.6659 232.804C96.7906 232.803 96.9106 232.844 96.9995 232.916C106.119 240.347 114.249 258.769 111.469 275.531C111.451 275.624 111.393 275.708 111.307 275.769C111.221 275.83 111.112 275.864 110.999 275.865Z" fill="white"/>
<path d="M90.2098 291.743C89.2098 292.244 86.9998 291.143 86.2098 290.684C84.7939 289.877 83.6506 288.78 82.8898 287.499C82.0338 286.047 81.7436 284.408 82.0598 282.812C82.2202 281.964 82.4575 281.128 82.7698 280.31C83.0498 279.476 83.3198 278.692 83.5998 277.883C83.9405 277.102 84.0868 276.27 84.0298 275.44C83.7698 273.772 82.0298 272.629 80.4098 271.629C78.6398 270.519 76.7898 269.06 76.7998 267.067C76.935 265.521 77.6765 264.056 78.9098 262.897C80.0498 261.696 81.4098 260.629 82.4398 259.353C83.2516 258.463 83.6749 257.368 83.6398 256.251C83.5328 255.567 83.2607 254.909 82.8398 254.316C81.866 253.083 81.0132 251.786 80.2898 250.438C79.7098 249.045 79.7998 247.311 81.0998 246.31C81.684 245.95 82.3483 245.691 83.0541 245.548C83.7598 245.404 84.4927 245.38 85.2098 245.476C86.5542 245.608 87.8476 245.984 88.9998 246.577C92.7998 248.336 94.9998 252.089 98.9998 253.44C100.597 253.856 102.223 254.188 103.87 254.433C104.692 254.562 105.473 254.834 106.162 255.231C106.851 255.627 107.432 256.139 107.87 256.734C109.35 259.194 106.61 262.23 107.65 264.84C108.57 267.159 111.26 268.043 112.78 270.128C113.396 271.048 113.641 272.109 113.48 273.155C113.352 274.923 112.833 276.656 111.95 278.267C110.971 279.873 109.848 281.414 108.59 282.879C108.53 282.929 90.3698 291.66 90.2098 291.743Z" fill="#E32764"/>
<path d="M100.999 286.956C100.937 286.955 100.875 286.944 100.818 286.923C100.761 286.901 100.709 286.871 100.666 286.833C100.623 286.795 100.59 286.75 100.568 286.701C100.547 286.652 100.537 286.6 100.539 286.548C101.319 270.903 92.4794 253.632 86.0494 248.611C86.0041 248.576 85.9676 248.533 85.9421 248.486C85.9166 248.439 85.9025 248.387 85.9006 248.336C85.8987 248.284 85.9092 248.232 85.9313 248.183C85.9533 248.135 85.9867 248.09 86.0294 248.053C86.072 248.015 86.1232 247.985 86.18 247.963C86.2368 247.942 86.298 247.93 86.3602 247.929C86.4224 247.927 86.4844 247.936 86.5426 247.954C86.6008 247.973 86.6541 248 86.6994 248.036C93.2594 253.156 102.279 270.711 101.489 286.581C101.487 286.633 101.472 286.683 101.446 286.73C101.42 286.777 101.383 286.819 101.338 286.854C101.292 286.888 101.239 286.915 101.181 286.933C101.123 286.951 101.061 286.959 100.999 286.956Z" fill="white"/>
<path d="M98.1497 268.476H98.0097C93.5673 267.451 89.0032 266.836 84.3997 266.642C84.3379 266.639 84.2773 266.627 84.2213 266.605C84.1652 266.584 84.1148 266.553 84.0731 266.515C84.0313 266.477 83.9988 266.433 83.9777 266.384C83.9565 266.336 83.947 266.284 83.9497 266.233C83.9494 266.181 83.9622 266.129 83.9873 266.081C84.0124 266.033 84.0492 265.99 84.0953 265.955C84.1414 265.92 84.1958 265.893 84.2552 265.876C84.3145 265.859 84.3773 265.853 84.4397 265.858C89.1233 266.048 93.7678 266.666 98.2897 267.701C98.413 267.716 98.5239 267.772 98.598 267.856C98.672 267.939 98.7032 268.044 98.6847 268.147C98.6661 268.25 98.5993 268.342 98.499 268.404C98.3986 268.466 98.273 268.492 98.1497 268.476Z" fill="white"/>
<path d="M87.7503 302.493V296.347H89.5703C91.6903 292.761 95.6503 289.383 101.5 286.573C119.85 277.733 149.6 277.733 167.95 286.573C173.81 289.383 177.77 292.761 179.89 296.347H181.69V302.293C181.84 308.131 177.27 314.077 167.95 318.563C149.6 327.395 119.85 327.395 101.5 318.563C92.2903 314.127 87.7103 308.306 87.7503 302.493Z" fill="#263238"/>
<path d="M168 280.343C149.65 271.512 119.9 271.512 101.55 280.343C83.1996 289.175 83.1996 303.502 101.55 312.342C119.9 321.182 149.65 321.174 168 312.342C186.35 303.511 186.3 289.183 168 280.343Z" fill="#455A64"/>
<path d="M146.829 186.04V293.62C146.829 295.104 145.649 296.597 143.289 297.731C138.569 300.008 130.909 300.008 126.189 297.731C123.829 296.597 122.649 295.104 122.649 293.62V186.04H146.829Z" fill="#37474F"/>
<path d="M122.64 211.476V218.765L146.83 230.39V223.151L122.64 211.476Z" fill="#263238"/>
<path d="M260.32 116.497L258.26 119.941L236.11 156.969L225.6 174.565L190 234.059L186.08 240.614C185.847 240.614 185.617 240.614 185.39 240.614C183.993 240.628 182.615 240.341 181.39 239.78L39.5898 171.396C38.4272 170.765 37.4592 169.914 36.7642 168.913C36.0693 167.912 35.6669 166.788 35.5898 165.633V114.679C35.5898 89.2019 55.6998 58.8711 80.5298 46.9123C92.3398 41.2497 103 40.7911 111 44.5355V44.4855L260.32 116.497Z" fill="#455A64"/>
<path d="M230.37 119.191C220.37 122.285 183.89 147.395 183.89 186.932C183.89 220.174 183.94 237.428 183.95 240.53C184.435 240.6 184.927 240.637 185.42 240.639C185.653 240.639 185.883 240.639 186.11 240.639L190.03 234.084L225.6 174.59L236.11 157.002L238.52 152.974L230.37 119.191Z" fill="#37474F"/>
<path d="M273.36 198.858C272.941 199.404 272.376 199.861 271.71 200.192L271.3 200.409L189.42 239.83C188.403 240.291 187.275 240.556 186.12 240.606C185.886 240.606 185.656 240.606 185.43 240.606V186.899C185.43 177.726 188.05 167.952 192.55 158.603L196.55 160.555L225.55 174.532L270.62 196.214L272.93 197.324C273.098 197.385 273.246 197.478 273.364 197.596C273.481 197.713 273.564 197.852 273.605 198.001C273.647 198.15 273.647 198.305 273.604 198.454C273.561 198.603 273.478 198.741 273.36 198.858Z" fill="#37474F"/>
<path d="M260.32 116.505C252.38 113.028 241.88 113.637 230.37 119.191C217.46 125.387 205.81 136.595 197.63 149.488C195.737 152.467 194.037 155.53 192.54 158.662C188.04 168.01 185.42 177.792 185.42 186.958V240.664C185.653 240.664 185.883 240.664 186.11 240.664C187.266 240.614 188.393 240.349 189.41 239.888L271.29 200.468L271.7 200.251C272.326 199.877 272.882 199.427 273.35 198.916C274.504 197.731 275.176 196.271 275.27 194.747V143.667C275.28 130.015 269.5 120.525 260.32 116.505ZM269.48 196.815L191.23 234.493C190.57 234.81 190.03 234.551 190.03 233.917V186.933C190.03 178.735 192.3 169.645 196.58 160.588C196.649 160.412 196.73 160.24 196.82 160.071C198.403 156.756 200.223 153.523 202.27 150.389C210.22 138.138 221.09 128.072 232.68 122.518C238.63 119.641 244.27 118.19 249.43 118.19C252.502 118.16 255.536 118.764 258.26 119.95C266.09 123.427 270.67 131.875 270.67 143.667V195.147C270.638 195.482 270.514 195.807 270.307 196.096C270.101 196.385 269.818 196.631 269.48 196.815Z" fill="#455A64"/>
<path d="M351.15 255V250.305H350.62V250.972C350.279 249.667 349.787 248.394 349.15 247.169C346.15 241.415 339.96 235.894 330.44 231.324L277.49 205.83C276.251 205.305 274.88 205.031 273.49 205.031C272.1 205.031 270.729 205.305 269.49 205.83L188.49 244.809C187.482 244.143 186.614 243.343 185.92 242.44V247.177C185.965 247.592 186.142 247.988 186.432 248.327C186.722 248.665 187.115 248.934 187.57 249.104L240.57 274.589C254.74 281.419 273.27 284.772 291.22 284.597C306.75 284.43 321.85 281.594 333.36 276.049C345.26 270.344 351.13 262.772 351.13 255.041L351.15 255Z" fill="#263238"/>
<path d="M349.15 247.169C346.15 241.415 339.96 235.894 330.44 231.324L277.49 205.83C276.251 205.305 274.88 205.031 273.49 205.031C272.1 205.031 270.73 205.305 269.49 205.83L188.49 244.809L240.49 269.827C254.66 276.657 273.19 280.01 291.14 279.835C306.67 279.66 321.77 276.832 333.28 271.287C343.96 266.158 349.8 259.536 350.87 252.64C350.618 250.756 350.039 248.913 349.15 247.169Z" fill="#455A64"/>
<path d="M351 252.631C350.718 250.747 350.109 248.906 349.19 247.169C346.19 241.415 340 235.894 330.48 231.324L277.53 205.83C276.291 205.305 274.92 205.031 273.53 205.031C272.14 205.031 270.769 205.305 269.53 205.83L188.53 244.809L187.61 244.375C185.41 243.308 185.41 241.59 187.61 240.531L269.49 201.101C270.729 200.576 272.1 200.302 273.49 200.302C274.88 200.302 276.251 200.576 277.49 201.101L330.44 226.595C339.96 231.182 346.19 236.703 349.15 242.44C350.123 244.296 350.753 246.265 351.02 248.278C351.22 249.725 351.214 251.186 351 252.631Z" fill="#37474F"/>
<path d="M270.67 143.667V196.273L196.58 160.588C196.65 160.413 196.73 160.24 196.82 160.071C204.76 143.517 218.16 129.482 232.68 122.543C238.63 119.666 244.27 118.215 249.43 118.215C262.53 118.19 270.67 127.947 270.67 143.667Z" fill="#263238"/>
<path d="M137.27 184.005L143.79 180.87H143.84C146.07 179.819 149.14 179.977 152.53 181.612C159.35 184.898 164.88 192.887 164.88 199.458C164.88 202.736 163.5 205.046 161.28 206.13L155.22 209.024L154.12 207.498C152.876 207.266 151.683 206.878 150.58 206.347C143.76 203.061 138.22 195.072 138.22 188.5C138.222 187.615 138.353 186.733 138.61 185.873L137.27 184.005Z" fill="#E0E0E0"/>
<path d="M146.259 184.598C153.079 187.883 158.619 195.873 158.619 202.444C158.619 209.016 153.079 211.676 146.259 208.39C139.439 205.104 133.899 197.115 133.899 190.544C133.899 183.972 139.429 181.312 146.259 184.598Z" fill="#FAFAFA"/>
<path d="M146.26 199.317C145.31 199.317 144.4 199.002 143.728 198.442C143.057 197.882 142.68 197.123 142.68 196.331V111.869C142.68 111.077 143.057 110.317 143.728 109.757C144.4 109.198 145.31 108.883 146.26 108.883C147.209 108.883 148.12 109.198 148.791 109.757C149.463 110.317 149.84 111.077 149.84 111.869V196.339C149.837 197.13 149.459 197.887 148.788 198.445C148.117 199.003 147.207 199.317 146.26 199.317Z" fill="#EBEBEB"/>
<path d="M142.68 120.216L106.78 102.937L118.02 120.959L106.78 128.172L142.68 145.452V120.216Z" fill="#E32764"/>
<path d="M330.119 198.232C330.083 197.669 329.888 197.121 329.549 196.632C329.21 196.144 328.737 195.729 328.169 195.422L228.479 147.42C227.877 147.165 227.21 147.032 226.534 147.032C225.859 147.032 225.192 147.165 224.589 147.42L222.389 148.479C221.82 148.787 221.347 149.203 221.008 149.693C220.669 150.183 220.474 150.733 220.439 151.298V215.02C220.478 215.584 220.675 216.133 221.013 216.622C221.352 217.112 221.823 217.528 222.389 217.839L322.079 265.832C322.684 266.087 323.352 266.22 324.029 266.22C324.707 266.22 325.375 266.087 325.979 265.832L328.169 264.773C328.735 264.464 329.206 264.049 329.545 263.561C329.883 263.073 330.08 262.526 330.119 261.963V198.232Z" fill="#E32764"/>
<path opacity="0.4" d="M329.55 196.631L324 199.317L221 149.697C221.328 149.199 221.803 148.78 222.38 148.479L224.58 147.428C225.181 147.169 225.848 147.034 226.525 147.034C227.202 147.034 227.869 147.169 228.47 147.428L328.16 195.422C328.739 195.72 329.218 196.136 329.55 196.631Z" fill="white"/>
<path opacity="0.1" d="M330.12 198.232V261.954C330.085 262.519 329.89 263.069 329.551 263.559C329.212 264.049 328.739 264.465 328.17 264.773L326 265.832C325.827 265.912 325.647 265.979 325.46 266.032C325.2 266.105 324.932 266.155 324.66 266.183C324.147 266.24 323.627 266.226 323.12 266.141L322.74 266.057L322.51 265.982C322.657 266.034 322.815 266.061 322.975 266.061C323.135 266.061 323.293 266.034 323.44 265.982C323.647 265.867 323.813 265.707 323.919 265.519C324.025 265.331 324.067 265.122 324.04 264.915V201.168C324.061 200.88 323.976 200.593 323.798 200.346C323.619 200.099 323.355 199.903 323.04 199.783L324.04 199.291L329.57 196.631C329.912 197.117 330.102 197.668 330.12 198.232Z" fill="#101828"/>
<path opacity="0.2" d="M324 199.317L277.84 213.702C276.243 214.2 274.49 214.23 272.87 213.785C271.251 213.341 269.861 212.45 268.93 211.259L261.52 201.785L220.63 149.538L260.04 202.144L220.42 215.07C220.455 215.646 220.664 216.206 221.03 216.696L260.15 202.294L268.76 213.786C269.717 215.063 271.195 216.01 272.921 216.452C274.648 216.895 276.507 216.804 278.16 216.196L284.29 213.936L323.4 265.991C323.608 265.876 323.773 265.716 323.879 265.527C323.985 265.339 324.027 265.13 324 264.923V263.856L284.5 213.844L324 199.317Z" fill="#101828"/>
<path d="M434.87 278.542L433.16 276.432C433.16 276.432 418.16 254.999 415.08 250.788C412 246.576 400.9 240.088 400.9 240.088L402.07 200.659L376 203.82C375.79 208.523 376.67 226.503 380.75 235.51C383.001 240.628 385.848 245.549 389.25 250.204C390.47 251.955 426.94 281.744 426.94 281.744L428 282.712C428.702 283.383 429.664 283.827 430.719 283.967C431.773 284.107 432.853 283.935 433.77 283.479L433.86 283.429C434.764 282.887 435.376 282.072 435.565 281.158C435.754 280.244 435.504 279.304 434.87 278.542Z" fill="#FFA8A7"/>
<path d="M431.891 274.597L427.211 267.926C427.211 267.926 427.281 271.061 424.761 272.929C423.111 274.091 421.159 274.916 419.061 275.34L425.481 280.602C425.481 280.602 431.821 280.485 431.891 274.597Z" fill="#F0F0F0"/>
<path d="M441 283.746C440.79 282.77 439.38 281.419 438.47 280.56C436.64 278.65 432.42 272.788 431.61 272.037C431.53 271.936 431.421 271.852 431.293 271.795C431.164 271.737 431.021 271.707 430.875 271.707C430.73 271.707 430.586 271.737 430.458 271.795C430.33 271.852 430.22 271.936 430.14 272.037L430.75 272.913C430.75 272.913 431.62 274.464 429.3 277.082C428.3 278.2 425.25 279.484 423.73 279.151L422.89 278.467C422.26 279.543 423.28 280.135 425.16 281.678C427.04 283.22 426.36 286.281 425.77 287.649C424.582 289.915 422.794 291.928 420.54 293.536C416.04 296.872 415.87 298.073 417.87 299.157C419.57 300.075 424.56 300.517 428.3 299.157C431.72 297.94 433 296.313 433.64 293.57C434.28 290.826 436.28 289.942 438.01 288.699C439.74 287.457 441.27 285.214 441 283.746Z" fill="#263238"/>
<path d="M415.4 203.928L381.05 200.059H378.71C378.71 200.059 377.81 205.896 383.49 212.485C385.461 214.876 387.742 217.08 390.29 219.056C390.29 219.056 386.21 239.471 384.78 249.295C383.62 257.226 379.78 285.781 378.78 292.819C378.637 293.874 378.424 294.92 378.14 295.955L376.62 301.442L384.07 302.877L386.2 298.707C386.778 296.619 387.571 294.576 388.57 292.602C392.445 284.575 395.754 276.367 398.48 268.017C400.48 261.488 399.65 254.107 399.48 252.356C399.48 252.356 411.82 230.673 414.89 217.997C416.15 213.379 416.324 208.601 415.4 203.928Z" fill="#FFA8A7"/>
<path d="M378.71 293.553L379.78 285.672C379.78 285.672 384.12 288.324 391.37 286.706C390.27 289.208 388.96 292.01 387.54 294.954C387.54 294.954 383.89 298.532 380.93 297.673C377.97 296.814 378.71 293.553 378.71 293.553Z" fill="#F0F0F0"/>
<path d="M388.45 293.061L388.05 293.895C388.05 293.895 386.22 295.905 381.44 294.946C380.663 294.82 379.972 294.455 379.503 293.923C379.034 293.392 378.822 292.733 378.91 292.077C378.91 292.077 377.82 292.077 377.71 292.811C377.239 295.721 375.825 298.469 373.62 300.758C372.216 301.959 370.617 302.989 368.87 303.819C364.6 306.012 360.65 307.397 360.16 308.698C359.36 310.849 362.78 312.767 368.16 313.026C370.674 313.187 373.197 312.843 375.52 312.025C377.593 311.115 379.445 309.89 380.98 308.414C382.29 307.321 386.28 306.221 387.27 304.903C387.69 304.336 387.91 302.093 387.91 300.858V299.958C388.127 298.115 388.621 296.302 389.38 294.562C389.72 293.553 388.45 293.061 388.45 293.061Z" fill="#263238"/>
<path d="M376.001 203.82C376.001 203.82 375.791 215.128 376.001 220.115C376.211 225.102 377.321 237.87 377.321 237.87C380.207 238.932 383.337 239.453 386.491 239.396L386.141 241.389C393.526 244.695 402.088 245.68 410.271 244.166C410.271 244.166 415.571 228.43 416.391 217.33C417.211 206.23 415.471 203.928 415.471 203.928L376.001 203.82Z" fill="#455A64"/>
<path d="M386.6 238.412C394.267 241.503 402.963 242.335 411.27 240.772L410.97 241.756C410.97 241.756 399.84 244.975 386.42 239.396L386.6 238.412Z" fill="#37474F"/>
<path d="M377 234.584C377 234.584 382.56 236.252 387 236.169L386.85 237.003C386.85 237.003 381 236.844 377 235.468V234.584Z" fill="#37474F"/>
<path d="M385.74 243.274C385.74 243.274 389.43 221.967 390.29 219.09C390.29 219.09 383.95 217.063 382.01 215.203C382.01 215.203 383.39 217.797 387.92 220.107L385.74 243.274Z" fill="#F28F8F"/>
<path d="M382 215.162C382 215.162 383.38 217.755 387.91 220.065L386.1 239.388H386.41C387.52 233.117 389.65 221.183 390.28 219.039C390.29 219.048 384 217.021 382 215.162Z" fill="#263238"/>
<path d="M399.521 252.372C400.521 251.23 402.521 247.369 403.701 244.817H403.941L400.941 252.956C401.581 255.638 401.869 258.37 401.801 261.104L399.801 259.645C399.881 258.419 399.521 252.372 399.521 252.372Z" fill="#F28F8F"/>
<path d="M379.84 194.93C384.84 180.978 383.84 169.161 384.84 165.542L371.97 180.553C371.423 185.496 370.545 190.41 369.34 195.272C367.85 200.609 365.82 207.256 363.39 211.392C362.949 212.122 362.202 212.692 361.29 212.993C358.86 213.827 357.74 214.861 355.79 216.062C354.26 217.005 353.1 217.13 353.2 217.513C353.365 217.945 353.719 218.309 354.192 218.532C354.665 218.755 355.222 218.82 355.75 218.714C356.928 218.507 358.072 218.185 359.16 217.755C358.043 219.29 356.638 220.667 355 221.833C351.28 224.535 350.74 226.445 356.94 227.387C360.82 227.971 364.34 226.42 368.75 219.698C370.432 217.245 371.903 214.695 373.15 212.068C376.09 205.229 378.32 199.15 379.84 194.93Z" fill="#FFA8A7"/>
<path d="M389.19 159.287C383.19 159.287 377.19 160.438 375.19 165.783C373.19 171.129 370.53 186.165 370.53 186.165C370.53 186.165 373.06 188.984 381.53 188.542L389.19 159.287Z" fill="#E0E0E0"/>
<path d="M401.58 159.662C405.81 160.496 410.71 161.23 414.8 162.923C417.65 164.099 413.48 183.772 413.48 183.772L415.4 203.903C409.76 208.991 388.21 211.309 375.96 203.795C375.96 203.795 376.07 176.4 376.09 171.196C376.11 165.992 379.61 159.737 389.19 159.295L401.58 159.662Z" fill="#F5F5F5"/>
<path d="M385.23 166.125C386.01 167.66 387.43 168.277 390.01 168.519C391.306 168.595 392.607 168.45 393.835 168.095C395.062 167.739 396.19 167.18 397.15 166.451L393.94 163.782L389.87 166.342L389.52 163.499L385.23 166.125Z" fill="#E32764"/>
<path opacity="0.1" d="M385.23 166.125C386.01 167.66 387.43 168.277 390.01 168.519C391.306 168.595 392.607 168.45 393.835 168.095C395.062 167.739 396.19 167.18 397.15 166.451L393.94 163.782L389.87 166.342L389.52 163.499L385.23 166.125Z" fill="#101828"/>
<path d="M413.5 183.413L409.82 174.848L414.09 190.235L413.5 183.413Z" fill="#E0E0E0"/>
<path d="M408.33 141.557L405.64 150.297C405.36 151.206 404.724 152.012 403.833 152.586C402.942 153.16 401.846 153.47 400.72 153.466H397.61L397.66 141.265L408.33 141.557Z" fill="#263238"/>
<path d="M398.24 138.326C398.27 133.149 393.262 128.932 387.055 128.906C380.847 128.881 375.79 133.057 375.76 138.234C375.73 143.411 380.737 147.628 386.945 147.653C393.153 147.679 398.209 143.502 398.24 138.326Z" fill="#263238"/>
<path d="M404.38 133.009C405.026 132.947 405.681 133.008 406.294 133.189C406.908 133.369 407.464 133.664 407.92 134.052C409.43 135.353 409.11 137.746 407.92 143.225L403.22 143.659L404.38 133.009Z" fill="#263238"/>
<path d="M402.14 143.692C402.83 144.042 403.83 142.925 404.7 142.174C405.57 141.424 408.37 140.415 409.76 142.875C411.15 145.335 408.93 148.713 406.76 149.421C405.999 149.732 405.123 149.785 404.315 149.569C403.508 149.353 402.833 148.885 402.43 148.262L401.55 159.662C401.55 159.662 396.55 165.6 389.84 166.334C388.31 163.565 386.94 161.58 389.16 159.312V155.826C387.467 156.073 385.744 156.143 384.03 156.035C382.665 155.775 381.415 155.198 380.428 154.37C379.44 153.541 378.754 152.496 378.45 151.356C376.945 146.318 376.781 141.066 377.97 135.97C379.8 127.288 391.48 127.172 398.06 130.649C404.64 134.127 402.14 143.692 402.14 143.692Z" fill="#FFA8A7"/>
<path d="M402.14 144.668C402.49 144.668 403.83 142.833 404.7 142.166C405.9 141.265 404.38 132.993 404.38 132.993C403.8 126.221 391.83 125.671 388.52 125.487C380.94 125.012 375.77 128.498 377.81 132.918C379.18 134.919 381.97 135.478 384.6 135.753C389.06 136.22 396.66 134.244 397.6 134.135C398.9 133.993 399.17 135.044 399.86 137.896C400.47 140.398 401 144.643 402.14 144.668Z" fill="#263238"/>
<path d="M404.38 133.651L408.6 131.767C408.466 131.529 408.276 131.317 408.041 131.143C407.806 130.969 407.531 130.836 407.233 130.753C406.935 130.669 406.62 130.637 406.306 130.658C405.993 130.679 405.688 130.752 405.41 130.874C404.84 131.136 404.415 131.571 404.222 132.089C404.03 132.607 404.087 133.167 404.38 133.651Z" fill="#263238"/>
<path d="M389.22 155.834C389.22 155.834 395.47 154.809 397.66 153.841C398.939 153.278 399.985 152.406 400.66 151.339C400.352 152.404 399.787 153.406 399 154.283C397.4 155.951 389.25 157.219 389.25 157.219L389.22 155.834Z" fill="#F28F8F"/>
<path d="M389.07 143.442C389.066 143.582 389.096 143.721 389.156 143.851C389.217 143.981 389.308 144.1 389.425 144.201C389.541 144.302 389.68 144.383 389.834 144.438C389.987 144.494 390.153 144.524 390.32 144.526C390.659 144.519 390.981 144.402 391.217 144.199C391.453 143.996 391.583 143.724 391.58 143.442C391.596 143.297 391.575 143.15 391.519 143.012C391.463 142.874 391.373 142.747 391.255 142.639C391.137 142.532 390.994 142.446 390.833 142.387C390.673 142.328 390.5 142.298 390.325 142.298C390.151 142.298 389.978 142.328 389.817 142.387C389.657 142.446 389.514 142.532 389.396 142.639C389.278 142.747 389.188 142.874 389.132 143.012C389.076 143.15 389.055 143.297 389.07 143.442Z" fill="#263238"/>
<path d="M390.41 139.522L393.09 140.765C393.282 140.459 393.325 140.104 393.209 139.773C393.094 139.441 392.829 139.16 392.47 138.989C392.294 138.908 392.099 138.858 391.899 138.841C391.699 138.824 391.497 138.841 391.304 138.891C391.112 138.941 390.934 139.022 390.78 139.131C390.627 139.239 390.501 139.372 390.41 139.522Z" fill="#263238"/>
<path d="M389.81 150.447L387 151.331C387.055 151.495 387.15 151.647 387.279 151.778C387.408 151.91 387.568 152.018 387.748 152.097C387.929 152.175 388.127 152.221 388.331 152.233C388.534 152.245 388.738 152.222 388.93 152.165C389.315 152.03 389.623 151.775 389.787 151.455C389.951 151.134 389.959 150.773 389.81 150.447Z" fill="#F28F8F"/>
<path d="M378.57 140.365L381.02 138.797C380.906 138.659 380.759 138.542 380.589 138.454C380.419 138.365 380.229 138.306 380.031 138.28C379.833 138.254 379.63 138.262 379.436 138.304C379.241 138.345 379.059 138.419 378.9 138.522C378.572 138.735 378.355 139.045 378.293 139.388C378.232 139.731 378.331 140.081 378.57 140.365Z" fill="#263238"/>
<path d="M379.29 142.866C379.29 142.998 379.321 143.128 379.381 143.249C379.442 143.371 379.53 143.481 379.642 143.574C379.753 143.667 379.885 143.741 380.031 143.791C380.176 143.841 380.332 143.867 380.49 143.867C380.648 143.867 380.804 143.841 380.949 143.791C381.095 143.741 381.227 143.667 381.339 143.574C381.45 143.481 381.538 143.371 381.599 143.249C381.659 143.128 381.69 142.998 381.69 142.866C381.695 142.733 381.669 142.599 381.612 142.474C381.554 142.349 381.468 142.234 381.357 142.137C381.246 142.04 381.113 141.962 380.966 141.909C380.819 141.855 380.661 141.826 380.5 141.824C380.175 141.831 379.865 141.944 379.639 142.139C379.413 142.334 379.287 142.595 379.29 142.866Z" fill="#263238"/>
<path d="M384.56 143.025L385.71 149.246L381.59 148.829L384.56 143.025Z" fill="#F28F8F"/>
<path d="M387.26 165.292C387.17 166.258 387.187 167.23 387.31 168.194C387.433 169.06 387.829 169.883 388.46 170.579C388.867 170.797 389.329 170.934 389.809 170.977C390.29 171.02 390.777 170.97 391.23 170.829C391.987 170.204 392.572 169.449 392.945 168.617C393.318 167.784 393.47 166.895 393.39 166.009L389.87 166.342L387.26 165.292Z" fill="#E32764"/>
<path d="M388.46 170.579C388.46 170.579 384.3 183.421 384.14 184.973C383.98 186.524 387.6 194.797 389.19 194.838C390.78 194.88 393.68 189.251 393.73 187.833C393.78 186.415 391.23 170.829 391.23 170.829L388.46 170.579Z" fill="#E32764"/>
<path opacity="0.1" d="M391.23 170.829C390.783 170.995 390.291 171.059 389.804 171.015C389.318 170.971 388.854 170.821 388.46 170.579L388.38 170.804C388.781 171.083 389.257 171.277 389.767 171.368C390.278 171.46 390.807 171.446 391.31 171.329L391.23 170.829Z" fill="#101828"/>
<path d="M389.87 166.342L401.63 158.945L401.8 156.752C401.8 156.752 404.35 157.586 404.97 161.589C403.096 165.054 399.89 167.901 395.86 169.678L393.39 166.009L389.87 166.342Z" fill="#E0E0E0"/>
<path d="M389.2 157.677C387.661 157.875 386.278 158.57 385.35 159.612C384.17 161.28 384.44 167.426 384.44 167.426L387.26 165.291L389.87 166.342C389.62 164.282 389.19 160.805 389.19 160.805L389.2 157.677Z" fill="#E0E0E0"/>
<path d="M399.62 136.453C399.62 136.453 391.08 141.824 381.02 140.098C370.36 138.263 377.6 132.917 377.6 132.917L399.62 136.453Z" fill="#37474F"/>
<path d="M372.53 126.379C375.39 123.41 387.37 119.708 397.61 121.718C407.85 123.727 410.61 128.189 410.61 128.189C406.494 130.305 401.698 131.315 396.87 131.083C388.71 130.707 372.53 126.379 372.53 126.379Z" fill="#E32764"/>
<path opacity="0.4" d="M372.53 126.379C375.39 123.41 387.37 119.708 397.61 121.718C407.85 123.727 410.61 128.189 410.61 128.189C406.494 130.305 401.698 131.315 396.87 131.083C388.71 130.707 372.53 126.379 372.53 126.379Z" fill="white"/>
<path d="M409.29 130.874C409.882 130.039 410.317 129.134 410.58 128.189C410.58 128.189 409.37 129.165 402.43 128.281C395.85 127.447 389 124.253 381.69 123.994C374.38 123.736 372.53 126.379 372.53 126.379C373.463 128.413 374.96 130.234 376.9 131.691C376.9 131.691 380.15 135.361 388.71 135.544C397.27 135.728 409.29 130.874 409.29 130.874Z" fill="#E32764"/>
<path d="M385.37 129.565C385.37 131.233 384.01 132.392 382.37 132.175C381.481 131.971 380.701 131.522 380.156 130.901C379.612 130.281 379.335 129.525 379.37 128.756C379.37 127.088 380.73 125.929 382.37 126.154C383.258 126.357 384.038 126.804 384.583 127.424C385.128 128.043 385.405 128.798 385.37 129.565Z" fill="#F5F5F5"/>
<path d="M409.29 130.874L409.2 132.017C409.16 132.397 409.015 132.765 408.778 133.092C408.54 133.418 408.216 133.695 407.83 133.902C402.03 136.462 395.469 137.573 388.93 137.104C382.85 136.729 379.88 135.736 378.58 134.911C378.128 134.691 377.747 134.383 377.472 134.012C377.196 133.641 377.034 133.219 377 132.784L376.9 131.692C376.9 131.692 379.27 133.576 389.23 134.268C399.19 134.961 409.29 130.874 409.29 130.874Z" fill="#455A64"/>
<path d="M385.42 159.512C385.42 159.512 380.63 162.489 383.54 175.04C387.19 190.71 398.17 207.097 398.17 207.097C398.17 207.097 393.37 208.899 392.63 208.265C391.89 207.631 385.12 194.813 382.27 187.475C379.42 180.136 375.27 168.294 380.61 160.613C380.61 160.613 383.12 158.962 385.42 159.512Z" fill="#E32764"/>
<path opacity="0.1" d="M385.42 159.512C385.42 159.512 380.63 162.489 383.54 175.04C387.19 190.71 398.17 207.097 398.17 207.097C398.17 207.097 393.37 208.899 392.63 208.265C391.89 207.631 385.12 194.813 382.27 187.475C379.42 180.136 375.27 168.294 380.61 160.613C380.61 160.613 383.12 158.962 385.42 159.512Z" fill="#101828"/>
<path d="M422.16 200.334C422.16 200.334 393.77 206.689 392.75 207.956C391.73 209.224 393.83 227.612 397.35 229.847C399.692 231.139 402.407 231.882 405.21 231.999C415.8 231.882 431.56 227.196 432.04 223.851C433.61 212.86 422.16 200.334 422.16 200.334Z" fill="#E32764"/>
<path opacity="0.1" d="M422.16 200.334C422.16 200.334 393.77 206.689 392.75 207.956C391.73 209.224 393.83 227.612 397.35 229.847C399.692 231.139 402.407 231.882 405.21 231.999C415.8 231.882 431.56 227.196 432.04 223.851C433.61 212.86 422.16 200.334 422.16 200.334Z" fill="#101828"/>
<path d="M422.16 200.334C425.06 200.993 429.69 208.256 429.7 209.791C429.7 213.052 425.24 216.596 411.79 218.964C402.22 220.632 399.05 219.265 397.72 216.913C395.72 213.36 394.51 209.024 392.72 207.956C394.7 205.988 419.48 199.725 422.16 200.334Z" fill="#E32764"/>
<path d="M430.51 194.096C430.05 188.183 427.01 180.853 425.25 177.225L413.51 180.911C413.51 180.911 417.84 189.676 418.86 193.671C418.86 198.266 416.59 206.239 414.38 210.458C413.98 211.199 413.268 211.792 412.38 212.126C410 213.044 408.93 214.128 407.05 215.404C405.57 216.404 404.42 216.571 404.54 216.946C404.729 217.373 405.104 217.723 405.59 217.927C406.077 218.132 406.638 218.175 407.16 218.047C408.322 217.799 409.443 217.435 410.5 216.963C409.482 218.548 408.161 219.984 406.59 221.216C403.02 224.052 402.59 225.986 408.82 226.695C412.73 227.137 416.17 225.461 420.21 218.581C421.38 216.596 423.57 213.21 424.76 210.6C428.7 201.994 430.18 197.932 430.51 194.096Z" fill="#FFA8A7"/>
<path d="M411.72 161.931C416.48 162.122 419.65 163.732 422.79 168.936C425.93 174.14 429.51 184.781 429.51 184.781C425.699 187.483 420.795 188.87 415.8 188.659C415.8 188.659 409.69 175.049 408.65 171.821C407.53 168.285 408.54 163.132 411.72 161.931Z" fill="#F5F5F5"/>
</svg>
