<svg width="60" height="79" fill="none" xmlns="http://www.w3.org/2000/svg"><g filter="url('#filter0_d_1352_21747')"><path d="M2.425 71V60.364l24.852-23.012c2.114-2.045 3.886-3.886 5.318-5.522 1.455-1.637 2.557-3.24 3.307-4.807.75-1.591 1.125-3.307 1.125-5.148 0-2.046-.466-3.807-1.398-5.284-.932-1.5-2.204-2.648-3.818-3.443-1.614-.819-3.443-1.227-5.489-1.227-2.136 0-4 .431-5.59 1.295a8.929 8.929 0 0 0-3.682 3.716c-.864 1.614-1.296 3.534-1.296 5.761H1.743c0-4.568 1.034-8.534 3.102-11.898C6.913 7.433 9.811 4.83 13.538 2.99 17.266 1.148 21.561.227 26.425.227c5 0 9.352.887 13.056 2.66 3.728 1.75 6.625 4.181 8.694 7.295 2.068 3.114 3.102 6.682 3.102 10.704 0 2.637-.523 5.239-1.568 7.807-1.023 2.568-2.853 5.42-5.489 8.557-2.636 3.114-6.352 6.852-11.148 11.216L22.88 58.455v.477h29.318V71H2.425Z" fill="#E32764" fill-opacity=".3" shape-rendering="crispEdges"/></g><defs><filter id="filter0_d_1352_21747" x=".743" y=".227" width="58.455" height="78.773" filterUnits="userSpaceOnUse" color-interpolation-filters="sRGB"><feFlood flood-opacity="0" result="BackgroundImageFix"/><feColorMatrix in="SourceAlpha" values="0 0 0 0 0 0 0 0 0 0 0 0 0 0 0 0 0 0 127 0" result="hardAlpha"/><feOffset dx="3" dy="4"/><feGaussianBlur stdDeviation="2"/><feComposite in2="hardAlpha" operator="out"/><feColorMatrix values="0 0 0 0 0.890196 0 0 0 0 0.152941 0 0 0 0 0.392157 0 0 0 0.5 0"/><feBlend in2="BackgroundImageFix" result="effect1_dropShadow_1352_21747"/><feBlend in="SourceGraphic" in2="effect1_dropShadow_1352_21747" result="shape"/></filter></defs></svg>