<svg width="62" height="80" viewBox="0 0 62 80" fill="none" xmlns="http://www.w3.org/2000/svg">
<g filter="url('#filter0_d_1352_21746')">
<path d="M27.8253 71.9545C22.7344 71.9545 18.2003 71.0795 14.223 69.3295C10.2685 67.5568 7.14347 65.125 4.84801 62.0341C2.57528 58.9205 1.40483 55.3295 1.33665 51.2614H16.2003C16.2912 52.9659 16.848 54.4659 17.8707 55.7614C18.9162 57.0341 20.3026 58.0227 22.0298 58.7273C23.7571 59.4318 25.7003 59.7841 27.8594 59.7841C30.1094 59.7841 32.098 59.3864 33.8253 58.5909C35.5526 57.7955 36.9048 56.6932 37.8821 55.2841C38.8594 53.875 39.348 52.25 39.348 50.4091C39.348 48.5455 38.8253 46.8977 37.7798 45.4659C36.7571 44.0114 35.2798 42.875 33.348 42.0568C31.4389 41.2386 29.1662 40.8295 26.5298 40.8295H20.0185V29.9886H26.5298C28.7571 29.9886 30.723 29.6023 32.4276 28.8295C34.1548 28.0568 35.4957 26.9886 36.4503 25.625C37.4048 24.2386 37.8821 22.625 37.8821 20.7841C37.8821 19.0341 37.4616 17.5 36.6207 16.1818C35.8026 14.8409 34.6435 13.7955 33.1435 13.0455C31.6662 12.2955 29.9389 11.9205 27.9616 11.9205C25.9616 11.9205 24.1321 12.2841 22.473 13.0114C20.8139 13.7159 19.4844 14.7273 18.4844 16.0455C17.4844 17.3636 16.9503 18.9091 16.8821 20.6818H2.73438C2.80256 16.6591 3.95028 13.1136 6.17756 10.0455C8.40483 6.97727 11.4048 4.57954 15.1776 2.85227C18.973 1.10227 23.2571 0.22727 28.0298 0.22727C32.848 0.22727 37.0639 1.10227 40.6776 2.85227C44.2912 4.60227 47.098 6.96591 49.098 9.94318C51.1207 12.8977 52.1207 16.2159 52.098 19.8977C52.1207 23.8068 50.9048 27.0682 48.4503 29.6818C46.0185 32.2955 42.848 33.9545 38.9389 34.6591V35.2045C44.0753 35.8636 47.9844 37.6477 50.6662 40.5568C53.3707 43.4432 54.7116 47.0568 54.6889 51.3977C54.7116 55.375 53.5639 58.9091 51.2457 62C48.9503 65.0909 45.7798 67.5227 41.7344 69.2955C37.6889 71.0682 33.0526 71.9545 27.8253 71.9545Z" fill="#E32764" fill-opacity="0.3" shape-rendering="crispEdges"></path>
</g>
<defs>
<filter id="filter0_d_1352_21746" x="0.33667" y="0.227295" width="61.3862" height="79.7273" filterUnits="userSpaceOnUse" color-interpolation-filters="sRGB">
<feFlood flood-opacity="0" result="BackgroundImageFix"></feFlood>
<feColorMatrix in="SourceAlpha" type="matrix" values="0 0 0 0 0 0 0 0 0 0 0 0 0 0 0 0 0 0 127 0" result="hardAlpha"></feColorMatrix>
<feOffset dx="3" dy="4"></feOffset>
<feGaussianBlur stdDeviation="2"></feGaussianBlur>
<feComposite in2="hardAlpha" operator="out"></feComposite>
<feColorMatrix type="matrix" values="0 0 0 0 0.890196 0 0 0 0 0.152941 0 0 0 0 0.392157 0 0 0 0.5 0"></feColorMatrix>
<feBlend mode="normal" in2="BackgroundImageFix" result="effect1_dropShadow_1352_21746"></feBlend>
<feBlend mode="normal" in="SourceGraphic" in2="effect1_dropShadow_1352_21746" result="shape"></feBlend>
</filter>
</defs>
</svg>
