<svg width="62" height="80" fill="none" xmlns="http://www.w3.org/2000/svg"><g filter="url('#filter0_d_1352_21746')"><path d="M27.825 71.954c-5.09 0-9.625-.874-13.602-2.624-3.955-1.773-7.08-4.205-9.375-7.296-2.273-3.114-3.443-6.704-3.511-10.773H16.2c.091 1.705.648 3.205 1.67 4.5 1.046 1.273 2.433 2.262 4.16 2.966 1.727.705 3.67 1.057 5.83 1.057 2.25 0 4.238-.398 5.965-1.193 1.728-.796 3.08-1.898 4.057-3.307.977-1.409 1.466-3.034 1.466-4.875 0-1.864-.523-3.511-1.568-4.943-1.023-1.455-2.5-2.591-4.432-3.41-1.91-.817-4.182-1.226-6.818-1.226h-6.512V29.989h6.512c2.227 0 4.193-.387 5.898-1.16 1.727-.772 3.068-1.84 4.022-3.204.955-1.386 1.432-3 1.432-4.84 0-1.75-.42-3.285-1.261-4.603-.818-1.341-1.977-2.386-3.477-3.136-1.478-.75-3.205-1.125-5.182-1.125-2 0-3.83.363-5.489 1.09-1.66.705-2.989 1.716-3.989 3.035-1 1.318-1.534 2.863-1.602 4.636H2.734c.069-4.023 1.216-7.568 3.444-10.636 2.227-3.069 5.227-5.466 9-7.194C18.973 1.102 23.258.227 28.03.227c4.818 0 9.034.875 12.648 2.625 3.613 1.75 6.42 4.114 8.42 7.091 2.023 2.955 3.023 6.273 3 9.955.023 3.909-1.193 7.17-3.648 9.784-2.431 2.613-5.602 4.273-9.511 4.977v.546c5.136.659 9.045 2.443 11.727 5.352 2.705 2.886 4.046 6.5 4.023 10.84.023 3.978-1.125 7.512-3.443 10.603-2.296 3.09-5.466 5.523-9.512 7.296-4.045 1.772-8.681 2.658-13.909 2.658Z" fill="#E32764" fill-opacity=".3" shape-rendering="crispEdges"/></g><defs><filter id="filter0_d_1352_21746" x=".337" y=".227" width="61.386" height="79.727" filterUnits="userSpaceOnUse" color-interpolation-filters="sRGB"><feFlood flood-opacity="0" result="BackgroundImageFix"/><feColorMatrix in="SourceAlpha" values="0 0 0 0 0 0 0 0 0 0 0 0 0 0 0 0 0 0 127 0" result="hardAlpha"/><feOffset dx="3" dy="4"/><feGaussianBlur stdDeviation="2"/><feComposite in2="hardAlpha" operator="out"/><feColorMatrix values="0 0 0 0 0.890196 0 0 0 0 0.152941 0 0 0 0 0.392157 0 0 0 0.5 0"/><feBlend in2="BackgroundImageFix" result="effect1_dropShadow_1352_21746"/><feBlend in="SourceGraphic" in2="effect1_dropShadow_1352_21746" result="shape"/></filter></defs></svg>