<svg width="500" height="500" viewBox="0 0 500 500" fill="none" xmlns="http://www.w3.org/2000/svg">
<path d="M493.72 331.54C493.72 295.54 469.94 259.54 422.34 232.02C410.06 224.979 397.24 218.926 384 213.92V204.92C289.41 168.92 161 174.92 77.7097 223.01C26.0997 252.78 2.48974 292.58 6.79974 331.54V333.68C6.48506 336.546 6.32483 339.427 6.31974 342.31C6.31974 369.31 19.6697 396.25 46.3197 419.63C56.0182 428.027 66.5148 435.456 77.6597 441.81C172.84 496.75 327.16 496.75 422.34 441.81C469.93 414.33 493.72 378.32 493.72 342.31V331.54Z" fill="#E0E0E0"></path>
<path d="M422.34 431C327.16 486 172.84 486 77.6603 431C66.5158 424.649 56.0191 417.224 46.3203 408.83L384 213.92C397.24 218.92 410.06 224.965 422.34 232C517.52 287 517.52 376.05 422.34 431Z" fill="#EBEBEB"></path>
<path d="M384 204.92L46.32 399.84C-16 345.23 -5.55999 271.07 77.66 223C160.88 174.93 289.36 168.93 384 204.92Z" fill="#F5F5F5"></path>
<path d="M383.95 213.92V204.92L46.3203 399.84V408.84L383.95 213.92Z" fill="#E0E0E0"></path>
<path opacity="0.05" d="M383.95 213.92V204.92L46.3203 399.84V408.84L383.95 213.92Z" fill="#101828"></path>
<path d="M175.16 401.78L166.4 396.72C165.864 396.449 165.272 396.307 164.67 396.307C164.069 396.307 163.477 396.449 162.94 396.72L105.5 429.92C105.293 429.993 105.114 430.128 104.987 430.307C104.86 430.486 104.792 430.701 104.792 430.92C104.792 431.14 104.86 431.354 104.987 431.533C105.114 431.712 105.293 431.847 105.5 431.92L114.22 436.92C114.759 437.191 115.353 437.332 115.955 437.332C116.558 437.332 117.152 437.191 117.69 436.92L175.16 403.74C175.355 403.66 175.521 403.524 175.637 403.35C175.754 403.175 175.816 402.97 175.816 402.76C175.816 402.55 175.754 402.345 175.637 402.17C175.521 401.996 175.355 401.86 175.16 401.78Z" fill="#FAFAFA"></path>
<path d="M125.82 443.65L134.54 448.65C135.074 448.926 135.668 449.07 136.27 449.07C136.872 449.07 137.465 448.926 138 448.65L195.47 415.47C196.47 414.92 196.47 414.03 195.47 413.47L186.72 408.42C186.181 408.149 185.587 408.008 184.985 408.008C184.382 408.008 183.788 408.149 183.25 408.42L125.82 441.62C124.86 442.2 124.86 443.09 125.82 443.65Z" fill="#FAFAFA"></path>
<path d="M134.53 378.32L125.78 373.27C125.242 372.999 124.647 372.858 124.045 372.858C123.442 372.858 122.848 372.999 122.31 373.27L64.8799 406.46C63.8799 407.02 63.8799 407.91 64.8799 408.46L73.5999 413.46C74.1362 413.731 74.7288 413.873 75.3299 413.873C75.931 413.873 76.5236 413.731 77.0599 413.46L134.53 380.28C134.728 380.204 134.898 380.069 135.018 379.894C135.139 379.719 135.203 379.512 135.203 379.3C135.203 379.088 135.139 378.88 135.018 378.705C134.898 378.53 134.728 378.396 134.53 378.32Z" fill="#FAFAFA"></path>
<path d="M276.72 460.42L268 455.36C267.461 455.089 266.867 454.948 266.265 454.948C265.662 454.948 265.068 455.089 264.53 455.36L235.77 472C243.77 472.27 251.9 472.31 259.96 472.12L276.72 462.45C277.68 461.86 277.68 461 276.72 460.42Z" fill="#FAFAFA"></path>
<path d="M236.09 439C236.302 438.932 236.487 438.799 236.618 438.619C236.749 438.439 236.82 438.223 236.82 438C236.82 437.778 236.749 437.561 236.618 437.381C236.487 437.201 236.302 437.068 236.09 437L227.34 432C226.805 431.726 226.212 431.583 225.61 431.583C225.009 431.583 224.416 431.726 223.88 432L168.2 464.09C174.334 465.343 180.53 466.457 186.79 467.43L236.09 439Z" fill="#FAFAFA"></path>
<path d="M146.13 455.38L154.85 460.38C155.386 460.652 155.979 460.793 156.58 460.793C157.181 460.793 157.774 460.652 158.31 460.38L215.78 427.2C215.992 427.132 216.177 426.999 216.308 426.819C216.439 426.639 216.51 426.423 216.51 426.2C216.51 425.978 216.439 425.761 216.308 425.581C216.177 425.401 215.992 425.268 215.78 425.2L207 420.18C206.464 419.909 205.871 419.767 205.27 419.767C204.669 419.767 204.076 419.909 203.54 420.18L146.1 453.37C145.89 453.444 145.709 453.582 145.582 453.764C145.455 453.946 145.388 454.164 145.392 454.386C145.395 454.608 145.468 454.824 145.601 455.002C145.733 455.18 145.918 455.313 146.13 455.38Z" fill="#FAFAFA"></path>
<path d="M256.41 450.69C256.617 450.617 256.796 450.482 256.923 450.303C257.05 450.124 257.118 449.91 257.118 449.69C257.118 449.471 257.05 449.256 256.923 449.077C256.796 448.898 256.617 448.763 256.41 448.69L247.65 443.64C247.115 443.364 246.522 443.22 245.92 443.22C245.318 443.22 244.725 443.364 244.19 443.64L199.92 469.22C206.85 470.06 213.84 470.73 220.85 471.22L256.41 450.69Z" fill="#FAFAFA"></path>
<path d="M85.1898 420.19L93.9098 425.19C94.4481 425.461 95.0422 425.602 95.6448 425.602C96.2474 425.602 96.8415 425.461 97.3798 425.19L154.84 392.01C155.052 391.942 155.237 391.809 155.368 391.629C155.499 391.449 155.57 391.232 155.57 391.01C155.57 390.787 155.499 390.571 155.368 390.391C155.237 390.211 155.052 390.078 154.84 390.01L146.09 385C145.555 384.724 144.962 384.58 144.36 384.58C143.758 384.58 143.165 384.724 142.63 385L85.1898 418.19C84.9779 418.258 84.793 418.391 84.6618 418.571C84.5306 418.751 84.46 418.967 84.46 419.19C84.46 419.412 84.5306 419.629 84.6618 419.809C84.793 419.989 84.9779 420.122 85.1898 420.19Z" fill="#FAFAFA"></path>
<path opacity="0.1" d="M387.58 257.81C378.58 259.54 364.39 264.93 355.87 269.81L191.34 364.81C182.82 369.73 182.82 377.7 191.34 382.62L265.41 425.39C273.93 430.31 287.75 430.31 296.27 425.39L460.81 330.39C469.33 325.47 478.67 317.28 481.66 312.09C484.65 306.9 480.18 298.7 471.66 293.78L419.3 263.58C410.77 258.66 396.58 256.08 387.58 257.81Z" fill="#101828"></path>
<path d="M351.09 219.37L289.09 183.62C262.872 181.18 236.484 181.2 210.27 183.68L118.88 236.52L220.3 295L351.09 219.37Z" fill="#EBEBEB"></path>
<path d="M69.0398 382.74L32.8398 361.84L107.37 318.81L143.56 339.71L69.0398 382.74Z" fill="#EBEBEB"></path>
<path d="M454.171 81C454.171 77.3 450.121 74.73 445.531 74.3C440.131 73.79 436.291 76.2 436.171 80.46C432.631 79.01 428.911 79.94 429.171 83.82C428.251 82.76 424.811 82.82 423.571 83.09C422.9 83.2782 422.278 83.61 421.748 84.0624C421.218 84.5148 420.792 85.0769 420.501 85.71C420.198 86.3301 420.087 87.0263 420.181 87.71C418.121 87.03 413.431 86.62 412.261 88.51C410.201 91.9 418.531 92 420.211 91C420.561 93.62 429.521 94.05 431.681 91.63C433.381 93.34 435.811 93.72 438.441 93.87C442.871 94.14 445.581 92.63 449.041 90.87C452.791 94.06 459.301 94.11 462.681 90.47C463.541 91.28 465.921 91.54 467.831 91.08C469.081 90.78 469.371 90.25 469.371 90.25C470.109 90.5656 470.881 90.7971 471.671 90.94C474.121 91.45 478.671 90.94 476.781 88.7C476.121 87.95 473.781 87.47 472.721 87.7C471.651 85.59 467.351 83.6 464.881 85.38C464.781 82.83 462.451 80.83 459.171 80.32C458.071 80.14 455.421 80 454.171 81Z" fill="#F0F0F0"></path>
<path d="M439.77 51.9998C438.864 51.6648 437.907 51.4889 436.94 51.4798C436.03 51.4098 435.74 51.2298 435.56 51.0298C434.688 49.7672 433.41 48.8409 431.938 48.4044C430.467 47.9679 428.89 48.0474 427.47 48.6298C427.071 47.393 426.22 46.3518 425.089 45.7127C423.957 45.0736 422.626 44.8834 421.36 45.1798C421.46 42.3398 417.82 39.2798 414.56 38.5798C411.3 37.8798 408.69 38.1898 406.91 40.2498C404.99 36.5198 397.5 35.4698 393.44 37.4398C391.1 38.5798 389.12 39.7498 388.16 41.8798C387.521 43.2057 387.219 44.669 387.28 46.1398C386.303 45.4304 385.169 44.9687 383.974 44.7945C382.779 44.6204 381.559 44.7388 380.42 45.1398C378.14 46.0198 377.97 47.7398 377.85 49.4798C376.501 49.0936 375.073 49.0694 373.71 49.4098C372.27 49.8398 371.45 50.9598 371.64 51.8698C370.51 51.8098 367.8 52.7298 368.11 53.9198C368.46 55.2698 371.55 55.1298 372.71 55.0898C373.796 55.0066 374.873 54.8361 375.93 54.5798C376.467 54.7866 377.036 54.895 377.61 54.8998C379.61 54.8998 380.41 54.0498 380.73 53.3198C381.73 55.3198 385.1 56.8798 387.52 57.4898C392.07 58.6598 398.52 57.9498 401.3 54.5498C401.63 55.1914 402.093 55.7543 402.66 56.1998C403.86 57.1727 405.322 57.7648 406.86 57.8998C408.73 58.0798 413.74 58.3198 415.15 55.3498C416.15 57.3498 420.61 58.2198 424.01 57.7398C425.323 57.5423 426.6 57.155 427.8 56.5898C428.56 56.21 429.295 55.7825 430 55.3098C430.271 55.124 430.587 55.0148 430.914 54.9936C431.241 54.9725 431.568 55.0403 431.86 55.1898C434.257 56.0394 436.874 56.0394 439.27 55.1898C441.15 54.3798 441.55 52.7998 439.77 51.9998Z" fill="#F0F0F0"></path>
<path d="M351.6 152.39C352.596 152.291 353.6 152.471 354.5 152.91C356.178 153.867 357.759 154.985 359.22 156.25C360.689 157.524 362.516 158.313 364.45 158.51C366.38 158.58 368.45 157.38 368.82 155.51C368.839 155.165 368.921 154.826 369.06 154.51C369.252 154.27 369.517 154.098 369.814 154.023C370.112 153.947 370.427 153.97 370.71 154.09C371.271 154.336 371.804 154.641 372.3 155C374.25 156.16 376.7 155.89 378.94 155.57C380.81 155.3 383.17 154.47 383.16 152.57C383.16 151.34 382.08 150.44 381.24 149.57C380.4 148.7 379.7 147.25 380.47 146.29C380.761 145.972 381.135 145.743 381.55 145.63C383.89 144.87 386.74 145.88 388.72 144.42C389.41 143.823 389.883 143.015 390.064 142.121C390.244 141.227 390.124 140.298 389.72 139.48C389.295 138.673 388.699 137.969 387.973 137.416C387.248 136.863 386.411 136.476 385.52 136.28C383.95 135.88 381.96 135.69 381.37 134.18C380.86 132.86 381.89 131.43 383.05 130.62C384.21 129.81 385.61 129.24 386.42 128.07C386.82 127.452 387.042 126.736 387.062 126C387.081 125.265 386.897 124.538 386.53 123.9C386.154 123.265 385.644 122.721 385.036 122.303C384.428 121.885 383.737 121.604 383.01 121.48C382.281 121.427 381.564 121.268 380.88 121.01C380.542 120.872 380.271 120.608 380.124 120.274C379.977 119.94 379.965 119.562 380.09 119.22C380.3 118.83 380.75 118.63 381 118.22C381.194 117.838 381.236 117.398 381.119 116.987C381.003 116.575 380.735 116.223 380.37 116C379.625 115.582 378.823 115.276 377.99 115.09C376.29 114.53 374.65 112.88 375.15 111.17C375.65 109.46 378.15 108.81 378.83 107.1C379.47 105.59 378.46 103.82 377.1 102.89C375.654 102.108 374.149 101.439 372.6 100.89C371.03 100.15 369.94 99.1498 370.4 97.2798C370.64 96.2798 371.16 95.4598 371.47 94.5198C371.814 93.5476 371.879 92.4987 371.658 91.4915C371.437 90.4843 370.939 89.5589 370.22 88.8198C369.11 87.8198 367.51 87.3198 366.53 86.1598C365.985 85.4652 365.618 84.6483 365.46 83.7798C365.29 83.0498 365.21 82.3098 365 81.5998C364.646 80.4604 363.978 79.4441 363.072 78.6675C362.166 77.8909 361.06 77.3857 359.88 77.2098C356.83 76.7998 354.5 78.6498 353.3 81.2598C352.816 82.2839 352.026 83.1328 351.04 83.6898C349.28 84.6898 346.95 84.6898 345.67 86.2498C345.063 87.0345 344.78 88.0225 344.88 89.0098C344.991 89.9957 345.334 90.9414 345.88 91.7698C346.56 92.8998 347.28 93.7698 346.59 95.0998C345.44 97.2498 344.69 97.2398 342.38 97.2398C340.71 97.2398 339.32 97.1498 338.1 98.4098C335.95 100.63 337.23 102.65 339.1 104.41C341.27 106.41 340.1 107.21 339.83 109.74C339.7 110.96 339.97 111.33 338.89 112.14C336.83 113.66 335.68 113.14 336.26 116.14C336.79 118.86 335.98 117.93 333.61 118.94C331.52 119.85 330.13 122.1 328.43 123.51C327.34 124.42 325.68 125.12 325.58 126.71C325.38 129.71 329.16 129.08 330.96 129.81C333.9 131 333.02 134.81 330.73 136.29C328.44 137.77 324.73 138.38 324.56 141.87C324.41 144.54 325.93 145.13 328 146.02C329.66 146.74 329.45 146.94 329.45 148.92C329.45 152.92 330.79 154.03 334.71 153.38C335.79 153.2 337.43 152.75 338.5 153.07C340 153.52 339.5 153.89 339.5 155.15C339.6 158.36 343.35 157.46 344.93 156.08C346.83 154.47 349.13 152.63 351.6 152.39Z" fill="#E32764"></path>
<path opacity="0.15" d="M381.55 145.61C383.35 145.02 385.44 145.48 387.22 145.07C386.174 144.823 385.111 144.656 384.04 144.57C382.773 144.514 381.509 144.727 380.33 145.194C379.152 145.661 378.085 146.372 377.2 147.28C378.138 148.439 378.625 149.899 378.57 151.39C374.13 152.6 369.74 146.63 365.51 148.45C365.76 150.6 365.51 153.45 363.42 153.97C362.788 154.035 362.151 153.924 361.579 153.649C361.007 153.373 360.523 152.944 360.18 152.41C359.42 151.41 358.95 150.2 358.18 149.19C357.103 147.888 355.58 147.032 353.907 146.79C352.235 146.548 350.532 146.936 349.13 147.88C347.98 148.71 346.54 149.97 345.4 149.14C344.26 148.31 344.91 145.82 343.55 145.14C342.65 144.68 341.38 145.4 340.62 144.73C340.339 144.42 340.158 144.034 340.1 143.62C339.57 141.35 339.1 138.72 340.53 136.87C341.8 135.23 344.53 134.22 344.21 132.16C343.96 130.4 341.72 129.86 339.96 129.66C338.2 129.46 335.96 128.66 336.04 126.84C336.12 125.02 338.49 124.26 338.84 122.55C338.99 121.82 338.74 121.01 339.07 120.34C339.58 119.34 341.01 119.34 341.85 118.55C343.37 117.22 342.19 114.72 342.62 112.75C342.93 111.35 344.05 110.26 344.43 108.88C345.17 106.13 342.67 103.51 340.05 102.39C339.004 102.036 337.999 101.573 337.05 101.01L337 101C337.242 102.383 338.013 103.616 339.15 104.44C341.32 106.44 340.15 107.24 339.88 109.77C339.75 110.99 340.02 111.36 338.94 112.17C336.88 113.69 335.73 113.17 336.31 116.17C336.84 118.89 336.03 117.96 333.66 118.97C331.57 119.88 330.18 122.13 328.48 123.54C327.39 124.45 325.73 125.15 325.63 126.74C325.43 129.74 329.21 129.11 331.01 129.84C333.95 131.03 333.07 134.84 330.78 136.32C328.49 137.8 324.78 138.41 324.61 141.9C324.46 144.57 325.98 145.16 328.05 146.05C329.71 146.77 329.5 146.97 329.5 148.95C329.5 152.95 330.84 154.06 334.76 153.41C335.84 153.23 337.48 152.78 338.55 153.1C340.05 153.55 339.55 153.92 339.55 155.18C339.65 158.39 343.4 157.49 344.98 156.11C346.81 154.52 349.11 152.68 351.58 152.44C352.576 152.341 353.58 152.521 354.48 152.96C356.158 153.917 357.739 155.036 359.2 156.3C360.669 157.574 362.495 158.363 364.43 158.56C366.36 158.63 368.43 157.43 368.8 155.56C368.819 155.215 368.9 154.876 369.04 154.56C369.232 154.32 369.496 154.149 369.794 154.073C370.092 153.997 370.407 154.021 370.69 154.14C371.25 154.387 371.783 154.692 372.28 155.05C374.23 156.21 376.68 155.94 378.92 155.62C380.79 155.35 383.15 154.52 383.14 152.62C383.14 151.39 382.06 150.49 381.22 149.62C380.38 148.75 379.68 147.3 380.45 146.34C380.736 145.994 381.119 145.74 381.55 145.61Z" fill="#101828"></path>
<path d="M345.48 119.58L356.2 140.83V131.05L357.29 89.4097L358.87 131.05V137.63L370.65 117L358.87 142.27V212.67C358.86 212.786 358.819 212.898 358.75 212.993C358.681 213.088 358.588 213.163 358.48 213.21C358.19 213.365 357.865 213.447 357.535 213.447C357.206 213.447 356.881 213.365 356.59 213.21C356.483 213.163 356.39 213.088 356.321 212.993C356.252 212.898 356.211 212.786 356.2 212.67V146.25L345.48 119.58Z" fill="#263238"></path>
<path d="M69.1301 301C70.7374 300.187 72.5136 299.763 74.3151 299.763C76.1166 299.763 77.8928 300.187 79.5001 301C80.1309 301.209 80.6798 301.611 81.0689 302.15C81.4579 302.688 81.6673 303.336 81.6673 304C81.6673 304.665 81.4579 305.312 81.0689 305.851C80.6798 306.389 80.1309 306.792 79.5001 307C77.8928 307.814 76.1166 308.238 74.3151 308.238C72.5136 308.238 70.7374 307.814 69.1301 307C68.4994 306.792 67.9504 306.389 67.5614 305.851C67.1723 305.312 66.9629 304.665 66.9629 304C66.9629 303.336 67.1723 302.688 67.5614 302.15C67.9504 301.611 68.4994 301.209 69.1301 301Z" fill="#263238"></path>
<path d="M80.0508 266.71C80.0049 266.205 79.8249 265.723 79.5295 265.311C79.2341 264.9 78.8341 264.575 78.3708 264.37C77.117 263.729 75.7289 263.395 74.3208 263.395C72.9127 263.395 71.5247 263.729 70.2708 264.37C69.8076 264.575 69.4075 264.9 69.1121 265.311C68.8167 265.723 68.6367 266.205 68.5908 266.71V303.21C68.6378 303.714 68.8182 304.197 69.1134 304.608C69.4087 305.019 69.8082 305.344 70.2708 305.55C71.527 306.183 72.9141 306.513 74.3208 306.513C75.7275 306.513 77.1146 306.183 78.3708 305.55C78.8335 305.344 79.233 305.019 79.5282 304.608C79.8235 304.197 80.0039 303.714 80.0508 303.21V266.71Z" fill="#37474F"></path>
<path d="M70.2701 264.37C71.5239 263.729 72.9119 263.395 74.3201 263.395C75.7282 263.395 77.1162 263.729 78.3701 264.37C78.8595 264.535 79.2848 264.85 79.5861 265.27C79.8873 265.69 80.0493 266.193 80.0493 266.71C80.0493 267.227 79.8873 267.73 79.5861 268.15C79.2848 268.57 78.8595 268.884 78.3701 269.05C77.1139 269.683 75.7267 270.013 74.3201 270.013C72.9134 270.013 71.5263 269.683 70.2701 269.05C69.7806 268.884 69.3553 268.57 69.0541 268.15C68.7528 267.73 68.5908 267.227 68.5908 266.71C68.5908 266.193 68.7528 265.69 69.0541 265.27C69.3553 264.85 69.7806 264.535 70.2701 264.37Z" fill="#455A64"></path>
<path d="M74.3206 267.17C74.074 267.17 73.8374 267.072 73.663 266.898C73.4886 266.723 73.3906 266.487 73.3906 266.24V55.2401C73.3906 54.9934 73.4886 54.7569 73.663 54.5824C73.8374 54.408 74.074 54.3101 74.3206 54.3101C74.5673 54.3101 74.8038 54.408 74.9782 54.5824C75.1526 54.7569 75.2506 54.9934 75.2506 55.2401V266.24C75.2506 266.487 75.1526 266.723 74.9782 266.898C74.8038 267.072 74.5673 267.17 74.3206 267.17Z" fill="#263238"></path>
<path d="M74.3201 103C74.198 103 74.0771 102.976 73.9642 102.929C73.8514 102.882 73.7489 102.814 73.6625 102.728C73.5762 102.641 73.5077 102.539 73.4609 102.426C73.4142 102.313 73.3901 102.192 73.3901 102.07C73.3901 93.94 64.9001 80.26 51.1901 72.34L43.6401 68C43.5335 67.9399 43.4399 67.859 43.3648 67.7623C43.2898 67.6655 43.2348 67.5547 43.2032 67.4365C43.1715 67.3182 43.1638 67.1947 43.1804 67.0734C43.1971 66.9521 43.2378 66.8354 43.3001 66.73C43.4254 66.5186 43.6284 66.3646 43.8658 66.301C44.1032 66.2375 44.356 66.2694 44.5701 66.39L52.1201 70.75C66.4101 79 75.2501 93.4 75.2501 102.05C75.2528 102.174 75.2307 102.297 75.1852 102.412C75.1396 102.527 75.0715 102.632 74.9849 102.721C74.8983 102.809 74.7949 102.879 74.6807 102.927C74.5666 102.975 74.444 103 74.3201 103Z" fill="#263238"></path>
<path d="M42.1905 60.5899L38.0005 57.6899C34.6705 55.3699 29.3105 55.0399 26.0005 56.9399C24.4805 57.8199 23.7305 58.9399 23.7305 59.9999C23.7305 60.3999 23.7305 61.9999 23.7305 62.3399C23.7305 63.5999 24.7305 64.8499 26.6805 65.7499L33.2605 68.7499C36.9405 70.4399 41.7705 70.7499 44.0405 69.4399C44.41 69.2504 44.7213 68.9644 44.9413 68.6123C45.1614 68.2602 45.2821 67.8551 45.2905 67.4399C45.2905 67.0399 45.2905 65.4999 45.2905 65.1199C45.3705 63.7199 44.2705 61.9999 42.1905 60.5899Z" fill="#455A64"></path>
<path d="M44.1004 69.4702C46.3804 68.1502 45.5204 65.2102 42.1904 62.9002L38.0004 60.0002C34.6704 57.6902 29.3104 57.3502 26.0004 59.2502C22.6904 61.1502 23.0004 64.0702 26.7104 65.7602L33.2904 68.7602C37.0004 70.4702 41.8304 70.7802 44.1004 69.4702Z" fill="#263238"></path>
<path d="M44.3806 67.4602C44.3652 67.7015 44.2857 67.9344 44.1504 68.1348C44.015 68.3351 43.8287 68.4958 43.6106 68.6002C42.5438 69.1045 41.3691 69.338 40.1906 69.2802C37.9668 69.256 35.7716 68.7761 33.7406 67.8702L27.1606 64.8702C25.6706 64.1902 24.8006 63.2902 24.7606 62.4102C24.7206 61.5302 25.3506 60.8202 26.5306 60.1402C27.9572 59.3678 29.5585 58.9752 31.1806 59.0002C33.4025 58.9678 35.5842 59.5942 37.4506 60.8002L41.6206 63.7102C43.3406 64.9102 44.4206 66.3802 44.3806 67.4602Z" fill="#E32764"></path>
<path opacity="0.9" d="M44.3806 67.4602C44.3652 67.7015 44.2857 67.9344 44.1504 68.1348C44.015 68.3351 43.8287 68.4958 43.6106 68.6002C42.5438 69.1045 41.3691 69.338 40.1906 69.2802C37.9668 69.256 35.7716 68.7761 33.7406 67.8702L27.1606 64.8702C25.6706 64.1902 24.8006 63.2902 24.7606 62.4102C24.7206 61.5302 25.3506 60.8202 26.5306 60.1402C27.9572 59.3678 29.5585 58.9752 31.1806 59.0002C33.4025 58.9678 35.5842 59.5942 37.4506 60.8002L41.6206 63.7102C43.3406 64.9102 44.4206 66.3802 44.3806 67.4602Z" fill="white"></path>
<path opacity="0.2" d="M27.8805 64.3299C28.837 64.8132 29.8937 65.0651 30.9655 65.0651C32.0372 65.0651 33.0939 64.8132 34.0505 64.3299C35.7605 63.3299 35.7605 61.7499 34.0505 60.7699C33.0953 60.2818 32.0381 60.0273 30.9655 60.0273C29.8929 60.0273 28.8356 60.2818 27.8805 60.7699C26.1805 61.7499 26.1805 63.3399 27.8805 64.3299Z" fill="#E32764"></path>
<path opacity="0.2" d="M36.6806 67.0801C37.2223 67.3512 37.8198 67.4923 38.4256 67.4923C39.0313 67.4923 39.6288 67.3512 40.1706 67.0801C40.3776 67.0073 40.557 66.872 40.6839 66.6929C40.8108 66.5138 40.879 66.2997 40.879 66.0801C40.879 65.8606 40.8108 65.6465 40.6839 65.4674C40.557 65.2883 40.3776 65.1529 40.1706 65.0801C39.6288 64.8091 39.0313 64.668 38.4256 64.668C37.8198 64.668 37.2223 64.8091 36.6806 65.0801C36.4778 65.1573 36.3034 65.2943 36.1802 65.4728C36.0571 65.6514 35.9912 65.8632 35.9912 66.0801C35.9912 66.297 36.0571 66.5088 36.1802 66.6874C36.3034 66.866 36.4778 67.003 36.6806 67.0801Z" fill="#E32764"></path>
<path d="M74.3207 86.7302C74.5673 86.7302 74.8039 86.6322 74.9783 86.4578C75.1527 86.2834 75.2507 86.0468 75.2507 85.8002C75.2507 77.6702 83.7307 63.9902 97.4407 56.0802L105.001 51.7202C105.212 51.5949 105.366 51.3919 105.43 51.1545C105.493 50.9171 105.461 50.6643 105.341 50.4502C105.281 50.3435 105.2 50.2499 105.103 50.1749C105.006 50.0999 104.895 50.0449 104.777 50.0132C104.659 49.9816 104.535 49.9738 104.414 49.9905C104.293 50.0071 104.176 50.0478 104.071 50.1102L96.5107 54.4702C82.2307 62.7202 73.3907 77.1502 73.3907 85.8002C73.3893 85.9227 73.4125 86.0442 73.4587 86.1577C73.505 86.2711 73.5735 86.3742 73.6601 86.4608C73.7467 86.5474 73.8498 86.6159 73.9632 86.6621C74.0766 86.7084 74.1982 86.7315 74.3207 86.7302Z" fill="#263238"></path>
<path d="M106.44 44.3501L110.62 41.4401C113.94 39.1301 119.31 38.7901 122.62 40.6901C124.15 41.5701 124.89 42.6901 124.89 43.7601C124.89 44.1601 124.89 45.7601 124.89 46.0901C124.89 47.3501 123.89 48.6001 121.94 49.5101L115.36 52.5101C111.67 54.2001 106.85 54.5101 104.57 53.2001C104.199 53.0124 103.887 52.7268 103.666 52.3743C103.446 52.0218 103.326 51.6157 103.32 51.2001C103.32 50.8001 103.32 49.2601 103.32 48.8801C103.27 47.4801 104.36 45.7901 106.44 44.3501Z" fill="#455A64"></path>
<path d="M104.53 53.22C102.26 51.91 103.11 48.97 106.44 46.65L110.62 43.75C113.94 41.43 119.31 41.1 122.62 43C125.93 44.9 125.62 47.8099 121.92 49.5099L115.34 52.5099C111.63 54.2199 106.81 54.53 104.53 53.22Z" fill="#263238"></path>
<path d="M104.261 51.2199C104.276 51.4612 104.356 51.694 104.491 51.8944C104.626 52.0948 104.813 52.2555 105.031 52.3599C106.098 52.8641 107.272 53.0977 108.451 53.0399C110.675 53.0156 112.87 52.5358 114.901 51.6299L121.481 48.6299C122.971 47.9499 123.841 47.0499 123.881 46.1699C123.921 45.2899 123.291 44.5799 122.111 43.8999C120.681 43.1413 119.079 42.7626 117.461 42.7999C115.239 42.7675 113.057 43.3938 111.191 44.5999L107.001 47.4799C105.301 48.6699 104.221 50.1399 104.261 51.2199Z" fill="#E32764"></path>
<path opacity="0.9" d="M104.261 51.2199C104.276 51.4612 104.356 51.694 104.491 51.8944C104.626 52.0948 104.813 52.2555 105.031 52.3599C106.098 52.8641 107.272 53.0977 108.451 53.0399C110.675 53.0156 112.87 52.5358 114.901 51.6299L121.481 48.6299C122.971 47.9499 123.841 47.0499 123.881 46.1699C123.921 45.2899 123.291 44.5799 122.111 43.8999C120.681 43.1413 119.079 42.7626 117.461 42.7999C115.239 42.7675 113.057 43.3938 111.191 44.5999L107.001 47.4799C105.301 48.6699 104.221 50.1399 104.261 51.2199Z" fill="white"></path>
<path opacity="0.2" d="M120.751 48.0799C119.796 48.5679 118.738 48.8224 117.666 48.8224C116.593 48.8224 115.536 48.5679 114.581 48.0799C112.881 47.0799 112.881 45.4999 114.581 44.5199C115.537 44.0365 116.594 43.7847 117.666 43.7847C118.737 43.7847 119.794 44.0365 120.751 44.5199C122.461 45.4999 122.461 47.0999 120.751 48.0799Z" fill="#E32764"></path>
<path opacity="0.2" d="M112 50.83C111.46 51.1057 110.862 51.2494 110.255 51.2494C109.649 51.2494 109.051 51.1057 108.51 50.83C108.303 50.7572 108.124 50.6219 107.997 50.4428C107.87 50.2637 107.802 50.0496 107.802 49.83C107.802 49.6105 107.87 49.3964 107.997 49.2173C108.124 49.0382 108.303 48.9028 108.51 48.83C109.051 48.5544 109.649 48.4106 110.255 48.4106C110.862 48.4106 111.46 48.5544 112 48.83C112.92 49.37 112.92 50.27 112 50.83Z" fill="#E32764"></path>
<path d="M223.1 289.07L135.97 238.67V93.4497L223.1 143.82V289.07Z" fill="#E0E0E0"></path>
<path d="M223.6 144.11L339.88 76.8501V221.03L223.6 288.2V144.11Z" fill="#FAFAFA"></path>
<path d="M339.37 77.71V220.71L224.1 287.33V144.4L339.37 77.71ZM340.37 75.98L223.1 143.82V289.07L340.37 221.32V76V75.98Z" fill="#E0E0E0"></path>
<path d="M238.22 171.22V227.96L325.16 177.77V121.03L238.22 171.22Z" fill="#37474F"></path>
<path d="M325.16 121.03L316.18 126.21V172.57L325.16 177.77V121.03Z" fill="#263238"></path>
<path d="M238.22 227.96L245.78 232.33L332.72 182.13L325.16 177.77L238.22 227.96Z" fill="#455A64"></path>
<path d="M238.22 217.57V227.96L325.16 177.77L316.18 172.57L238.22 217.57Z" fill="#455A64"></path>
<path d="M245.78 236.69V232.33L238.22 227.96V232.33L245.78 236.69Z" fill="#263238"></path>
<path d="M332.72 182.13V186.5L245.78 236.69V232.33L332.72 182.13Z" fill="#37474F"></path>
<path opacity="0.1" d="M139.87 95.7L135.97 97.95V108.58L223.1 158.96L340.37 91.11V84.03L333.4 80L327.27 83.55L334.24 87.57L223.1 151.87L139.04 103.27L146.01 99.24L139.87 95.7Z" fill="#101828"></path>
<path d="M252.46 28.8496V35.9296L328.1 79.5196L334.24 75.9796L252.46 28.8496Z" fill="#E32764"></path>
<path opacity="0.6" d="M252.46 28.8496V35.9296L328.1 79.5196L334.24 75.9796L252.46 28.8496Z" fill="white"></path>
<path opacity="0.15" d="M252.46 28.8496V35.9296L328.1 79.5196L334.24 75.9796L252.46 28.8496Z" fill="#101828"></path>
<path d="M223.1 147.37L129.05 93.1299V100.21L223.1 154.45V147.37Z" fill="#E32764"></path>
<path opacity="0.6" d="M223.1 147.37L129.05 93.1299V100.21L223.1 154.45V147.37Z" fill="white"></path>
<path d="M258.59 25.2998L252.46 21.7598L129.05 93.1198L223.05 147.37L346.51 75.9998L258.59 25.2998ZM223 140.24L141.32 93.1198L252.46 28.8498L334.24 75.9998L223 140.24Z" fill="#E32764"></path>
<path opacity="0.9" d="M258.59 25.2998L252.46 21.7598L129.05 93.1198L223.05 147.37L346.51 75.9998L258.59 25.2998ZM223 140.24L141.32 93.1198L252.46 28.8498L334.24 75.9998L223 140.24Z" fill="white"></path>
<path d="M346.51 75.98V83.06L223.1 154.45V147.37L346.51 75.98Z" fill="#E32764"></path>
<path opacity="0.75" d="M346.51 75.98V83.06L223.1 154.45V147.37L346.51 75.98Z" fill="white"></path>
<path d="M252.459 28.8496V35.9296L147.459 96.6696L141.319 93.1196L252.459 28.8496Z" fill="#E32764"></path>
<path opacity="0.75" d="M252.459 28.8496V35.9296L147.459 96.6696L141.319 93.1196L252.459 28.8496Z" fill="white"></path>
<path d="M252.46 35.9297L328.1 79.5197L223.01 140.24L147.46 96.6697L252.46 35.9297Z" fill="#E32764"></path>
<path opacity="0.2" d="M252.46 35.9297L328.1 79.5197L223.01 140.24L147.46 96.6697L252.46 35.9297Z" fill="#101828"></path>
<path opacity="0.1" d="M323.16 82.3796L245.91 39.7096L252.46 28.8496L334.24 75.9796L323.16 82.3796Z" fill="#101828"></path>
<path d="M230.819 101.18L308.919 55.9997C309.104 55.8661 309.32 55.7837 309.547 55.7609C309.773 55.7381 310.002 55.7756 310.209 55.8697L313.299 57.6597C313.481 57.7942 313.625 57.9738 313.716 58.1807C313.807 58.3877 313.843 58.6148 313.819 58.8397V80.9997C313.78 81.6269 313.594 82.2362 313.279 82.7794C312.963 83.3227 312.525 83.785 311.999 84.1297L233.899 129.3C233.715 129.435 233.498 129.517 233.271 129.538C233.044 129.559 232.815 129.518 232.609 129.42L229.539 127.65C229.351 127.517 229.202 127.337 229.107 127.128C229.013 126.919 228.975 126.688 228.999 126.46V104.36C229.034 103.724 229.216 103.106 229.532 102.554C229.848 102.002 230.289 101.531 230.819 101.18Z" fill="#F0F0F0"></path>
<path d="M233.88 129.3C233.696 129.435 233.479 129.517 233.251 129.538C233.024 129.559 232.796 129.518 232.59 129.42L229.52 127.65C229.332 127.517 229.183 127.337 229.088 127.128C228.993 126.919 228.956 126.688 228.98 126.46V104.36C229.004 103.723 229.19 103.104 229.52 102.56L232.58 104.33L252.71 118.42L233.88 129.3Z" fill="#E0E0E0"></path>
<path d="M312.95 56.2521L234.83 101.462C234.297 101.811 233.853 102.281 233.535 102.834C233.217 103.386 233.034 104.006 233 104.642V126.742C233 127.912 233.82 128.382 234.83 127.802L312.95 82.5921C313.475 82.2474 313.913 81.7851 314.229 81.2418C314.545 80.6986 314.73 80.0893 314.77 79.4621V57.3121C314.77 56.1421 313.95 55.6621 312.95 56.2521Z" fill="#FAFAFA"></path>
<path d="M232.26 160.37V149.08L255.07 173.53L232.26 160.37Z" fill="#E0E0E0"></path>
<path d="M342.999 128.42C342.907 130.106 342.419 131.747 341.575 133.21C340.73 134.673 339.554 135.916 338.139 136.84H338.089C335.399 138.39 333.229 137.13 333.229 134.03V128.36L342.999 122.72V128.42Z" fill="#EBEBEB"></path>
<path d="M323.48 139.7C323.39 141.387 322.903 143.029 322.058 144.492C321.214 145.955 320.036 147.198 318.62 148.12H318.57C315.89 149.67 313.71 148.42 313.71 145.32V139.65L323.48 134V139.7Z" fill="#EBEBEB"></path>
<path d="M303.94 151C303.848 152.686 303.36 154.327 302.515 155.79C301.671 157.253 300.494 158.496 299.08 159.42H299.03C296.34 160.97 294.16 159.71 294.16 156.61V151L303.94 145.36V151Z" fill="#EBEBEB"></path>
<path d="M284.39 162.27C284.299 163.958 283.812 165.601 282.967 167.065C282.123 168.53 280.945 169.775 279.53 170.7C276.84 172.25 274.67 171 274.67 167.9V162.23L284.44 156.58L284.39 162.27Z" fill="#EBEBEB"></path>
<path d="M264.84 173.56C264.755 175.249 264.273 176.893 263.431 178.36C262.59 179.827 261.415 181.074 260 182H259.95C257.27 183.55 255.09 182.29 255.09 179.19V173.52L264.86 167.88L264.84 173.56Z" fill="#EBEBEB"></path>
<path d="M255.07 173.53L352.8 117.11L329.99 92.6597L232.26 149.08L255.07 173.53Z" fill="#FAFAFA"></path>
<path d="M264.84 167.89L242.03 143.44L251.81 137.8L274.62 162.25L264.84 167.89Z" fill="#E32764"></path>
<path d="M284.39 156.6L261.58 132.16L271.35 126.51L294.16 150.96L284.39 156.6Z" fill="#E32764"></path>
<path d="M303.93 145.32L281.13 120.87L290.9 115.23L313.71 139.68L303.93 145.32Z" fill="#E32764"></path>
<path d="M323.48 134.03L300.67 109.58L310.45 103.94L333.26 128.39L323.48 134.03Z" fill="#E32764"></path>
<path d="M343.03 122.75L320.22 98.2997L329.99 92.6597L352.8 117.11L343.03 122.75Z" fill="#E32764"></path>
<path d="M352.8 122.78C352.71 124.467 352.223 126.109 351.379 127.572C350.534 129.035 349.356 130.278 347.94 131.2H347.89C345.21 132.75 343.03 131.49 343.03 128.39V122.72L352.8 117.07V122.78Z" fill="#E32764"></path>
<path d="M333.26 134.06C333.168 135.746 332.68 137.387 331.835 138.85C330.991 140.313 329.814 141.556 328.4 142.48C325.71 144.03 323.53 142.77 323.53 139.67V134L333.31 128.36L333.26 134.06Z" fill="#E32764"></path>
<path d="M313.709 145.35C313.617 147.036 313.129 148.677 312.285 150.14C311.44 151.603 310.264 152.846 308.849 153.77H308.799C306.109 155.32 303.939 154.06 303.939 150.96V145.29L313.709 139.64V145.35Z" fill="#E32764"></path>
<path d="M294.16 156.63C294.07 158.317 293.582 159.959 292.738 161.422C291.893 162.885 290.715 164.128 289.3 165.05H289.25C286.57 166.6 284.39 165.35 284.39 162.24V156.6L294.16 150.96V156.63Z" fill="#E32764"></path>
<path d="M274.62 167.92C274.527 169.606 274.039 171.247 273.195 172.71C272.351 174.173 271.174 175.416 269.76 176.34H269.71C267.02 177.89 264.84 176.63 264.84 173.53V167.86L274.62 162.22V167.92Z" fill="#E32764"></path>
<g opacity="0.2">
<path opacity="0.2" d="M352.8 122.78C352.71 124.467 352.223 126.109 351.379 127.572C350.534 129.035 349.356 130.278 347.94 131.2H347.89C345.21 132.75 343.03 131.49 343.03 128.39V122.72L352.8 117.07V122.78Z" fill="#101828"></path>
<path opacity="0.2" d="M333.26 134.06C333.168 135.746 332.68 137.387 331.835 138.85C330.991 140.313 329.814 141.556 328.4 142.48C325.71 144.03 323.53 142.77 323.53 139.67V134L333.31 128.36L333.26 134.06Z" fill="#101828"></path>
<path opacity="0.2" d="M313.709 145.35C313.617 147.036 313.129 148.677 312.285 150.14C311.44 151.603 310.264 152.846 308.849 153.77H308.799C306.109 155.32 303.939 154.06 303.939 150.96V145.29L313.709 139.64V145.35Z" fill="#101828"></path>
<path opacity="0.2" d="M294.16 156.63C294.07 158.317 293.582 159.959 292.738 161.422C291.893 162.885 290.715 164.128 289.3 165.05H289.25C286.57 166.6 284.39 165.35 284.39 162.24V156.6L294.16 150.96V156.63Z" fill="#101828"></path>
<path opacity="0.2" d="M274.62 167.92C274.527 169.606 274.039 171.247 273.195 172.71C272.351 174.173 271.174 175.416 269.76 176.34H269.71C267.02 177.89 264.84 176.63 264.84 173.53V167.86L274.62 162.22V167.92Z" fill="#101828"></path>
</g>
<g opacity="0.1">
<path opacity="0.1" d="M264.84 167.89L242.03 143.44L251.81 137.8L274.62 162.25L264.84 167.89Z" fill="#101828"></path>
<path opacity="0.1" d="M284.39 156.6L261.58 132.16L271.35 126.51L294.16 150.96L284.39 156.6Z" fill="#101828"></path>
<path opacity="0.1" d="M303.93 145.319L281.13 120.869L290.9 115.229L313.71 139.679L303.93 145.319Z" fill="#101828"></path>
<path opacity="0.1" d="M323.48 134.029L300.67 109.579L310.45 103.939L333.26 128.389L323.48 134.029Z" fill="#101828"></path>
<path opacity="0.1" d="M343.031 122.75L320.221 98.2997L329.991 92.6597L352.801 117.11L343.031 122.75Z" fill="#101828"></path>
</g>
<path opacity="0.15" d="M313.409 190.76L302.239 184.31C302.14 184.269 302.055 184.2 301.995 184.111C301.935 184.022 301.903 183.917 301.903 183.81C301.903 183.702 301.935 183.597 301.995 183.508C302.055 183.419 302.14 183.35 302.239 183.31L308.899 179.45C309.173 179.315 309.474 179.246 309.779 179.246C310.084 179.246 310.385 179.315 310.659 179.45L321.829 185.9C321.929 185.94 322.014 186.009 322.074 186.098C322.133 186.187 322.165 186.292 322.165 186.4C322.165 186.507 322.133 186.612 322.074 186.701C322.014 186.79 321.929 186.859 321.829 186.9L315.169 190.76C314.895 190.894 314.594 190.964 314.289 190.964C313.984 190.964 313.683 190.894 313.409 190.76Z" fill="#101828"></path>
<path d="M314.579 180.57L314.429 180.66C314.412 180.671 314.398 180.685 314.387 180.703C314.377 180.72 314.371 180.74 314.369 180.76V182.56L320.829 186.23L321.089 184.3L314.579 180.57Z" fill="#263238"></path>
<path d="M321.049 184.3L320.889 184.39L314.429 180.66L314.579 180.57L321.049 184.3Z" fill="#455A64"></path>
<path d="M320.999 184.3L320.839 184.39C320.822 184.4 320.808 184.415 320.797 184.432C320.787 184.45 320.781 184.469 320.779 184.49V186.23L321.049 186.38V184.38C321.049 184.38 320.999 184.28 320.999 184.3Z" fill="#37474F"></path>
<path d="M320.799 186.23V186.34L320.389 186.52L313.929 182.79L314.329 182.56L320.799 186.23Z" fill="#101828"></path>
<path d="M320.529 186.759L321.009 186.479C321.025 186.468 321.038 186.453 321.047 186.436C321.055 186.418 321.06 186.399 321.059 186.38L320.789 186.229C320.788 186.249 320.783 186.267 320.775 186.285C320.766 186.302 320.754 186.317 320.739 186.329L320.579 186.41H320.529V186.759Z" fill="#37474F"></path>
<path d="M320.509 184.61L319.869 184.96C319.865 184.986 319.865 185.013 319.869 185.04V187.11L313.409 183.38V181.38C313.41 181.361 313.415 181.342 313.424 181.325C313.432 181.308 313.444 181.292 313.459 181.28L314.019 180.96L320.509 184.61Z" fill="#263238"></path>
<path opacity="0.5" d="M320.508 184.61L314.598 181.2L314.328 181.04L314.048 180.88H313.998L313.438 181.2V181.25L319.908 184.96L320.508 184.61Z" fill="#37474F"></path>
<path d="M319.869 185C319.864 185.026 319.864 185.053 319.869 185.08V187.08C319.869 187.08 319.869 187.08 319.929 187.08L320.549 186.73V184.62L319.869 185Z" fill="#37474F"></path>
<path d="M319.919 187.11L319.999 187C320.09 186.887 320.14 186.745 320.139 186.6V184.87C320.143 184.833 320.143 184.796 320.139 184.76H320.089C320.093 184.786 320.093 184.813 320.089 184.84V186.57C320.101 186.765 320.04 186.957 319.919 187.11Z" fill="#263238"></path>
<path d="M312.669 178.91C312.392 178.711 312.105 178.528 311.809 178.36L309.219 176.87C309.13 176.826 309.033 176.803 308.934 176.803C308.835 176.803 308.737 176.826 308.649 176.87L303.419 179.87C303.334 179.924 303.264 179.997 303.213 180.084C303.163 180.171 303.134 180.269 303.129 180.37V183.53C303.135 183.63 303.164 183.727 303.214 183.814C303.265 183.901 303.335 183.975 303.419 184.03L313.999 190.17C314.088 190.219 314.187 190.244 314.289 190.244C314.39 190.244 314.49 190.219 314.579 190.17L319.799 187.17C319.883 187.115 319.953 187.041 320.004 186.954C320.054 186.867 320.083 186.77 320.089 186.67V184.89C320.09 184.803 320.07 184.717 320.032 184.639C319.994 184.561 319.938 184.492 319.869 184.44C318.699 183.52 312.999 179.19 312.669 178.91Z" fill="#455A64"></path>
<path d="M319.899 184.43C318.559 183.43 317.239 182.5 315.899 181.5L313.999 180C313.358 179.491 312.691 179.017 311.999 178.58C311.309 178.15 310.589 177.75 309.879 177.33L309.349 177.01C309.278 176.953 309.196 176.913 309.107 176.892C309.019 176.871 308.927 176.871 308.839 176.89C308.519 177.04 308.139 177.28 307.779 177.47C306.359 178.29 304.922 179.09 303.469 179.87C304.869 179 306.279 178.16 307.699 177.33C308.069 177.12 308.379 176.9 308.799 176.71C308.91 176.684 309.026 176.683 309.138 176.705C309.25 176.728 309.356 176.773 309.449 176.84L309.989 177.15C310.699 177.56 311.419 177.94 312.129 178.37C312.822 178.823 313.489 179.314 314.129 179.84L316.079 181.35C317.329 182.37 318.619 183.4 319.899 184.43Z" fill="#37474F"></path>
<path d="M320.119 186.66V184.93C320.124 184.896 320.124 184.863 320.119 184.83L314.319 188.17C314.325 188.206 314.325 188.243 314.319 188.28V190C314.319 190.17 314.209 190.24 314.079 190.18H314.549H314.599L319.819 187.18H319.899C319.971 187.114 320.028 187.033 320.066 186.943C320.104 186.854 320.122 186.757 320.119 186.66Z" fill="#37474F"></path>
<path d="M306.869 182.26C307.869 183.05 312.959 186.92 314.099 187.78C314.168 187.833 314.224 187.901 314.262 187.979C314.3 188.057 314.32 188.143 314.319 188.23V190C314.319 190.18 314.189 190.26 314.029 190.16L303.419 184.04C303.335 183.985 303.265 183.911 303.214 183.824C303.164 183.738 303.135 183.64 303.129 183.54V180.38C303.129 180.19 303.259 180.12 303.419 180.21L306.009 181.7C306.308 181.867 306.595 182.054 306.869 182.26Z" fill="#263238"></path>
<path d="M306.828 181.23C307.127 181.393 307.415 181.577 307.688 181.78C307.904 181.956 308.108 182.147 308.298 182.35C308.343 182.383 308.398 182.401 308.453 182.401C308.509 182.401 308.564 182.383 308.608 182.35L312.408 180.16C312.429 180.146 312.446 180.128 312.458 180.106C312.469 180.084 312.476 180.06 312.476 180.035C312.476 180.01 312.469 179.986 312.458 179.964C312.446 179.942 312.429 179.924 312.408 179.91C312.221 179.71 312.021 179.523 311.808 179.35C311.534 179.148 311.247 178.964 310.948 178.8L309.498 177.96C309.442 177.935 309.38 177.922 309.318 177.922C309.256 177.922 309.195 177.935 309.138 177.96L305.348 180.15C305.248 180.21 305.248 180.3 305.348 180.36L306.828 181.23Z" fill="#E0E0E0"></path>
<path d="M309.169 178.18C309.224 178.155 309.283 178.143 309.344 178.143C309.404 178.143 309.464 178.155 309.519 178.18L310.999 179C311.297 179.164 311.584 179.348 311.859 179.55C312.071 179.723 312.271 179.91 312.459 180.11L308.659 182.3C308.614 182.333 308.56 182.351 308.504 182.351C308.448 182.351 308.394 182.333 308.349 182.3C308.158 182.097 307.954 181.906 307.739 181.73C307.465 181.527 307.178 181.343 306.879 181.18L305.429 180.35L309.169 178.18Z" fill="white"></path>
<path d="M312.599 181.11V180.97H312.739L313.199 180.7C313.302 180.64 313.421 180.613 313.539 180.624C313.657 180.635 313.769 180.682 313.859 180.76C313.889 180.79 313.909 180.828 313.919 180.87V181.02C313.888 181.126 313.816 181.216 313.719 181.27L313.159 181.59C313.118 181.621 313.067 181.638 313.014 181.638C312.962 181.638 312.911 181.621 312.869 181.59L312.599 181.3C312.58 181.272 312.57 181.239 312.57 181.205C312.57 181.171 312.58 181.138 312.599 181.11Z" fill="#E32764"></path>
<path opacity="0.3" d="M312.599 181.11V180.97H312.739L313.199 180.7C313.302 180.64 313.421 180.613 313.539 180.624C313.657 180.635 313.769 180.682 313.859 180.76C313.889 180.79 313.909 180.828 313.919 180.87V181.02C313.888 181.126 313.816 181.216 313.719 181.27L313.159 181.59C313.118 181.621 313.067 181.638 313.014 181.638C312.962 181.638 312.911 181.621 312.869 181.59L312.599 181.3C312.58 181.272 312.57 181.239 312.57 181.205C312.57 181.171 312.58 181.138 312.599 181.11Z" fill="#101828"></path>
<path d="M313.219 181.44L313.779 181.12C313.999 180.99 314.059 180.76 313.919 180.61C313.831 180.532 313.721 180.484 313.604 180.473C313.487 180.462 313.37 180.489 313.269 180.55L312.699 180.88C312.682 180.894 312.669 180.912 312.66 180.931C312.65 180.951 312.646 180.973 312.646 180.995C312.646 181.017 312.65 181.038 312.66 181.058C312.669 181.078 312.682 181.096 312.699 181.11C312.789 181.21 312.869 181.31 312.959 181.4C312.994 181.431 313.037 181.452 313.083 181.459C313.129 181.466 313.177 181.459 313.219 181.44Z" fill="#E32764"></path>
<path opacity="0.3" d="M313.219 181.44L313.779 181.12C313.999 180.99 314.059 180.76 313.919 180.61C313.831 180.532 313.721 180.484 313.604 180.473C313.487 180.462 313.37 180.489 313.269 180.55L312.699 180.88C312.682 180.894 312.669 180.912 312.66 180.931C312.65 180.951 312.646 180.973 312.646 180.995C312.646 181.017 312.65 181.038 312.66 181.058C312.669 181.078 312.682 181.096 312.699 181.11C312.789 181.21 312.869 181.31 312.959 181.4C312.994 181.431 313.037 181.452 313.083 181.459C313.129 181.466 313.177 181.459 313.219 181.44Z" fill="white"></path>
<path d="M309.399 183.05V182.9C309.437 182.853 309.484 182.815 309.539 182.79L310.099 182.46C310.139 182.429 310.188 182.412 310.239 182.412C310.289 182.412 310.339 182.429 310.379 182.46C310.469 182.55 310.549 182.65 310.639 182.75H310.719V182.9C310.719 182.9 310.719 182.96 310.649 182.98L310.089 183.31C309.994 183.381 309.878 183.42 309.759 183.42C309.64 183.42 309.524 183.381 309.429 183.31C309.401 183.273 309.384 183.229 309.379 183.184C309.373 183.138 309.38 183.092 309.399 183.05Z" fill="#E32764"></path>
<path opacity="0.3" d="M309.399 183.05V182.9C309.437 182.853 309.484 182.815 309.539 182.79L310.099 182.46C310.139 182.429 310.188 182.412 310.239 182.412C310.289 182.412 310.339 182.429 310.379 182.46C310.469 182.55 310.549 182.65 310.639 182.75H310.719V182.9C310.719 182.9 310.719 182.96 310.649 182.98L310.089 183.31C309.994 183.381 309.878 183.42 309.759 183.42C309.64 183.42 309.524 183.381 309.429 183.31C309.401 183.273 309.384 183.229 309.379 183.184C309.373 183.138 309.38 183.092 309.399 183.05Z" fill="#101828"></path>
<path d="M310.148 183.21L310.718 182.88C310.737 182.868 310.752 182.852 310.763 182.832C310.774 182.813 310.779 182.792 310.779 182.77C310.779 182.748 310.774 182.726 310.763 182.707C310.752 182.687 310.737 182.671 310.718 182.66L310.448 182.37C310.414 182.331 310.368 182.305 310.317 182.296C310.266 182.287 310.214 182.295 310.168 182.32L309.608 182.65C309.388 182.77 309.318 183 309.468 183.16C309.558 183.247 309.675 183.299 309.799 183.308C309.924 183.318 310.047 183.283 310.148 183.21Z" fill="#E32764"></path>
<path opacity="0.3" d="M310.148 183.21L310.718 182.88C310.737 182.868 310.752 182.852 310.763 182.832C310.774 182.813 310.779 182.792 310.779 182.77C310.779 182.748 310.774 182.726 310.763 182.707C310.752 182.687 310.737 182.671 310.718 182.66L310.448 182.37C310.414 182.331 310.368 182.305 310.317 182.296C310.266 182.287 310.214 182.295 310.168 182.32L309.608 182.65C309.388 182.77 309.318 183 309.468 183.16C309.558 183.247 309.675 183.299 309.799 183.308C309.924 183.318 310.047 183.283 310.148 183.21Z" fill="white"></path>
<path d="M310.889 182.08V181.92H310.999L311.749 181.48C311.813 181.446 311.886 181.434 311.956 181.447C312.027 181.46 312.092 181.496 312.139 181.55L312.369 181.8H312.439V181.96C312.434 181.988 312.422 182.014 312.405 182.037C312.388 182.059 312.365 182.077 312.339 182.09L311.539 182.55C311.481 182.59 311.411 182.612 311.339 182.612C311.268 182.612 311.198 182.59 311.139 182.55C311.069 182.46 310.989 182.38 310.919 182.3C310.893 182.27 310.876 182.233 310.871 182.194C310.866 182.155 310.872 182.115 310.889 182.08Z" fill="#E32764"></path>
<path opacity="0.3" d="M310.889 182.08V181.92H310.999L311.749 181.48C311.813 181.446 311.886 181.434 311.956 181.447C312.027 181.46 312.092 181.496 312.139 181.55L312.369 181.8H312.439V181.96C312.434 181.988 312.422 182.014 312.405 182.037C312.388 182.059 312.365 182.077 312.339 182.09L311.539 182.55C311.481 182.59 311.411 182.612 311.339 182.612C311.268 182.612 311.198 182.59 311.139 182.55C311.069 182.46 310.989 182.38 310.919 182.3C310.893 182.27 310.876 182.233 310.871 182.194C310.866 182.155 310.872 182.115 310.889 182.08Z" fill="#101828"></path>
<path d="M310.999 182.11L311.229 182.36C311.281 182.41 311.348 182.443 311.42 182.453C311.491 182.464 311.564 182.452 311.629 182.42L312.429 181.96C312.457 181.945 312.482 181.925 312.5 181.899C312.519 181.873 312.531 181.844 312.536 181.813C312.541 181.781 312.538 181.749 312.528 181.719C312.518 181.689 312.502 181.662 312.479 181.64C312.397 181.561 312.321 181.478 312.249 181.39C312.198 181.34 312.134 181.308 312.064 181.297C311.994 181.287 311.922 181.298 311.859 181.33L311.059 181.79C311.03 181.803 311.005 181.823 310.985 181.848C310.966 181.874 310.953 181.903 310.947 181.934C310.941 181.966 310.943 181.998 310.952 182.028C310.961 182.059 310.977 182.087 310.999 182.11Z" fill="#E32764"></path>
<path d="M312.099 183.85H311.999L311.579 183.53C311.541 183.508 311.497 183.496 311.454 183.496C311.41 183.496 311.367 183.508 311.329 183.53L310.699 183.9H310.499V184.06C310.492 184.072 310.489 184.086 310.489 184.1C310.489 184.113 310.492 184.127 310.499 184.14L311.019 184.54C311.057 184.562 311.1 184.573 311.144 184.573C311.187 184.573 311.231 184.562 311.269 184.54L312.049 184.09C312.065 184.084 312.08 184.073 312.091 184.059C312.101 184.044 312.108 184.027 312.109 184.01L312.099 183.85Z" fill="#E32764"></path>
<path opacity="0.3" d="M312.099 183.85H311.999L311.579 183.53C311.541 183.508 311.497 183.496 311.454 183.496C311.41 183.496 311.367 183.508 311.329 183.53L310.699 183.9H310.499V184.06C310.492 184.072 310.489 184.086 310.489 184.1C310.489 184.113 310.492 184.127 310.499 184.14L311.019 184.54C311.057 184.562 311.1 184.573 311.144 184.573C311.187 184.573 311.231 184.562 311.269 184.54L312.049 184.09C312.065 184.084 312.08 184.073 312.091 184.059C312.101 184.044 312.108 184.027 312.109 184.01L312.099 183.85Z" fill="#101828"></path>
<path d="M310.499 183.81L311.279 183.36C311.317 183.338 311.36 183.326 311.404 183.326C311.447 183.326 311.49 183.338 311.529 183.36L312.048 183.75C312.063 183.759 312.075 183.771 312.083 183.786C312.091 183.801 312.096 183.818 312.096 183.835C312.096 183.852 312.091 183.868 312.083 183.883C312.075 183.898 312.063 183.911 312.048 183.92L311.268 184.37C311.23 184.392 311.187 184.403 311.143 184.403C311.1 184.403 311.056 184.392 311.018 184.37L310.499 183.98C310.484 183.971 310.472 183.958 310.464 183.943C310.456 183.928 310.451 183.912 310.451 183.895C310.451 183.878 310.456 183.861 310.464 183.846C310.472 183.831 310.484 183.819 310.499 183.81Z" fill="#E32764"></path>
<path opacity="0.3" d="M310.499 183.81L311.279 183.36C311.317 183.338 311.36 183.326 311.404 183.326C311.447 183.326 311.49 183.338 311.529 183.36L312.048 183.75C312.063 183.759 312.075 183.771 312.083 183.786C312.091 183.801 312.096 183.818 312.096 183.835C312.096 183.852 312.091 183.868 312.083 183.883C312.075 183.898 312.063 183.911 312.048 183.92L311.268 184.37C311.23 184.392 311.187 184.403 311.143 184.403C311.1 184.403 311.056 184.392 311.018 184.37L310.499 183.98C310.484 183.971 310.472 183.958 310.464 183.943C310.456 183.928 310.451 183.912 310.451 183.895C310.451 183.878 310.456 183.861 310.464 183.846C310.472 183.831 310.484 183.819 310.499 183.81Z" fill="white"></path>
<path d="M315.469 186.43H315.329L314.909 186.12C314.871 186.098 314.828 186.086 314.784 186.086C314.74 186.086 314.697 186.098 314.659 186.12L314.019 186.49H313.819V186.65C313.824 186.685 313.842 186.717 313.869 186.74L314.389 187.13C314.427 187.152 314.47 187.163 314.514 187.163C314.558 187.163 314.601 187.152 314.639 187.13L315.419 186.68C315.434 186.67 315.447 186.657 315.456 186.641C315.464 186.625 315.469 186.608 315.469 186.59V186.43Z" fill="#E32764"></path>
<path opacity="0.3" d="M315.469 186.43H315.329L314.909 186.12C314.871 186.098 314.828 186.086 314.784 186.086C314.74 186.086 314.697 186.098 314.659 186.12L314.019 186.49H313.819V186.65C313.824 186.685 313.842 186.717 313.869 186.74L314.389 187.13C314.427 187.152 314.47 187.163 314.514 187.163C314.558 187.163 314.601 187.152 314.639 187.13L315.419 186.68C315.434 186.67 315.447 186.657 315.456 186.641C315.464 186.625 315.469 186.608 315.469 186.59V186.43Z" fill="#101828"></path>
<path d="M313.879 186.39L314.659 185.94C314.697 185.918 314.74 185.906 314.784 185.906C314.828 185.906 314.871 185.918 314.909 185.94L315.429 186.34C315.443 186.349 315.455 186.361 315.463 186.376C315.472 186.391 315.476 186.408 315.476 186.425C315.476 186.442 315.472 186.459 315.463 186.473C315.455 186.488 315.443 186.501 315.429 186.51L314.649 186.96C314.611 186.982 314.568 186.993 314.524 186.993C314.48 186.993 314.437 186.982 314.399 186.96L313.879 186.56C313.861 186.554 313.846 186.542 313.835 186.527C313.824 186.512 313.818 186.493 313.818 186.475C313.818 186.456 313.824 186.438 313.835 186.423C313.846 186.407 313.861 186.396 313.879 186.39Z" fill="#E32764"></path>
<path opacity="0.3" d="M313.879 186.39L314.659 185.94C314.697 185.918 314.74 185.906 314.784 185.906C314.828 185.906 314.871 185.918 314.909 185.94L315.429 186.34C315.443 186.349 315.455 186.361 315.463 186.376C315.472 186.391 315.476 186.408 315.476 186.425C315.476 186.442 315.472 186.459 315.463 186.473C315.455 186.488 315.443 186.501 315.429 186.51L314.649 186.96C314.611 186.982 314.568 186.993 314.524 186.993C314.48 186.993 314.437 186.982 314.399 186.96L313.879 186.56C313.861 186.554 313.846 186.542 313.835 186.527C313.824 186.512 313.818 186.493 313.818 186.475C313.818 186.456 313.824 186.438 313.835 186.423C313.846 186.407 313.861 186.396 313.879 186.39Z" fill="white"></path>
<path d="M313.219 184.71H313.079L312.659 184.39C312.621 184.368 312.578 184.356 312.534 184.356C312.49 184.356 312.447 184.368 312.409 184.39L311.769 184.76H311.569V184.93C311.57 184.946 311.576 184.962 311.584 184.976C311.593 184.99 311.605 185.002 311.619 185.01L312.139 185.4C312.177 185.424 312.22 185.437 312.264 185.437C312.309 185.437 312.352 185.424 312.389 185.4L313.169 184.95C313.184 184.942 313.196 184.93 313.204 184.916C313.213 184.902 313.218 184.886 313.219 184.87V184.71Z" fill="#E32764"></path>
<path opacity="0.3" d="M313.219 184.71H313.079L312.659 184.39C312.621 184.368 312.578 184.356 312.534 184.356C312.49 184.356 312.447 184.368 312.409 184.39L311.769 184.76H311.569V184.93C311.57 184.946 311.576 184.962 311.584 184.976C311.593 184.99 311.605 185.002 311.619 185.01L312.139 185.4C312.177 185.424 312.22 185.437 312.264 185.437C312.309 185.437 312.352 185.424 312.389 185.4L313.169 184.95C313.184 184.942 313.196 184.93 313.204 184.916C313.213 184.902 313.218 184.886 313.219 184.87V184.71Z" fill="#101828"></path>
<path d="M311.629 184.67L312.409 184.22C312.447 184.198 312.49 184.186 312.534 184.186C312.578 184.186 312.621 184.198 312.659 184.22L313.179 184.61C313.194 184.618 313.206 184.631 313.214 184.646C313.222 184.661 313.227 184.678 313.227 184.695C313.227 184.712 313.222 184.728 313.214 184.743C313.206 184.758 313.194 184.771 313.179 184.78L312.399 185.23C312.361 185.251 312.318 185.263 312.274 185.263C312.23 185.263 312.187 185.251 312.149 185.23L311.629 184.84C311.615 184.831 311.603 184.818 311.595 184.803C311.586 184.788 311.582 184.772 311.582 184.755C311.582 184.738 311.586 184.721 311.595 184.706C311.603 184.691 311.615 184.678 311.629 184.67Z" fill="#E32764"></path>
<path opacity="0.3" d="M311.629 184.67L312.409 184.22C312.447 184.198 312.49 184.186 312.534 184.186C312.578 184.186 312.621 184.198 312.659 184.22L313.179 184.61C313.194 184.618 313.206 184.631 313.214 184.646C313.222 184.661 313.227 184.678 313.227 184.695C313.227 184.712 313.222 184.728 313.214 184.743C313.206 184.758 313.194 184.771 313.179 184.78L312.399 185.23C312.361 185.251 312.318 185.263 312.274 185.263C312.23 185.263 312.187 185.251 312.149 185.23L311.629 184.84C311.615 184.831 311.603 184.818 311.595 184.803C311.586 184.788 311.582 184.772 311.582 184.755C311.582 184.738 311.586 184.721 311.595 184.706C311.603 184.691 311.615 184.678 311.629 184.67Z" fill="white"></path>
<path d="M314.349 185.57H314.199L313.779 185.25C313.741 185.228 313.698 185.216 313.654 185.216C313.61 185.216 313.567 185.228 313.529 185.25L312.899 185.62H312.699V185.79C312.69 185.816 312.69 185.844 312.699 185.87L313.219 186.26C313.257 186.282 313.3 186.293 313.344 186.293C313.388 186.293 313.431 186.282 313.469 186.26L314.249 185.81C314.267 185.802 314.282 185.79 314.292 185.774C314.303 185.758 314.309 185.739 314.309 185.72L314.349 185.57Z" fill="#E32764"></path>
<path opacity="0.3" d="M314.349 185.57H314.199L313.779 185.25C313.741 185.228 313.698 185.216 313.654 185.216C313.61 185.216 313.567 185.228 313.529 185.25L312.899 185.62H312.699V185.79C312.69 185.816 312.69 185.844 312.699 185.87L313.219 186.26C313.257 186.282 313.3 186.293 313.344 186.293C313.388 186.293 313.431 186.282 313.469 186.26L314.249 185.81C314.267 185.802 314.282 185.79 314.292 185.774C314.303 185.758 314.309 185.739 314.309 185.72L314.349 185.57Z" fill="#101828"></path>
<path d="M312.749 185.53L313.529 185.08C313.567 185.058 313.61 185.046 313.654 185.046C313.698 185.046 313.741 185.058 313.779 185.08L314.299 185.48C314.313 185.489 314.325 185.501 314.334 185.516C314.342 185.531 314.346 185.548 314.346 185.565C314.346 185.582 314.342 185.599 314.334 185.614C314.325 185.628 314.313 185.641 314.299 185.65L313.519 186.1C313.481 186.122 313.438 186.133 313.394 186.133C313.35 186.133 313.307 186.122 313.269 186.1L312.749 185.7C312.731 185.694 312.716 185.682 312.705 185.667C312.694 185.652 312.688 185.634 312.688 185.615C312.688 185.596 312.694 185.578 312.705 185.563C312.716 185.547 312.731 185.536 312.749 185.53Z" fill="#E32764"></path>
<path opacity="0.3" d="M312.749 185.53L313.529 185.08C313.567 185.058 313.61 185.046 313.654 185.046C313.698 185.046 313.741 185.058 313.779 185.08L314.299 185.48C314.313 185.489 314.325 185.501 314.334 185.516C314.342 185.531 314.346 185.548 314.346 185.565C314.346 185.582 314.342 185.599 314.334 185.614C314.325 185.628 314.313 185.641 314.299 185.65L313.519 186.1C313.481 186.122 313.438 186.133 313.394 186.133C313.35 186.133 313.307 186.122 313.269 186.1L312.749 185.7C312.731 185.694 312.716 185.682 312.705 185.667C312.694 185.652 312.688 185.634 312.688 185.615C312.688 185.596 312.694 185.578 312.705 185.563C312.716 185.547 312.731 185.536 312.749 185.53Z" fill="white"></path>
<path d="M313.839 182.85H313.689L313.269 182.53C313.231 182.508 313.188 182.496 313.144 182.496C313.1 182.496 313.057 182.508 313.019 182.53L312.379 182.9H312.179V183.06C312.18 183.076 312.185 183.092 312.194 183.106C312.202 183.12 312.214 183.131 312.229 183.14L312.749 183.54C312.787 183.562 312.83 183.573 312.874 183.573C312.918 183.573 312.961 183.562 312.999 183.54L313.779 183.09C313.794 183.083 313.808 183.072 313.817 183.058C313.826 183.043 313.83 183.026 313.829 183.01L313.839 182.85Z" fill="#E32764"></path>
<path opacity="0.3" d="M313.839 182.85H313.689L313.269 182.53C313.231 182.508 313.188 182.496 313.144 182.496C313.1 182.496 313.057 182.508 313.019 182.53L312.379 182.9H312.179V183.06C312.18 183.076 312.185 183.092 312.194 183.106C312.202 183.12 312.214 183.131 312.229 183.14L312.749 183.54C312.787 183.562 312.83 183.573 312.874 183.573C312.918 183.573 312.961 183.562 312.999 183.54L313.779 183.09C313.794 183.083 313.808 183.072 313.817 183.058C313.826 183.043 313.83 183.026 313.829 183.01L313.839 182.85Z" fill="#101828"></path>
<path d="M312.239 182.81L313.019 182.36C313.057 182.338 313.1 182.326 313.144 182.326C313.188 182.326 313.231 182.338 313.269 182.36L313.789 182.75C313.803 182.759 313.815 182.771 313.823 182.786C313.832 182.801 313.836 182.818 313.836 182.835C313.836 182.852 313.832 182.868 313.823 182.883C313.815 182.898 313.803 182.911 313.789 182.92L313.009 183.37C312.971 183.392 312.928 183.403 312.884 183.403C312.84 183.403 312.797 183.392 312.759 183.37L312.239 182.98C312.224 182.971 312.212 182.958 312.204 182.943C312.196 182.928 312.191 182.912 312.191 182.895C312.191 182.878 312.196 182.861 312.204 182.846C312.212 182.831 312.224 182.819 312.239 182.81Z" fill="#E32764"></path>
<path opacity="0.3" d="M312.239 182.81L313.019 182.36C313.057 182.338 313.1 182.326 313.144 182.326C313.188 182.326 313.231 182.338 313.269 182.36L313.789 182.75C313.803 182.759 313.815 182.771 313.823 182.786C313.832 182.801 313.836 182.818 313.836 182.835C313.836 182.852 313.832 182.868 313.823 182.883C313.815 182.898 313.803 182.911 313.789 182.92L313.009 183.37C312.971 183.392 312.928 183.403 312.884 183.403C312.84 183.403 312.797 183.392 312.759 183.37L312.239 182.98C312.224 182.971 312.212 182.958 312.204 182.943C312.196 182.928 312.191 182.912 312.191 182.895C312.191 182.878 312.196 182.861 312.204 182.846C312.212 182.831 312.224 182.819 312.239 182.81Z" fill="white"></path>
<path d="M317.209 185.43H317.059L316.649 185.12C316.61 185.095 316.565 185.082 316.519 185.082C316.472 185.082 316.427 185.095 316.389 185.12L315.759 185.49H315.559V185.65C315.547 185.679 315.547 185.711 315.559 185.74L316.079 186.13C316.117 186.152 316.16 186.163 316.204 186.163C316.247 186.163 316.291 186.152 316.329 186.13L317.109 185.68C317.125 185.671 317.14 185.658 317.15 185.643C317.161 185.627 317.167 185.609 317.169 185.59L317.209 185.43Z" fill="#E32764"></path>
<path opacity="0.3" d="M317.209 185.43H317.059L316.649 185.12C316.61 185.095 316.565 185.082 316.519 185.082C316.472 185.082 316.427 185.095 316.389 185.12L315.759 185.49H315.559V185.65C315.547 185.679 315.547 185.711 315.559 185.74L316.079 186.13C316.117 186.152 316.16 186.163 316.204 186.163C316.247 186.163 316.291 186.152 316.329 186.13L317.109 185.68C317.125 185.671 317.14 185.658 317.15 185.643C317.161 185.627 317.167 185.609 317.169 185.59L317.209 185.43Z" fill="#101828"></path>
<path d="M315.609 185.39L316.389 184.94C316.428 184.915 316.473 184.901 316.519 184.901C316.565 184.901 316.611 184.915 316.649 184.94L317.159 185.34C317.229 185.39 317.219 185.46 317.159 185.51L316.379 185.95C316.342 185.974 316.299 185.987 316.254 185.987C316.21 185.987 316.167 185.974 316.129 185.95L315.609 185.55C315.595 185.542 315.582 185.531 315.574 185.516C315.565 185.502 315.561 185.486 315.561 185.47C315.561 185.453 315.565 185.437 315.574 185.423C315.582 185.409 315.595 185.397 315.609 185.39Z" fill="#E32764"></path>
<path opacity="0.3" d="M315.609 185.39L316.389 184.94C316.428 184.915 316.473 184.901 316.519 184.901C316.565 184.901 316.611 184.915 316.649 184.94L317.159 185.34C317.229 185.39 317.219 185.46 317.159 185.51L316.379 185.95C316.342 185.974 316.299 185.987 316.254 185.987C316.21 185.987 316.167 185.974 316.129 185.95L315.609 185.55C315.595 185.542 315.582 185.531 315.574 185.516C315.565 185.502 315.561 185.486 315.561 185.47C315.561 185.453 315.565 185.437 315.574 185.423C315.582 185.409 315.595 185.397 315.609 185.39Z" fill="white"></path>
<path d="M314.999 183.71H314.849L314.439 183.39C314.399 183.368 314.355 183.356 314.309 183.356C314.264 183.356 314.219 183.368 314.179 183.39L313.549 183.76H313.349V183.93C313.343 183.942 313.34 183.956 313.34 183.97C313.34 183.984 313.343 183.997 313.349 184.01L313.869 184.4C313.906 184.424 313.95 184.437 313.994 184.437C314.039 184.437 314.082 184.424 314.119 184.4L314.899 183.95C314.916 183.944 314.931 183.933 314.941 183.919C314.952 183.905 314.958 183.888 314.959 183.87L314.999 183.71Z" fill="#E32764"></path>
<path opacity="0.3" d="M314.999 183.71H314.849L314.439 183.39C314.399 183.368 314.355 183.356 314.309 183.356C314.264 183.356 314.219 183.368 314.179 183.39L313.549 183.76H313.349V183.93C313.343 183.942 313.34 183.956 313.34 183.97C313.34 183.984 313.343 183.997 313.349 184.01L313.869 184.4C313.906 184.424 313.95 184.437 313.994 184.437C314.039 184.437 314.082 184.424 314.119 184.4L314.899 183.95C314.916 183.944 314.931 183.933 314.941 183.919C314.952 183.905 314.958 183.888 314.959 183.87L314.999 183.71Z" fill="#101828"></path>
<path d="M313.359 183.67L314.139 183.22C314.179 183.198 314.223 183.187 314.269 183.187C314.314 183.187 314.359 183.198 314.399 183.22L314.909 183.61C314.926 183.616 314.942 183.627 314.953 183.643C314.963 183.658 314.969 183.676 314.969 183.695C314.969 183.714 314.963 183.732 314.953 183.747C314.942 183.762 314.926 183.774 314.909 183.78L314.129 184.23C314.091 184.252 314.048 184.263 314.004 184.263C313.96 184.263 313.917 184.252 313.879 184.23L313.359 183.84C313.344 183.831 313.332 183.818 313.324 183.804C313.316 183.789 313.312 183.772 313.312 183.755C313.312 183.738 313.316 183.721 313.324 183.706C313.332 183.691 313.344 183.679 313.359 183.67Z" fill="#E32764"></path>
<path opacity="0.3" d="M313.359 183.67L314.139 183.22C314.179 183.198 314.223 183.187 314.269 183.187C314.314 183.187 314.359 183.198 314.399 183.22L314.909 183.61C314.926 183.616 314.942 183.627 314.953 183.643C314.963 183.658 314.969 183.676 314.969 183.695C314.969 183.714 314.963 183.732 314.953 183.747C314.942 183.762 314.926 183.774 314.909 183.78L314.129 184.23C314.091 184.252 314.048 184.263 314.004 184.263C313.96 184.263 313.917 184.252 313.879 184.23L313.359 183.84C313.344 183.831 313.332 183.818 313.324 183.804C313.316 183.789 313.312 183.772 313.312 183.755C313.312 183.738 313.316 183.721 313.324 183.706C313.332 183.691 313.344 183.679 313.359 183.67Z" fill="white"></path>
<path d="M316.089 184.57H315.939L315.519 184.26C315.481 184.238 315.438 184.226 315.394 184.226C315.35 184.226 315.307 184.238 315.269 184.26L314.629 184.63H314.429V184.8C314.436 184.831 314.454 184.859 314.479 184.88L314.999 185.27C315.037 185.292 315.08 185.303 315.124 185.303C315.168 185.303 315.211 185.292 315.249 185.27L316.029 184.82C316.045 184.811 316.059 184.799 316.068 184.782C316.077 184.766 316.081 184.748 316.079 184.73L316.089 184.57Z" fill="#E32764"></path>
<path opacity="0.3" d="M316.089 184.57H315.939L315.519 184.26C315.481 184.238 315.438 184.226 315.394 184.226C315.35 184.226 315.307 184.238 315.269 184.26L314.629 184.63H314.429V184.8C314.436 184.831 314.454 184.859 314.479 184.88L314.999 185.27C315.037 185.292 315.08 185.303 315.124 185.303C315.168 185.303 315.211 185.292 315.249 185.27L316.029 184.82C316.045 184.811 316.059 184.799 316.068 184.782C316.077 184.766 316.081 184.748 316.079 184.73L316.089 184.57Z" fill="#101828"></path>
<path d="M314.489 184.53L315.269 184.08C315.307 184.058 315.35 184.046 315.394 184.046C315.438 184.046 315.481 184.058 315.519 184.08L316.039 184.48C316.054 184.489 316.066 184.501 316.074 184.516C316.082 184.531 316.086 184.548 316.086 184.565C316.086 184.582 316.082 184.599 316.074 184.614C316.066 184.628 316.054 184.641 316.039 184.65L315.259 185.1C315.221 185.122 315.178 185.133 315.134 185.133C315.09 185.133 315.047 185.122 315.009 185.1L314.489 184.7C314.471 184.694 314.456 184.682 314.445 184.667C314.435 184.652 314.429 184.634 314.429 184.615C314.429 184.596 314.435 184.578 314.445 184.563C314.456 184.547 314.471 184.536 314.489 184.53Z" fill="#E32764"></path>
<path opacity="0.3" d="M314.489 184.53L315.269 184.08C315.307 184.058 315.35 184.046 315.394 184.046C315.438 184.046 315.481 184.058 315.519 184.08L316.039 184.48C316.054 184.489 316.066 184.501 316.074 184.516C316.082 184.531 316.086 184.548 316.086 184.565C316.086 184.582 316.082 184.599 316.074 184.614C316.066 184.628 316.054 184.641 316.039 184.65L315.259 185.1C315.221 185.122 315.178 185.133 315.134 185.133C315.09 185.133 315.047 185.122 315.009 185.1L314.489 184.7C314.471 184.694 314.456 184.682 314.445 184.667C314.435 184.652 314.429 184.634 314.429 184.615C314.429 184.596 314.435 184.578 314.445 184.563C314.456 184.547 314.471 184.536 314.489 184.53Z" fill="white"></path>
<path d="M315.569 181.85H315.419L315.009 181.53C314.969 181.508 314.924 181.497 314.879 181.497C314.833 181.497 314.788 181.508 314.749 181.53L314.119 181.9H313.919V182.06C313.912 182.072 313.909 182.086 313.909 182.1C313.909 182.114 313.912 182.128 313.919 182.14L314.439 182.53C314.476 182.554 314.519 182.567 314.564 182.567C314.608 182.567 314.651 182.554 314.689 182.53L315.469 182.08C315.485 182.074 315.5 182.063 315.511 182.049C315.521 182.035 315.528 182.018 315.529 182L315.569 181.85Z" fill="#E32764"></path>
<path opacity="0.3" d="M315.569 181.85H315.419L315.009 181.53C314.969 181.508 314.924 181.497 314.879 181.497C314.833 181.497 314.788 181.508 314.749 181.53L314.119 181.9H313.919V182.06C313.912 182.072 313.909 182.086 313.909 182.1C313.909 182.114 313.912 182.128 313.919 182.14L314.439 182.53C314.476 182.554 314.519 182.567 314.564 182.567C314.608 182.567 314.651 182.554 314.689 182.53L315.469 182.08C315.485 182.074 315.5 182.063 315.511 182.049C315.521 182.035 315.528 182.018 315.529 182L315.569 181.85Z" fill="#101828"></path>
<path d="M313.998 181.81L314.768 181.36C314.808 181.338 314.853 181.326 314.898 181.326C314.944 181.326 314.989 181.338 315.028 181.36L315.538 181.75C315.556 181.756 315.571 181.767 315.582 181.782C315.593 181.798 315.599 181.816 315.599 181.835C315.599 181.853 315.593 181.871 315.582 181.887C315.571 181.902 315.556 181.913 315.538 181.92L314.758 182.37C314.72 182.391 314.677 182.403 314.633 182.403C314.59 182.403 314.546 182.391 314.508 182.37L313.998 182C313.978 181.993 313.961 181.98 313.949 181.963C313.936 181.946 313.93 181.926 313.93 181.905C313.93 181.883 313.936 181.863 313.949 181.846C313.961 181.829 313.978 181.816 313.998 181.81Z" fill="#E32764"></path>
<path opacity="0.3" d="M313.998 181.81L314.768 181.36C314.808 181.338 314.853 181.326 314.898 181.326C314.944 181.326 314.989 181.338 315.028 181.36L315.538 181.75C315.556 181.756 315.571 181.767 315.582 181.782C315.593 181.798 315.599 181.816 315.599 181.835C315.599 181.853 315.593 181.871 315.582 181.887C315.571 181.902 315.556 181.913 315.538 181.92L314.758 182.37C314.72 182.391 314.677 182.403 314.633 182.403C314.59 182.403 314.546 182.391 314.508 182.37L313.998 182C313.978 181.993 313.961 181.98 313.949 181.963C313.936 181.946 313.93 181.926 313.93 181.905C313.93 181.883 313.936 181.863 313.949 181.846C313.961 181.829 313.978 181.816 313.998 181.81Z" fill="white"></path>
<path d="M318.998 184.43H318.848L318.428 184.11C318.39 184.088 318.347 184.076 318.303 184.076C318.26 184.076 318.216 184.088 318.178 184.11L317.538 184.48H317.338V184.64C317.333 184.652 317.33 184.666 317.33 184.68C317.33 184.693 317.333 184.707 317.338 184.72L317.858 185.12C317.896 185.142 317.94 185.153 317.983 185.153C318.027 185.153 318.07 185.142 318.108 185.12L318.888 184.67C318.906 184.663 318.921 184.65 318.93 184.634C318.939 184.617 318.942 184.598 318.938 184.58L318.998 184.43Z" fill="#E32764"></path>
<path opacity="0.3" d="M318.998 184.43H318.848L318.428 184.11C318.39 184.088 318.347 184.076 318.303 184.076C318.26 184.076 318.216 184.088 318.178 184.11L317.538 184.48H317.338V184.64C317.333 184.652 317.33 184.666 317.33 184.68C317.33 184.693 317.333 184.707 317.338 184.72L317.858 185.12C317.896 185.142 317.94 185.153 317.983 185.153C318.027 185.153 318.07 185.142 318.108 185.12L318.888 184.67C318.906 184.663 318.921 184.65 318.93 184.634C318.939 184.617 318.942 184.598 318.938 184.58L318.998 184.43Z" fill="#101828"></path>
<path d="M317.349 184.38L318.129 183.94C318.167 183.916 318.21 183.903 318.254 183.903C318.299 183.903 318.342 183.916 318.379 183.94L318.899 184.34C318.914 184.347 318.926 184.359 318.935 184.373C318.943 184.387 318.948 184.403 318.948 184.42C318.948 184.436 318.943 184.453 318.935 184.467C318.926 184.481 318.914 184.492 318.899 184.5L318.119 184.95C318.082 184.974 318.039 184.987 317.994 184.987C317.95 184.987 317.907 184.974 317.869 184.95L317.349 184.55C317.269 184.5 317.279 184.43 317.349 184.38Z" fill="#E32764"></path>
<path opacity="0.3" d="M317.349 184.38L318.129 183.94C318.167 183.916 318.21 183.903 318.254 183.903C318.299 183.903 318.342 183.916 318.379 183.94L318.899 184.34C318.914 184.347 318.926 184.359 318.935 184.373C318.943 184.387 318.948 184.403 318.948 184.42C318.948 184.436 318.943 184.453 318.935 184.467C318.926 184.481 318.914 184.492 318.899 184.5L318.119 184.95C318.082 184.974 318.039 184.987 317.994 184.987C317.95 184.987 317.907 184.974 317.869 184.95L317.349 184.55C317.269 184.5 317.279 184.43 317.349 184.38Z" fill="white"></path>
<path d="M317.819 183.57H317.669L317.259 183.26C317.219 183.238 317.174 183.227 317.129 183.227C317.083 183.227 317.039 183.238 316.999 183.26L316.369 183.63H316.169V183.79C316.157 183.819 316.157 183.851 316.169 183.88L316.689 184.27C316.727 184.292 316.77 184.303 316.814 184.303C316.858 184.303 316.901 184.292 316.939 184.27L317.719 183.82C317.736 183.812 317.751 183.8 317.762 183.784C317.773 183.768 317.779 183.749 317.779 183.73L317.819 183.57Z" fill="#E32764"></path>
<path opacity="0.3" d="M317.819 183.57H317.669L317.259 183.26C317.219 183.238 317.174 183.227 317.129 183.227C317.083 183.227 317.039 183.238 316.999 183.26L316.369 183.63H316.169V183.79C316.157 183.819 316.157 183.851 316.169 183.88L316.689 184.27C316.727 184.292 316.77 184.303 316.814 184.303C316.858 184.303 316.901 184.292 316.939 184.27L317.719 183.82C317.736 183.812 317.751 183.8 317.762 183.784C317.773 183.768 317.779 183.749 317.779 183.73L317.819 183.57Z" fill="#101828"></path>
<path d="M316.229 183.53L316.999 183.08C317.039 183.058 317.084 183.046 317.129 183.046C317.174 183.046 317.219 183.058 317.259 183.08L317.769 183.48C317.839 183.48 317.839 183.6 317.769 183.65L316.989 184.1C316.951 184.122 316.908 184.133 316.864 184.133C316.82 184.133 316.777 184.122 316.739 184.1L316.219 183.7C316.202 183.693 316.187 183.68 316.177 183.664C316.167 183.649 316.162 183.63 316.163 183.611C316.164 183.592 316.171 183.575 316.183 183.56C316.195 183.545 316.211 183.535 316.229 183.53Z" fill="#E32764"></path>
<path opacity="0.3" d="M316.229 183.53L316.999 183.08C317.039 183.058 317.084 183.046 317.129 183.046C317.174 183.046 317.219 183.058 317.259 183.08L317.769 183.48C317.839 183.48 317.839 183.6 317.769 183.65L316.989 184.1C316.951 184.122 316.908 184.133 316.864 184.133C316.82 184.133 316.777 184.122 316.739 184.1L316.219 183.7C316.202 183.693 316.187 183.68 316.177 183.664C316.167 183.649 316.162 183.63 316.163 183.611C316.164 183.592 316.171 183.575 316.183 183.56C316.195 183.545 316.211 183.535 316.229 183.53Z" fill="white"></path>
<path d="M316.699 182.71H316.549L316.129 182.39C316.091 182.368 316.047 182.356 316.004 182.356C315.96 182.356 315.917 182.368 315.879 182.39L315.239 182.76H314.999V182.93C314.991 182.956 314.991 182.984 314.999 183.01L315.519 183.4C315.557 183.422 315.6 183.433 315.644 183.433C315.687 183.433 315.731 183.422 315.769 183.4L316.549 182.95C316.566 182.942 316.581 182.93 316.592 182.914C316.602 182.898 316.608 182.879 316.609 182.86L316.699 182.71Z" fill="#E32764"></path>
<path opacity="0.3" d="M316.699 182.71H316.549L316.129 182.39C316.091 182.368 316.047 182.356 316.004 182.356C315.96 182.356 315.917 182.368 315.879 182.39L315.239 182.76H314.999V182.93C314.991 182.956 314.991 182.984 314.999 183.01L315.519 183.4C315.557 183.422 315.6 183.433 315.644 183.433C315.687 183.433 315.731 183.422 315.769 183.4L316.549 182.95C316.566 182.942 316.581 182.93 316.592 182.914C316.602 182.898 316.608 182.879 316.609 182.86L316.699 182.71Z" fill="#101828"></path>
<path d="M315.099 182.67L315.879 182.22C315.917 182.198 315.96 182.186 316.004 182.186C316.048 182.186 316.091 182.198 316.129 182.22L316.649 182.62C316.663 182.628 316.675 182.641 316.683 182.656C316.692 182.671 316.696 182.688 316.696 182.705C316.696 182.722 316.692 182.738 316.683 182.753C316.675 182.768 316.663 182.781 316.649 182.79L315.869 183.24C315.831 183.261 315.788 183.273 315.744 183.273C315.7 183.273 315.657 183.261 315.619 183.24L315.099 182.85C315.075 182.85 315.052 182.84 315.035 182.823C315.018 182.806 315.009 182.783 315.009 182.76C315.009 182.736 315.018 182.713 315.035 182.696C315.052 182.679 315.075 182.67 315.099 182.67Z" fill="#E32764"></path>
<path opacity="0.3" d="M315.099 182.67L315.879 182.22C315.917 182.198 315.96 182.186 316.004 182.186C316.048 182.186 316.091 182.198 316.129 182.22L316.649 182.62C316.663 182.628 316.675 182.641 316.683 182.656C316.692 182.671 316.696 182.688 316.696 182.705C316.696 182.722 316.692 182.738 316.683 182.753C316.675 182.768 316.663 182.781 316.649 182.79L315.869 183.24C315.831 183.261 315.788 183.273 315.744 183.273C315.7 183.273 315.657 183.261 315.619 183.24L315.099 182.85C315.075 182.85 315.052 182.84 315.035 182.823C315.018 182.806 315.009 182.783 315.009 182.76C315.009 182.736 315.018 182.713 315.035 182.696C315.052 182.679 315.075 182.67 315.099 182.67Z" fill="white"></path>
<path d="M315.25 233.81C316.492 233.34 317.569 232.516 318.349 231.441C319.129 230.366 319.578 229.087 319.64 227.76C319.97 224.76 319.77 221.44 315.14 218.3C310.51 215.16 306.97 216.3 305.14 217.09L315.25 233.81Z" fill="#455A64"></path>
<path d="M313.339 234.15C312.584 234.06 311.863 233.785 311.239 233.35L306.449 230.15C305.375 229.403 304.506 228.398 303.922 227.227C303.338 226.056 303.059 224.757 303.109 223.45L303.519 219.75C303.538 219.313 303.647 218.884 303.84 218.491C304.033 218.098 304.306 217.75 304.64 217.468C304.975 217.186 305.365 216.976 305.784 216.853C306.204 216.729 306.645 216.694 307.079 216.75C307.837 216.847 308.561 217.125 309.189 217.56L313.969 220.75C315.044 221.499 315.913 222.506 316.497 223.678C317.081 224.851 317.36 226.151 317.309 227.46L316.909 231.15C316.891 231.588 316.781 232.018 316.588 232.411C316.394 232.805 316.121 233.154 315.785 233.436C315.449 233.718 315.058 233.928 314.637 234.05C314.216 234.173 313.774 234.207 313.339 234.15Z" fill="#263238"></path>
<path d="M308.399 218.52L313.179 221.71C314.068 222.338 314.787 223.176 315.272 224.15C315.757 225.124 315.993 226.203 315.959 227.29L315.559 230.99C315.349 232.91 313.769 233.52 312.029 232.36L307.239 229.17C306.351 228.542 305.632 227.704 305.147 226.73C304.661 225.756 304.425 224.678 304.459 223.59L304.869 219.9C305.079 218 306.659 217.36 308.399 218.52Z" fill="#455A64"></path>
<g opacity="0.2">
<path opacity="0.2" d="M309.829 219.48L304.479 223.33L304.949 219.06L306.469 217.96C307.165 217.902 307.856 218.105 308.409 218.53L309.829 219.48Z" fill="white"></path>
<path opacity="0.2" d="M313.999 222.37L306.079 228.09C305.871 227.838 305.678 227.574 305.499 227.3L313.199 221.74C313.488 221.921 313.756 222.132 313.999 222.37Z" fill="white"></path>
<path opacity="0.2" d="M316 227.29L315.93 227.93L310.88 231.57L308.67 230.11L315.67 225.04C315.945 225.756 316.058 226.525 316 227.29Z" fill="white"></path>
</g>
<path d="M330.04 372.19L294.46 351.65L318.18 337.96L353.75 358.5L330.04 372.19Z" fill="#E32764"></path>
<path opacity="0.3" d="M330.04 372.19L294.46 351.65L318.18 337.96L353.75 358.5L330.04 372.19Z" fill="#101828"></path>
<path d="M448.29 304.03L412.72 283.5L418.49 276.29L454.06 296.83L448.29 304.03Z" fill="#E32764"></path>
<path opacity="0.3" d="M448.29 304.03L412.72 283.5L418.49 276.29L454.06 296.83L448.29 304.03Z" fill="#101828"></path>
<path d="M317.85 374L321.92 365.92L312.24 360.32C309.16 358.55 305.06 358.75 300.56 361.32C291 366.84 283.25 381.07 283.25 393.12C283.25 399.42 285.38 403.87 288.77 405.89L288.91 405.97L298.83 411.7L303.12 403.18C311.26 397 317.53 384.75 317.85 374Z" fill="#37474F"></path>
<path d="M317.85 374L321.92 365.92L312.24 360.32C309.16 358.55 305.06 358.75 300.56 361.32C291 366.84 283.25 381.07 283.25 393.12C283.25 399.42 285.38 403.87 288.77 405.89L288.91 405.97L298.83 411.7L303.12 403.18C311.26 397 317.53 384.75 317.85 374Z" fill="#101828"></path>
<path d="M310.63 374.44C316.71 370.93 321.63 374.59 321.63 382.62C321.63 390.65 316.7 400 310.63 403.51C304.56 407.02 299.63 403.36 299.63 395.34C299.63 387.32 304.55 378 310.63 374.44Z" fill="#37474F"></path>
<path d="M315.609 386.76C315.189 390.76 312.609 394.98 309.869 396.2C309.403 396.468 308.866 396.587 308.33 396.542C307.794 396.498 307.285 396.291 306.869 395.95C305.869 395.13 305.409 393.44 305.639 391.2C306.059 387.2 308.639 382.97 311.379 381.75C311.997 381.438 312.701 381.343 313.379 381.48C314.999 381.88 315.909 383.85 315.609 386.76Z" fill="#455A64"></path>
<path d="M327.94 379C327.94 389.38 322.17 401.4 314.46 408C319.818 401.929 323.596 394.63 325.46 386.75C326.92 379.81 326.37 369.85 320.41 367.33C314.45 364.81 306.59 370.12 304.1 372.54C305.998 370.42 308.206 368.599 310.65 367.14C320.19 361.66 327.94 366.94 327.94 379Z" fill="#455A64"></path>
<path d="M436.1 305.85L440.17 297.77L430.49 292.17C427.41 290.4 423.32 290.6 418.81 293.17C409.26 298.69 401.51 312.92 401.5 324.97C401.5 331.27 403.63 335.72 407.03 337.74L407.16 337.81L417.08 343.53L421.37 335.01C429.52 328.85 435.79 316.59 436.1 305.85Z" fill="#37474F"></path>
<path d="M436.1 305.85L440.17 297.77L430.49 292.17C427.41 290.4 423.32 290.6 418.81 293.17C409.26 298.69 401.51 312.92 401.5 324.97C401.5 331.27 403.63 335.72 407.03 337.74L407.16 337.81L417.08 343.53L421.37 335.01C429.52 328.85 435.79 316.59 436.1 305.85Z" fill="#101828"></path>
<path d="M446.189 310.82C446.189 321.2 440.429 333.22 432.709 339.87C431.531 340.889 430.262 341.8 428.919 342.59C419.349 348.11 411.599 342.82 411.609 330.78C411.609 321.68 416.029 311.33 422.309 304.43H422.369C424.266 302.307 426.474 300.486 428.919 299.03C438.449 293.5 446.189 298.78 446.189 310.82Z" fill="#263238"></path>
<path d="M428.89 306.28C434.97 302.77 439.89 306.43 439.89 314.46C439.89 322.49 434.96 331.84 428.89 335.35C422.82 338.86 417.89 335.2 417.89 327.18C417.89 319.16 422.8 309.79 428.89 306.28Z" fill="#37474F"></path>
<path d="M433.859 318.6C433.439 322.6 430.859 326.82 428.129 328.04C427.662 328.306 427.126 328.425 426.59 328.38C426.055 328.336 425.546 328.13 425.129 327.79C424.129 326.97 423.669 325.28 423.909 323.04C424.329 319.04 426.909 314.81 429.639 313.59C430.257 313.28 430.961 313.185 431.639 313.32C433.239 313.72 434.169 315.69 433.859 318.6Z" fill="#455A64"></path>
<path d="M446.189 310.82C446.189 321.2 440.429 333.22 432.709 339.87C438.072 333.802 441.85 326.502 443.709 318.62C445.179 311.68 444.629 301.72 438.709 299.2C432.789 296.68 424.889 301.99 422.399 304.41C424.296 302.287 426.504 300.466 428.949 299.01C438.449 293.5 446.189 298.78 446.189 310.82Z" fill="#455A64"></path>
<path d="M464.45 271.62V283.15C464.45 289.54 458.79 297.98 451.81 302L448.28 304.05C446.28 294.05 438.35 290.3 428.87 295.76C426.058 297.422 423.518 299.506 421.34 301.94C421.34 301.94 421.34 302 421.28 302.03C415.136 308.915 411.039 317.38 409.45 326.47L330 372.18C328 362.18 320.07 358.43 310.59 363.89C307.783 365.575 305.241 367.667 303.05 370.1C303.05 370.1 303.05 370.1 303 370.16C296.869 377.05 292.782 385.514 291.2 394.6L283.38 399.12C276.38 403.12 269.9 403.44 258.1 399.12C246.3 394.8 214.21 377.12 200.39 365.78C191.39 358.5 187.75 352.36 187.75 344.78V331.11C187.75 330.43 187.75 329.73 187.75 329.11C187.75 328.49 187.81 327.83 187.87 327.19C188.013 324.444 188.348 321.71 188.87 319.01C189.08 317.79 189.31 316.62 189.63 315.45C191.425 307.68 194.464 300.251 198.63 293.45C207.16 279.99 210.42 276.93 219.04 271.97L247.04 283.2C247.04 283.2 342.52 228.2 357.73 219.39C372.94 210.58 413.6 213.39 437.19 228.3C460.78 243.21 464.45 256 464.45 271.62Z" fill="#E32764"></path>
<path opacity="0.15" d="M464.45 271.62V283.15C464.45 289.54 458.79 297.98 451.81 302L448.28 304.05C446.28 294.05 438.35 290.3 428.87 295.76C426.058 297.422 423.518 299.506 421.34 301.94C421.34 301.94 421.34 302 421.28 302.03C415.136 308.915 411.039 317.38 409.45 326.47L330 372.18C328 362.18 320.07 358.43 310.59 363.89C307.783 365.575 305.241 367.667 303.05 370.1C303.05 370.1 303.05 370.1 303 370.16C296.869 377.05 292.782 385.514 291.2 394.6L283.38 399.12C276.38 403.12 269.9 403.44 258.1 399.12C246.3 394.8 214.21 377.12 200.39 365.78C191.39 358.5 187.75 352.36 187.75 344.78V331.11C187.75 330.43 187.75 329.73 187.75 329.11C187.75 328.49 187.81 327.83 187.87 327.19C188.013 324.443 188.348 321.71 188.87 319.01C189.08 317.79 189.31 316.62 189.63 315.45C191.425 307.68 194.464 300.25 198.63 293.45C207.16 279.99 210.42 276.93 219.04 271.97L247.04 283.2C247.04 283.2 305.04 249.77 337.85 230.86C347.12 225.51 411.05 273.65 414.76 272.55C436.18 266.23 452.21 255.81 454.86 242.85C462.83 252.16 464.45 261.26 464.45 271.62Z" fill="#101828"></path>
<path opacity="0.15" d="M295.509 309.87L218.509 272.26C210.269 277.05 206.959 280.26 198.599 293.45C194.434 300.251 191.394 307.68 189.599 315.45C189.279 316.62 189.049 317.79 188.839 319.01C188.317 321.71 187.983 324.444 187.839 327.19C187.779 327.83 187.749 328.47 187.719 329.11C187.689 329.75 187.719 330.45 187.719 331.11V344.8C187.719 352.36 191.319 358.5 200.359 365.8C214.179 377.12 246.269 394.8 258.069 399.14C265.839 401.98 271.299 402.79 276.069 401.89C274.149 396.89 275.879 386.41 278.489 366.01C281.899 340 286.329 320.16 295.509 309.87Z" fill="#101828"></path>
<path d="M413.05 273.77C417.57 271.09 419.63 267.19 417.85 262.97L369.6 253.66L369.69 267.37L413.05 273.77Z" fill="#263238"></path>
<path d="M310.31 223.67H357.74C365.36 223.67 378.56 228.09 395.08 238.91C411.6 249.73 429.18 264 414.76 272.55L310.31 223.67Z" fill="#263238"></path>
<path d="M311.899 225.19H359.329C366.729 225.19 381.459 233.08 393.329 239.93C405.199 246.78 423.329 263.69 417.049 267.31C414.719 268.66 409.229 267.97 393.329 265.99L373.089 263.46L311.899 225.19Z" fill="#455A64"></path>
<path opacity="0.2" d="M414.509 257.74C409.439 251.49 400.299 243.97 393.309 239.93C381.459 233.08 366.729 225.19 359.309 225.19H311.899L333.899 238.94L339.639 236.31C332.449 232.14 352.639 230.01 364.129 231.57C375.619 233.13 406.079 247.1 414.509 257.74Z" fill="white"></path>
<path d="M299.559 316.39C299.041 321.055 298.933 325.756 299.239 330.44C299.399 335.11 302.959 337.21 307.149 334.8L413.049 273.8C417.239 271.38 416.739 268.94 411.939 268.34L384.389 264.9C378.765 264.469 373.131 265.612 368.119 268.2L307.119 303.29C302.999 305.67 300.259 309.75 299.559 316.39Z" fill="#263238"></path>
<path d="M301.8 315.74C301.077 320.414 300.92 325.158 301.33 329.87C301.66 332.58 304.07 333.59 306.86 331.98L405.17 275.34C407.96 273.73 407.63 272.09 404.43 271.69L380.43 268.69C376.68 268.4 372.924 269.159 369.58 270.88L306.86 307C304.07 308.6 302.68 310.38 301.8 315.74Z" fill="#37474F"></path>
<path d="M345.5 281.7V312.06L347.5 310.9V280.55L345.5 281.7Z" fill="#263238"></path>
<path d="M381.46 266.6V291.26L383.46 290.1V265.44L381.46 266.6Z" fill="#263238"></path>
<path d="M275 313C277.35 314.193 279.949 314.815 282.585 314.815C285.221 314.815 287.819 314.193 290.17 313L368.8 267.73C375.8 263.73 375.8 257.16 368.8 253.13L323 226.69C316 222.69 304.7 222.69 297.72 226.69L219.05 272C214.86 274.42 214.86 278.34 219.05 280.76L275 313Z" fill="#E32764"></path>
<path opacity="0.15" d="M279.57 305.94C266.81 300.07 257.88 295.24 247.34 285.5C236.8 275.76 242.97 262.88 268.44 243.45L219.05 272C214.86 274.42 214.86 278.34 219.05 280.76L275 313C277.35 314.193 279.949 314.815 282.585 314.815C285.221 314.815 287.819 314.193 290.17 313L316.31 298C316.16 298.05 292.29 311.79 279.57 305.94Z" fill="#101828"></path>
<path opacity="0.3" d="M368.819 253.17L322.999 226.69C318.339 224 311.759 223.15 305.809 224.05C309.43 223.903 313.031 224.656 316.289 226.24C322.219 228.81 339.369 238.96 358.729 249.63C378.089 260.3 370.489 264.23 365.159 267.31C359.829 270.39 298.599 308.18 290.189 313L368.819 267.73C375.799 263.74 375.799 257.2 368.819 253.17Z" fill="white"></path>
<path d="M212.75 361.07V350.69C212.75 349.4 213.67 348.87 214.75 349.52L232.41 359.71C232.875 360.014 233.263 360.423 233.541 360.904C233.819 361.385 233.979 361.925 234.01 362.48V372.72C234.01 374.02 233.09 374.55 232.01 373.91L214.36 363.82C213.894 363.521 213.505 363.116 213.225 362.638C212.945 362.161 212.782 361.623 212.75 361.07Z" fill="#37474F"></path>
<path d="M216.069 338.19V336.83C216.069 335.22 217.199 334.56 218.599 335.37L234.829 344.74C235.566 345.22 236.178 345.866 236.618 346.627C237.058 347.388 237.312 348.242 237.359 349.12V350.35C237.359 351.96 236.219 352.62 234.819 351.82L218.609 342.56C217.87 342.085 217.255 341.441 216.813 340.681C216.371 339.921 216.117 339.067 216.069 338.19Z" fill="#E32764"></path>
<path opacity="0.2" d="M216.069 338.19V336.83C216.069 335.22 217.199 334.56 218.599 335.37L234.829 344.74C235.566 345.22 236.178 345.866 236.618 346.627C237.058 347.388 237.312 348.242 237.359 349.12V350.35C237.359 351.96 236.219 352.62 234.819 351.82L218.609 342.56C217.87 342.085 217.255 341.441 216.813 340.681C216.371 339.921 216.117 339.067 216.069 338.19Z" fill="white"></path>
<path d="M263.419 357.24C259.869 358.19 255.579 360.41 254.419 365.34C252.999 371.34 255.179 376.34 260.099 377.58C262.209 378.14 267.379 377.29 271.469 371.4C274.269 367.4 274.639 360.97 273.089 358.94C271.539 356.91 267.229 356.22 263.419 357.24Z" fill="#37474F"></path>
<path d="M265.34 363.93C265.342 364.702 265.115 365.458 264.687 366.101C264.259 366.743 263.65 367.245 262.937 367.541C262.224 367.838 261.439 367.916 260.682 367.766C259.924 367.615 259.228 367.244 258.682 366.698C258.136 366.152 257.765 365.456 257.614 364.698C257.464 363.941 257.542 363.156 257.839 362.443C258.135 361.73 258.637 361.121 259.28 360.693C259.922 360.265 260.678 360.038 261.45 360.04C262.481 360.043 263.469 360.453 264.198 361.182C264.927 361.911 265.337 362.899 265.34 363.93Z" fill="#E32764"></path>
<path d="M262.19 371.86C262.19 372.319 262.054 372.767 261.799 373.149C261.544 373.53 261.182 373.828 260.758 374.003C260.334 374.179 259.867 374.225 259.417 374.135C258.967 374.046 258.554 373.825 258.229 373.501C257.905 373.176 257.684 372.763 257.594 372.313C257.505 371.863 257.551 371.396 257.726 370.972C257.902 370.548 258.199 370.186 258.581 369.931C258.962 369.676 259.411 369.54 259.87 369.54C260.485 369.54 261.075 369.784 261.51 370.22C261.945 370.655 262.19 371.245 262.19 371.86Z" fill="#E32764"></path>
<path d="M192.42 336.62C191.64 337.79 189.83 337.76 187.75 335.25V331.11C187.75 330.43 187.75 329.73 187.75 329.11C187.75 328.49 187.81 327.83 187.87 327.19C188.013 324.444 188.348 321.71 188.87 319.01C189.08 317.79 189.31 316.62 189.63 315.45C191.727 317.392 193.078 320.006 193.45 322.84C193.88 327.57 193.5 335.13 192.42 336.62Z" fill="#37474F"></path>
<path d="M189.13 329C188.627 329.007 188.144 329.195 187.77 329.53C187.77 330.05 187.77 330.53 187.77 331.08V332.62C188.142 332.974 188.636 333.171 189.15 333.17C189.435 333.19 189.722 333.151 189.993 333.055C190.263 332.959 190.51 332.809 190.72 332.613C190.929 332.418 191.097 332.181 191.211 331.918C191.325 331.655 191.384 331.372 191.384 331.085C191.384 330.798 191.325 330.515 191.211 330.252C191.097 329.989 190.929 329.753 190.72 329.557C190.51 329.361 190.263 329.211 189.993 329.115C189.722 329.02 189.435 328.98 189.15 329H189.13Z" fill="#E32764"></path>
<path d="M191.93 323C191.933 324.079 191.518 325.117 190.773 325.897C190.027 326.676 189.008 327.136 187.93 327.18C188.073 324.433 188.407 321.7 188.93 319C189.792 319.259 190.548 319.787 191.088 320.506C191.628 321.226 191.923 322.1 191.93 323Z" fill="#E32764"></path>
<path d="M447.789 235.94C456.789 247.44 430.279 266.05 418.309 272.82C406.339 279.59 331.489 323 331.489 323C331.489 323 423.849 274.13 446.189 266C460.959 260.6 464.449 279 464.459 283.15V271.6C464.459 258.71 461.919 247.77 447.789 235.94Z" fill="#E32764"></path>
<path opacity="0.1" d="M447.789 235.94C456.789 247.44 430.279 266.05 418.309 272.82C406.339 279.59 331.489 323 331.489 323C331.489 323 423.849 274.13 446.189 266C460.959 260.6 464.449 279 464.459 283.15V271.6C464.459 258.71 461.919 247.77 447.789 235.94Z" fill="white"></path>
<path d="M301.14 365.2C303.383 362.516 305.976 360.145 308.85 358.15C311.756 356.134 315.049 354.741 318.52 354.06C320.283 353.805 322.076 353.835 323.83 354.15C325.577 354.52 327.229 355.249 328.68 356.29C331.469 358.478 333.459 361.526 334.34 364.96C333.224 361.676 331.13 358.811 328.34 356.75C326.923 355.812 325.342 355.151 323.68 354.8C322 354.531 320.289 354.531 318.61 354.8C315.229 355.438 312.01 356.743 309.14 358.64C306.238 360.524 303.555 362.724 301.14 365.2Z" fill="#E32764"></path>
<path d="M419 297.12C421.244 294.451 423.837 292.096 426.71 290.12C429.614 288.1 432.908 286.707 436.38 286.03C438.143 285.77 439.937 285.801 441.69 286.12C443.437 286.49 445.089 287.219 446.54 288.26C449.335 290.443 451.326 293.493 452.2 296.93C451.085 293.646 448.991 290.781 446.2 288.72C444.786 287.778 443.204 287.116 441.54 286.77C439.861 286.501 438.149 286.501 436.47 286.77C433.091 287.408 429.872 288.71 427 290.6C424.105 292.477 421.423 294.663 419 297.12Z" fill="#E32764"></path>
<path opacity="0.2" d="M337.229 363.11C348.176 356.09 359.269 349.327 370.509 342.82C376.099 339.52 381.709 336.25 387.379 333.09C393.049 329.93 398.669 326.66 404.379 323.6L403.999 324.21C404.491 320.456 405.501 316.788 406.999 313.31C408.432 309.837 410.54 306.683 413.199 304.03C410.862 306.891 409.06 310.15 407.879 313.65C406.672 317.101 405.899 320.689 405.579 324.33V324.72L405.229 324.93C399.699 328.35 394.069 331.58 388.469 334.87C382.869 338.16 377.229 341.38 371.569 344.56C360.249 351 348.803 357.184 337.229 363.11Z" fill="#101828"></path>
<path d="M457.74 246.6C459.57 251.6 454.74 258.89 455.53 265.93C456.32 272.97 461.86 273.46 464.25 265.93C465.33 258 459.53 247.69 457.74 246.6Z" fill="#FAFAFA"></path>
<path d="M196.199 304.24C200.013 297.094 204.691 290.444 210.129 284.44C211.301 283.311 212.829 282.626 214.452 282.502C216.074 282.378 217.689 282.823 219.019 283.76C237.43 296.706 256.969 307.968 277.399 317.41C278.076 317.729 278.682 318.181 279.181 318.738C279.68 319.296 280.062 319.948 280.305 320.655C280.547 321.363 280.645 322.112 280.592 322.859C280.54 323.605 280.338 324.333 279.999 325C276.578 332.491 273.931 340.312 272.099 348.34C271.966 349.059 271.673 349.739 271.242 350.329C270.811 350.919 270.252 351.404 269.608 351.749C268.963 352.094 268.249 352.289 267.519 352.321C266.789 352.352 266.061 352.219 265.389 351.93C239.899 341.77 217.179 329.04 197.909 313.15C196.687 312.058 195.858 310.594 195.549 308.984C195.24 307.374 195.469 305.708 196.199 304.24Z" fill="#263238"></path>
<path d="M267.369 350.3C266.955 350.296 266.544 350.215 266.159 350.06C240.089 339.66 217.569 326.73 199.229 311.61C198.364 310.819 197.776 309.771 197.553 308.62C197.33 307.469 197.483 306.277 197.989 305.22C201.718 298.219 206.3 291.706 211.629 285.83C212.061 285.402 212.575 285.067 213.141 284.845C213.707 284.624 214.312 284.52 214.919 284.54C215.959 284.531 216.978 284.838 217.839 285.42C236.355 298.428 255.996 309.753 276.529 319.26C276.957 319.45 277.34 319.726 277.657 320.07C277.973 320.414 278.216 320.819 278.369 321.26C278.696 322.224 278.627 323.277 278.179 324.19C274.69 331.807 271.992 339.762 270.129 347.93C270.012 348.582 269.674 349.174 269.171 349.606C268.668 350.038 268.032 350.283 267.369 350.3Z" fill="#455A64"></path>
<path d="M278.37 321.23C278.216 320.789 277.974 320.384 277.657 320.04C277.341 319.696 276.957 319.42 276.53 319.23C258.873 311.035 241.864 301.511 225.65 290.74L197.49 307C197.402 307.846 197.514 308.701 197.816 309.497C198.118 310.292 198.602 311.006 199.23 311.58C217.57 326.7 240.09 339.63 266.16 350.03C266.545 350.185 266.955 350.266 267.37 350.27C268.037 350.252 268.676 350.002 269.18 349.565C269.683 349.127 270.019 348.528 270.13 347.87C271.993 339.702 274.69 331.747 278.18 324.13C278.62 323.226 278.688 322.185 278.37 321.23Z" fill="#37474F"></path>
<path d="M186.29 344.8C187.13 348.73 199.98 361.28 221.29 373.11C242.6 384.94 260.39 394.51 271.16 393.99C281.93 393.47 295.57 384.41 295.57 384.41C295.57 384.41 292.94 392.41 292.81 396.02C292.81 396.02 281.6 403.1 272.32 403.8C266.19 404.26 258.24 405.46 221.01 383.97C196.31 369.7 188.79 361.9 186.01 355.63C184.59 352.45 184.65 347.78 184.69 345.7C184.84 338.65 187.84 337.96 187.84 337.96C186.4 339.26 185.45 340.86 186.29 344.8Z" fill="#E32764"></path>
<path opacity="0.3" d="M186.29 344.8C187.13 348.73 199.98 361.28 221.29 373.11C242.6 384.94 260.39 394.51 271.16 393.99C281.93 393.47 295.57 384.41 295.57 384.41C295.57 384.41 292.94 392.41 292.81 396.02C292.81 396.02 281.6 403.1 272.32 403.8C266.19 404.26 258.24 405.46 221.01 383.97C196.31 369.7 188.79 361.9 186.01 355.63C184.59 352.45 184.65 347.78 184.69 345.7C184.84 338.65 187.84 337.96 187.84 337.96C186.4 339.26 185.45 340.86 186.29 344.8Z" fill="#101828"></path>
<path d="M187.749 338C186.399 339.3 185.449 340.9 186.289 344.84C187.129 348.78 199.979 361.32 221.289 373.15C242.599 384.98 260.389 394.55 271.159 394.03C281.929 393.51 295.569 384.45 295.569 384.45L294.339 383.77C294.339 383.77 280.499 392.56 271.119 392.43C261.739 392.3 249.119 387.59 222.589 372.23C196.059 356.87 189.049 347.52 187.819 344.23L187.749 338Z" fill="#E32764"></path>
<path d="M412.149 289.79C413.385 289.326 414.458 288.51 415.236 287.444C416.014 286.378 416.464 285.108 416.529 283.79C416.859 280.79 416.659 277.47 412.029 274.33C407.399 271.19 403.859 272.33 402.029 273.12L412.149 289.79Z" fill="#455A64"></path>
<path d="M410.24 290.14C409.481 290.048 408.756 289.77 408.13 289.33L403.34 286.14C402.266 285.391 401.397 284.384 400.813 283.211C400.23 282.039 399.95 280.739 400 279.43L400.41 275.74C400.43 275.302 400.54 274.874 400.734 274.481C400.928 274.088 401.202 273.739 401.537 273.457C401.873 273.176 402.263 272.966 402.683 272.843C403.104 272.719 403.545 272.684 403.98 272.74C404.738 272.837 405.461 273.115 406.09 273.55L410.87 276.74C411.944 277.489 412.812 278.496 413.396 279.669C413.98 280.841 414.259 282.141 414.21 283.45L413.81 287.14C413.791 287.578 413.682 288.008 413.488 288.402C413.295 288.795 413.021 289.144 412.686 289.426C412.35 289.709 411.959 289.918 411.538 290.041C411.117 290.164 410.675 290.197 410.24 290.14Z" fill="#263238"></path>
<path d="M405.3 274.51L410.08 277.7C410.965 278.331 411.682 279.17 412.166 280.143C412.651 281.116 412.889 282.193 412.86 283.28L412.45 286.98C412.25 288.9 410.66 289.51 408.92 288.35L404.13 285.16C403.244 284.531 402.527 283.692 402.044 282.718C401.56 281.744 401.325 280.666 401.36 279.58L401.76 275.89C402 274 403.56 273.35 405.3 274.51Z" fill="#455A64"></path>
<g opacity="0.2">
<path opacity="0.2" d="M406.73 275.46L401.38 279.32L401.84 275.04L403.37 273.94C404.061 273.891 404.746 274.093 405.3 274.51L406.73 275.46Z" fill="white"></path>
<path opacity="0.2" d="M410.87 278.36L402.94 284.08C402.73 283.828 402.539 283.561 402.37 283.28L410.08 277.72C410.364 277.907 410.628 278.121 410.87 278.36Z" fill="white"></path>
<path opacity="0.2" d="M412.85 283.28L412.78 283.92L407.78 287.56L405.57 286.09L412.57 281.03C412.83 281.75 412.926 282.518 412.85 283.28Z" fill="white"></path>
</g>
<g opacity="0.2">
<path opacity="0.2" d="M296.69 324.89C296.98 331.02 297.02 337.18 297.44 343.29C297.74 346.29 297.96 349.46 299.24 352.17C299.48 352.846 299.902 353.441 300.46 353.892C301.017 354.342 301.689 354.628 302.4 354.72C303.881 354.619 305.329 354.228 306.66 353.57C309.539 352.449 312.493 351.53 315.5 350.82C318.525 350.055 321.678 349.943 324.75 350.49C327.831 351.145 330.556 352.928 332.39 355.49C334.103 358.059 335.352 360.909 336.08 363.91C335.232 360.962 333.878 358.184 332.08 355.7C330.273 353.241 327.612 351.547 324.62 350.95C321.622 350.457 318.553 350.611 315.62 351.4C312.656 352.147 309.746 353.092 306.91 354.23C306.18 354.48 305.52 354.8 304.72 355C304.341 355.129 303.953 355.23 303.56 355.3L302.33 355.36C301.511 355.25 300.738 354.917 300.096 354.396C299.453 353.876 298.967 353.189 298.69 352.41C297.36 349.51 297.22 346.36 296.95 343.31C296.56 337.18 296.69 331 296.69 324.89Z" fill="#101828"></path>
</g>
<g opacity="0.2">
<path opacity="0.2" d="M347.849 312.23C348.149 319.72 348.169 327.23 348.219 334.69L348.129 345.92C348.076 349.673 347.983 353.417 347.849 357.15C347.719 353.41 347.619 349.67 347.569 345.92L347.489 334.69C347.529 327.2 347.549 319.72 347.849 312.23Z" fill="#101828"></path>
</g>
<g opacity="0.2">
<path opacity="0.2" d="M398.509 283.13C398.809 290.59 398.839 298.05 398.879 305.51L398.789 316.7C398.789 320.43 398.649 324.16 398.509 327.89C398.379 324.16 398.279 320.43 398.229 316.7L398.149 305.51C398.189 298.05 398.209 290.59 398.509 283.13Z" fill="#101828"></path>
</g>
<path d="M312.46 336.51L319.38 332.56C320.78 331.76 321.92 331.88 321.92 332.83C321.92 333.78 320.78 335.19 319.38 335.99L312.46 339.94C311.06 340.74 309.92 340.62 309.92 339.67C309.92 338.72 311.06 337.31 312.46 336.51Z" fill="#37474F"></path>
<path d="M353.909 312.52L360.829 308.57C362.229 307.77 363.359 307.89 363.359 308.84C363.359 309.79 362.229 311.19 360.829 311.99L353.909 315.99C352.509 316.78 351.369 316.67 351.369 315.72C351.369 314.77 352.509 313.32 353.909 312.52Z" fill="#37474F"></path>
<path d="M451.109 168.52C451.122 174.187 448.976 179.647 445.109 183.79L443.259 185.55C438.995 189.21 433.507 191.127 427.891 190.918C422.275 190.708 416.945 188.388 412.965 184.421C408.985 180.453 406.648 175.13 406.421 169.515C406.193 163.9 408.093 158.406 411.739 154.13L413.509 152.28C416.68 149.292 420.656 147.298 424.946 146.544C429.237 145.79 433.654 146.308 437.654 148.035C441.653 149.762 445.059 152.622 447.452 156.262C449.845 159.902 451.12 164.164 451.119 168.52H451.109Z" fill="white"></path>
<path d="M428.74 144.32C422.659 144.316 416.798 146.599 412.322 150.716C407.846 154.833 405.082 160.483 404.578 166.543C404.075 172.603 405.868 178.632 409.603 183.431C413.338 188.23 418.741 191.45 424.74 192.45L427.48 199.45C427.58 199.716 427.759 199.945 427.993 200.107C428.227 200.269 428.505 200.356 428.79 200.356C429.074 200.356 429.352 200.269 429.586 200.107C429.82 199.945 429.999 199.716 430.1 199.45L432.81 192.45C438.804 191.435 444.198 188.204 447.921 183.397C451.644 178.591 453.424 172.56 452.908 166.503C452.392 160.445 449.617 154.803 445.135 150.695C440.652 146.588 434.79 144.316 428.71 144.33L428.74 144.32ZM451.11 168.52C451.122 174.187 448.977 179.647 445.11 183.79L443.26 185.55C438.995 189.21 433.507 191.127 427.891 190.917C422.276 190.708 416.945 188.388 412.965 184.421C408.985 180.453 406.648 175.13 406.421 169.515C406.194 163.9 408.093 158.406 411.74 154.13L413.51 152.28C416.68 149.292 420.656 147.298 424.947 146.544C429.237 145.79 433.655 146.308 437.654 148.035C441.653 149.762 445.06 152.622 447.453 156.262C449.846 159.902 451.12 164.164 451.12 168.52H451.11Z" fill="#455A64"></path>
<path opacity="0.7" d="M451.109 168.52C451.122 174.187 448.976 179.647 445.109 183.79L443.259 185.55C438.995 189.21 433.507 191.127 427.891 190.918C422.275 190.708 416.945 188.388 412.965 184.421C408.985 180.453 406.648 175.13 406.421 169.515C406.193 163.9 408.093 158.406 411.739 154.13L413.509 152.28C416.68 149.292 420.656 147.298 424.946 146.544C429.237 145.79 433.654 146.308 437.654 148.035C441.653 149.762 445.059 152.622 447.452 156.262C449.845 159.902 451.12 164.164 451.119 168.52H451.109Z" fill="white"></path>
<path d="M425.78 180.62C425.341 180.622 424.906 180.535 424.502 180.363C424.098 180.191 423.733 179.938 423.43 179.62L416.14 171.84C415.839 171.533 415.603 171.17 415.445 170.771C415.286 170.372 415.209 169.945 415.218 169.516C415.228 169.087 415.322 168.664 415.497 168.272C415.672 167.88 415.924 167.526 416.237 167.233C416.551 166.94 416.919 166.712 417.322 166.563C417.725 166.414 418.153 166.348 418.582 166.367C419.011 166.386 419.432 166.491 419.82 166.675C420.207 166.859 420.554 167.119 420.84 167.44L425.57 172.5L436.78 158.3C437.311 157.63 438.085 157.199 438.934 157.1C439.783 157.002 440.636 157.244 441.305 157.775C441.975 158.305 442.406 159.08 442.505 159.929C442.603 160.777 442.361 161.63 441.83 162.3L428.3 179.4C428.014 179.761 427.653 180.057 427.242 180.268C426.832 180.478 426.381 180.598 425.92 180.62H425.78Z" fill="#E32764"></path>
</svg>
