<svg width="500" height="500" fill="none" xmlns="http://www.w3.org/2000/svg"><path d="M493.72 331.54c0-36-23.78-72-71.38-99.52a266.72 266.72 0 0 0-38.34-18.1v-9c-94.59-36-223-30-306.29 18.09C26.1 252.78 2.49 292.58 6.8 331.54v2.14a80.374 80.374 0 0 0-.48 8.63c0 27 13.35 53.94 40 77.32a196.773 196.773 0 0 0 31.34 22.18c95.18 54.94 249.5 54.94 344.68 0 47.59-27.48 71.38-63.49 71.38-99.5v-10.77Z" fill="#E0E0E0"/><path d="M422.34 431c-95.18 55-249.5 55-344.68 0a196.745 196.745 0 0 1-31.34-22.17L384 213.92c13.24 5 26.06 11.045 38.34 18.08 95.18 55 95.18 144.05 0 199Z" fill="#EBEBEB"/><path d="M384 204.92 46.32 399.84C-16 345.23-5.56 271.07 77.66 223c83.22-48.07 211.7-54.07 306.34-18.08Z" fill="#F5F5F5"/><path d="M383.95 213.92v-9L46.32 399.84v9l337.63-194.92Z" fill="#E0E0E0"/><path opacity=".05" d="M383.95 213.92v-9L46.32 399.84v9l337.63-194.92Z" fill="#101828"/><path d="m175.16 401.78-8.76-5.06a3.833 3.833 0 0 0-3.46 0l-57.44 33.2a1.061 1.061 0 0 0 0 2l8.72 5a3.862 3.862 0 0 0 3.47 0l57.47-33.18a1.054 1.054 0 0 0 .656-.98 1.06 1.06 0 0 0-.656-.98ZM125.82 443.65l8.72 5a3.77 3.77 0 0 0 3.46 0l57.47-33.18c1-.55 1-1.44 0-2l-8.75-5.05a3.862 3.862 0 0 0-3.47 0l-57.43 33.2c-.96.58-.96 1.47 0 2.03ZM134.53 378.32l-8.75-5.05a3.859 3.859 0 0 0-3.47 0l-57.43 33.19c-1 .56-1 1.45 0 2l8.72 5a3.837 3.837 0 0 0 3.46 0l57.47-33.18a1.048 1.048 0 0 0 .673-.98 1.047 1.047 0 0 0-.673-.98ZM276.72 460.42l-8.72-5.06a3.862 3.862 0 0 0-3.47 0L235.77 472c8 .27 16.13.31 24.19.12l16.76-9.67c.96-.59.96-1.45 0-2.03ZM236.09 439a1.048 1.048 0 0 0 .528-1.619 1.048 1.048 0 0 0-.528-.381l-8.75-5a3.795 3.795 0 0 0-3.46 0l-55.68 32.09a399.27 399.27 0 0 0 18.59 3.34l49.3-28.43ZM146.13 455.38l8.72 5a3.823 3.823 0 0 0 3.46 0l57.47-33.18a1.048 1.048 0 0 0 .528-1.619 1.048 1.048 0 0 0-.528-.381l-8.78-5.02a3.836 3.836 0 0 0-3.46 0l-57.44 33.19a1.062 1.062 0 0 0-.499 1.632c.132.178.317.311.529.378ZM256.41 450.69a1.061 1.061 0 0 0 0-2l-8.76-5.05a3.773 3.773 0 0 0-3.46 0l-44.27 25.58c6.93.84 13.92 1.51 20.93 2l35.56-20.53ZM85.19 420.19l8.72 5a3.858 3.858 0 0 0 3.47 0l57.46-33.18a1.048 1.048 0 0 0 .528-1.619 1.048 1.048 0 0 0-.528-.381l-8.75-5.01a3.773 3.773 0 0 0-3.46 0l-57.44 33.19a1.05 1.05 0 0 0 0 2Z" fill="#FAFAFA"/><path opacity=".1" d="M387.58 257.81c-9 1.73-23.19 7.12-31.71 12l-164.53 95c-8.52 4.92-8.52 12.89 0 17.81l74.07 42.77c8.52 4.92 22.34 4.92 30.86 0l164.54-95c8.52-4.92 17.86-13.11 20.85-18.3 2.99-5.19-1.48-13.39-10-18.31l-52.36-30.2c-8.53-4.92-22.72-7.5-31.72-5.77Z" fill="#101828"/><path d="m351.09 219.37-62-35.75a421.83 421.83 0 0 0-78.82.06l-91.39 52.84L220.3 295l130.79-75.63ZM69.04 382.74l-36.2-20.9 74.53-43.03 36.19 20.9-74.52 43.03Z" fill="#EBEBEB"/><path d="M454.171 81c0-3.7-4.05-6.27-8.64-6.7-5.4-.51-9.24 1.9-9.36 6.16-3.54-1.45-7.26-.52-7 3.36-.92-1.06-4.36-1-5.6-.73a4.808 4.808 0 0 0-3.07 2.62 3.477 3.477 0 0 0-.32 2c-2.06-.68-6.75-1.09-7.92.8-2.06 3.39 6.27 3.49 7.95 2.49.35 2.62 9.31 3.05 11.47.63 1.7 1.71 4.13 2.09 6.76 2.24 4.43.27 7.14-1.24 10.6-3 3.75 3.19 10.26 3.24 13.64-.4.86.81 3.24 1.07 5.15.61 1.25-.3 1.54-.83 1.54-.83.738.316 1.51.547 2.3.69 2.45.51 7 0 5.11-2.24-.66-.75-3-1.23-4.06-1-1.07-2.11-5.37-4.1-7.84-2.32-.1-2.55-2.43-4.55-5.71-5.06-1.1-.18-3.75-.32-5 .68ZM439.77 52a8.386 8.386 0 0 0-2.83-.52c-.91-.07-1.2-.25-1.38-.45a6.725 6.725 0 0 0-8.09-2.4 5.178 5.178 0 0 0-6.11-3.45c.1-2.84-3.54-5.9-6.8-6.6-3.26-.7-5.87-.39-7.65 1.67-1.92-3.73-9.41-4.78-13.47-2.81-2.34 1.14-4.32 2.31-5.28 4.44a8.957 8.957 0 0 0-.88 4.26 7.457 7.457 0 0 0-6.86-1c-2.28.88-2.45 2.6-2.57 4.34a8 8 0 0 0-4.14-.07c-1.44.43-2.26 1.55-2.07 2.46-1.13-.06-3.84.86-3.53 2.05.35 1.35 3.44 1.21 4.6 1.17a20.22 20.22 0 0 0 3.22-.51 4.786 4.786 0 0 0 1.68.32c2 0 2.8-.85 3.12-1.58 1 2 4.37 3.56 6.79 4.17 4.55 1.17 11 .46 13.78-2.94.33.641.793 1.204 1.36 1.65a7.744 7.744 0 0 0 4.2 1.7c1.87.18 6.88.42 8.29-2.55 1 2 5.46 2.87 8.86 2.39a13.665 13.665 0 0 0 3.79-1.15c.76-.38 1.495-.808 2.2-1.28a1.826 1.826 0 0 1 1.86-.12c2.397.85 5.014.85 7.41 0 1.88-.81 2.28-2.39.5-3.19Z" fill="#F0F0F0"/><path d="M351.6 152.39c.996-.099 2 .081 2.9.52a29.65 29.65 0 0 1 4.72 3.34 9.444 9.444 0 0 0 5.23 2.26c1.93.07 4-1.13 4.37-3 .019-.345.101-.684.24-1a1.41 1.41 0 0 1 1.65-.42 8.606 8.606 0 0 1 1.59.91c1.95 1.16 4.4.89 6.64.57 1.87-.27 4.23-1.1 4.22-3 0-1.23-1.08-2.13-1.92-3-.84-.87-1.54-2.32-.77-3.28a2.274 2.274 0 0 1 1.08-.66c2.34-.76 5.19.25 7.17-1.21a4.122 4.122 0 0 0 1-4.94 6.262 6.262 0 0 0-4.2-3.2c-1.57-.4-3.56-.59-4.15-2.1-.51-1.32.52-2.75 1.68-3.56s2.56-1.38 3.37-2.55a4.005 4.005 0 0 0 .11-4.17 5.085 5.085 0 0 0-3.52-2.42 7.596 7.596 0 0 1-2.13-.47 1.407 1.407 0 0 1-.79-1.79c.21-.39.66-.59.91-1 .194-.382.236-.822.119-1.233a1.696 1.696 0 0 0-.749-.987 8.768 8.768 0 0 0-2.38-.91c-1.7-.56-3.34-2.21-2.84-3.92s3-2.36 3.68-4.07c.64-1.51-.37-3.28-1.73-4.21a31.778 31.778 0 0 0-4.5-2c-1.57-.74-2.66-1.74-2.2-3.61.24-1 .76-1.82 1.07-2.76a5.527 5.527 0 0 0-1.25-5.7c-1.11-1-2.71-1.5-3.69-2.66a5.43 5.43 0 0 1-1.07-2.38c-.17-.73-.25-1.47-.46-2.18a6.339 6.339 0 0 0-5.12-4.39c-3.05-.41-5.38 1.44-6.58 4.05a5.482 5.482 0 0 1-2.26 2.43c-1.76 1-4.09 1-5.37 2.56a3.873 3.873 0 0 0-.79 2.76 6.296 6.296 0 0 0 1 2.76c.68 1.13 1.4 2 .71 3.33-1.15 2.15-1.9 2.14-4.21 2.14-1.67 0-3.06-.09-4.28 1.17-2.15 2.22-.87 4.24 1 6 2.17 2 1 2.8.73 5.33-.13 1.22.14 1.59-.94 2.4-2.06 1.52-3.21 1-2.63 4 .53 2.72-.28 1.79-2.65 2.8-2.09.91-3.48 3.16-5.18 4.57-1.09.91-2.75 1.61-2.85 3.2-.2 3 3.58 2.37 5.38 3.1 2.94 1.19 2.06 5-.23 6.48-2.29 1.48-6 2.09-6.17 5.58-.15 2.67 1.37 3.26 3.44 4.15 1.66.72 1.45.92 1.45 2.9 0 4 1.34 5.11 5.26 4.46 1.08-.18 2.72-.63 3.79-.31 1.5.45 1 .82 1 2.08.1 3.21 3.85 2.31 5.43.93 1.9-1.61 4.2-3.45 6.67-3.69Z" fill="#E32764"/><path opacity=".15" d="M381.55 145.61c1.8-.59 3.89-.13 5.67-.54a21.23 21.23 0 0 0-3.18-.5 8.995 8.995 0 0 0-6.84 2.71 6.172 6.172 0 0 1 1.37 4.11c-4.44 1.21-8.83-4.76-13.06-2.94.25 2.15 0 5-2.09 5.52a3.436 3.436 0 0 1-1.841-.321 3.44 3.44 0 0 1-1.399-1.239c-.76-1-1.23-2.21-2-3.22a6.812 6.812 0 0 0-9.05-1.31c-1.15.83-2.59 2.09-3.73 1.26-1.14-.83-.49-3.32-1.85-4-.9-.46-2.17.26-2.93-.41a2.082 2.082 0 0 1-.52-1.11c-.53-2.27-1-4.9.43-6.75 1.27-1.64 4-2.65 3.68-4.71-.25-1.76-2.49-2.3-4.25-2.5-1.76-.2-4-1-3.92-2.82.08-1.82 2.45-2.58 2.8-4.29.15-.73-.1-1.54.23-2.21.51-1 1.94-1 2.78-1.79 1.52-1.33.34-3.83.77-5.8.31-1.4 1.43-2.49 1.81-3.87.74-2.75-1.76-5.37-4.38-6.49a15.818 15.818 0 0 1-3-1.38L337 101a5.396 5.396 0 0 0 2.15 3.44c2.17 2 1 2.8.73 5.33-.13 1.22.14 1.59-.94 2.4-2.06 1.52-3.21 1-2.63 4 .53 2.72-.28 1.79-2.65 2.8-2.09.91-3.48 3.16-5.18 4.57-1.09.91-2.75 1.61-2.85 3.2-.2 3 3.58 2.37 5.38 3.1 2.94 1.19 2.06 5-.23 6.48-2.29 1.48-6 2.09-6.17 5.58-.15 2.67 1.37 3.26 3.44 4.15 1.66.72 1.45.92 1.45 2.9 0 4 1.34 5.11 5.26 4.46 1.08-.18 2.72-.63 3.79-.31 1.5.45 1 .82 1 2.08.1 3.21 3.85 2.31 5.43.93 1.83-1.59 4.13-3.43 6.6-3.67.996-.099 2 .081 2.9.52a29.715 29.715 0 0 1 4.72 3.34 9.44 9.44 0 0 0 5.23 2.26c1.93.07 4-1.13 4.37-3 .019-.345.1-.684.24-1a1.412 1.412 0 0 1 1.65-.42 8.79 8.79 0 0 1 1.59.91c1.95 1.16 4.4.89 6.64.57 1.87-.27 4.23-1.1 4.22-3 0-1.23-1.08-2.13-1.92-3-.84-.87-1.54-2.32-.77-3.28.286-.346.669-.6 1.1-.73Z" fill="#101828"/><path d="m345.48 119.58 10.72 21.25v-9.78l1.09-41.64 1.58 41.64v6.58L370.65 117l-11.78 25.27v70.4a.644.644 0 0 1-.39.54 2.007 2.007 0 0 1-1.89 0 .662.662 0 0 1-.39-.54v-66.42l-10.72-26.67ZM69.13 301a11.488 11.488 0 0 1 10.37 0 3.16 3.16 0 0 1 0 6 11.476 11.476 0 0 1-10.37 0 3.158 3.158 0 0 1-1.569-4.85 3.16 3.16 0 0 1 1.57-1.15Z" fill="#263238"/><path d="M80.05 266.71a2.84 2.84 0 0 0-1.68-2.34 8.897 8.897 0 0 0-8.1 0 2.845 2.845 0 0 0-1.68 2.34v36.5a2.851 2.851 0 0 0 1.68 2.34 9 9 0 0 0 8.1 0 2.854 2.854 0 0 0 1.68-2.34v-36.5Z" fill="#37474F"/><path d="M70.27 264.37a8.897 8.897 0 0 1 8.1 0 2.467 2.467 0 0 1 1.68 2.34 2.47 2.47 0 0 1-1.68 2.34 9 9 0 0 1-8.1 0 2.472 2.472 0 0 1-1.216-3.78c.301-.42.727-.735 1.216-.9Z" fill="#455A64"/><path d="M74.32 267.17a.931.931 0 0 1-.93-.93v-211a.93.93 0 0 1 1.86 0v211a.931.931 0 0 1-.93.93Z" fill="#263238"/><path d="M74.32 103a.926.926 0 0 1-.86-.574.932.932 0 0 1-.07-.356c0-8.13-8.49-21.81-22.2-29.73L43.64 68a.922.922 0 0 1 .226-1.699.94.94 0 0 1 .704.089l7.55 4.36C66.41 79 75.25 93.4 75.25 102.05a.929.929 0 0 1-.93.95Z" fill="#263238"/><path d="M42.19 60.59 38 57.69c-3.33-2.32-8.69-2.65-12-.75-1.52.88-2.27 2-2.27 3.06v2.34c0 1.26 1 2.51 2.95 3.41l6.58 3c3.68 1.69 8.51 2 10.78.69a2.3 2.3 0 0 0 1.25-2v-2.32c.08-1.4-1.02-3.12-3.1-4.53Z" fill="#455A64"/><path d="M44.1 69.47c2.28-1.32 1.42-4.26-1.91-6.57L38 60c-3.33-2.31-8.69-2.65-12-.75-3.31 1.9-3 4.82.71 6.51l6.58 3c3.71 1.71 8.54 2.02 10.81.71Z" fill="#263238"/><path d="M44.38 67.46a1.36 1.36 0 0 1-.77 1.14 7.18 7.18 0 0 1-3.42.68 16.269 16.269 0 0 1-6.45-1.41l-6.58-3c-1.49-.68-2.36-1.58-2.4-2.46-.04-.88.59-1.59 1.77-2.27A9.46 9.46 0 0 1 31.18 59a11.25 11.25 0 0 1 6.27 1.8l4.17 2.91c1.72 1.2 2.8 2.67 2.76 3.75Z" fill="#E32764"/><path opacity=".9" d="M44.38 67.46a1.36 1.36 0 0 1-.77 1.14 7.18 7.18 0 0 1-3.42.68 16.269 16.269 0 0 1-6.45-1.41l-6.58-3c-1.49-.68-2.36-1.58-2.4-2.46-.04-.88.59-1.59 1.77-2.27A9.46 9.46 0 0 1 31.18 59a11.25 11.25 0 0 1 6.27 1.8l4.17 2.91c1.72 1.2 2.8 2.67 2.76 3.75Z" fill="#fff"/><path opacity=".2" d="M27.88 64.33a6.84 6.84 0 0 0 6.17 0c1.71-1 1.71-2.58 0-3.56a6.78 6.78 0 0 0-6.17 0c-1.7.98-1.7 2.57 0 3.56ZM36.68 67.08a3.9 3.9 0 0 0 3.49 0 1.06 1.06 0 0 0 0-2 3.901 3.901 0 0 0-3.49 0 1.071 1.071 0 0 0 0 2Z" fill="#E32764"/><path d="M74.32 86.73a.93.93 0 0 0 .93-.93c0-8.13 8.48-21.81 22.19-29.72l7.561-4.36a.944.944 0 0 0 .34-1.27.915.915 0 0 0-.564-.437.92.92 0 0 0-.706.097l-7.56 4.36C82.23 62.72 73.39 77.15 73.39 85.8a.92.92 0 0 0 .93.93Z" fill="#263238"/><path d="m106.44 44.35 4.18-2.91c3.32-2.31 8.69-2.65 12-.75 1.53.88 2.27 2 2.27 3.07v2.33c0 1.26-1 2.51-2.95 3.42l-6.58 3c-3.69 1.69-8.51 2-10.79.69a2.284 2.284 0 0 1-1.25-2v-2.32c-.05-1.4 1.04-3.09 3.12-4.53Z" fill="#455A64"/><path d="M104.53 53.22c-2.27-1.31-1.42-4.25 1.91-6.57l4.18-2.9c3.32-2.32 8.69-2.65 12-.75 3.31 1.9 3 4.81-.7 6.51l-6.58 3c-3.71 1.71-8.53 2.02-10.81.71Z" fill="#263238"/><path d="M104.261 51.22a1.359 1.359 0 0 0 .77 1.14 7.18 7.18 0 0 0 3.42.68 16.27 16.27 0 0 0 6.45-1.41l6.58-3c1.49-.68 2.36-1.58 2.4-2.46.04-.88-.59-1.59-1.77-2.27a9.46 9.46 0 0 0-4.65-1.1 11.249 11.249 0 0 0-6.27 1.8l-4.19 2.88c-1.7 1.19-2.78 2.66-2.74 3.74Z" fill="#E32764"/><path opacity=".9" d="M104.261 51.22a1.359 1.359 0 0 0 .77 1.14 7.18 7.18 0 0 0 3.42.68 16.27 16.27 0 0 0 6.45-1.41l6.58-3c1.49-.68 2.36-1.58 2.4-2.46.04-.88-.59-1.59-1.77-2.27a9.46 9.46 0 0 0-4.65-1.1 11.249 11.249 0 0 0-6.27 1.8l-4.19 2.88c-1.7 1.19-2.78 2.66-2.74 3.74Z" fill="#fff"/><path opacity=".2" d="M120.751 48.08a6.782 6.782 0 0 1-6.17 0c-1.7-1-1.7-2.58 0-3.56a6.837 6.837 0 0 1 6.17 0c1.71.98 1.71 2.58 0 3.56ZM112 50.83a3.837 3.837 0 0 1-3.49 0 1.06 1.06 0 0 1 0-2 3.845 3.845 0 0 1 3.49 0c.92.54.92 1.44 0 2Z" fill="#E32764"/><path d="m223.1 289.07-87.13-50.4V93.45l87.13 50.37v145.25Z" fill="#E0E0E0"/><path d="m223.6 144.11 116.28-67.26v144.18L223.6 288.2V144.11Z" fill="#FAFAFA"/><path d="M339.37 77.71v143L224.1 287.33V144.4l115.27-66.69Zm1-1.73L223.1 143.82v145.25l117.27-67.75V75.98Z" fill="#E0E0E0"/><path d="M238.22 171.22v56.74l86.94-50.19v-56.74l-86.94 50.19Z" fill="#37474F"/><path d="m325.16 121.03-8.98 5.18v46.36l8.98 5.2v-56.74Z" fill="#263238"/><path d="m238.22 227.96 7.56 4.37 86.94-50.2-7.56-4.36-86.94 50.19ZM238.22 217.57v10.39l86.94-50.19-8.98-5.2-77.96 45Z" fill="#455A64"/><path d="M245.78 236.69v-4.36l-7.56-4.37v4.37l7.56 4.36Z" fill="#263238"/><path d="M332.72 182.13v4.37l-86.94 50.19v-4.36l86.94-50.2Z" fill="#37474F"/><path opacity=".1" d="m139.87 95.7-3.9 2.25v10.63l87.13 50.38 117.27-67.85v-7.08L333.4 80l-6.13 3.55 6.97 4.02-111.14 64.3-84.06-48.6 6.97-4.03-6.14-3.54Z" fill="#101828"/><path d="M252.46 28.85v7.08l75.64 43.59 6.14-3.54-81.78-47.13Z" fill="#E32764"/><path opacity=".6" d="M252.46 28.85v7.08l75.64 43.59 6.14-3.54-81.78-47.13Z" fill="#fff"/><path opacity=".15" d="M252.46 28.85v7.08l75.64 43.59 6.14-3.54-81.78-47.13Z" fill="#101828"/><path d="m223.1 147.37-94.05-54.24v7.08l94.05 54.24v-7.08Z" fill="#E32764"/><path opacity=".6" d="m223.1 147.37-94.05-54.24v7.08l94.05 54.24v-7.08Z" fill="#fff"/><path d="m258.59 25.3-6.13-3.54-123.41 71.36 94 54.25L346.51 76l-87.92-50.7ZM223 140.24l-81.68-47.12 111.14-64.27L334.24 76 223 140.24Z" fill="#E32764"/><path opacity=".9" d="m258.59 25.3-6.13-3.54-123.41 71.36 94 54.25L346.51 76l-87.92-50.7ZM223 140.24l-81.68-47.12 111.14-64.27L334.24 76 223 140.24Z" fill="#fff"/><path d="M346.51 75.98v7.08L223.1 154.45v-7.08l123.41-71.39Z" fill="#E32764"/><path opacity=".75" d="M346.51 75.98v7.08L223.1 154.45v-7.08l123.41-71.39Z" fill="#fff"/><path d="M252.459 28.85v7.08l-105 60.74-6.14-3.55 111.14-64.27Z" fill="#E32764"/><path opacity=".75" d="M252.459 28.85v7.08l-105 60.74-6.14-3.55 111.14-64.27Z" fill="#fff"/><path d="m252.46 35.93 75.64 43.59-105.09 60.72-75.55-43.57 105-60.74Z" fill="#E32764"/><path opacity=".2" d="m252.46 35.93 75.64 43.59-105.09 60.72-75.55-43.57 105-60.74Z" fill="#101828"/><path opacity=".1" d="m323.16 82.38-77.25-42.67 6.55-10.86 81.78 47.13-11.08 6.4Z" fill="#101828"/><path d="m230.819 101.18 78.1-45.18a1.292 1.292 0 0 1 1.29-.13l3.09 1.79a1.298 1.298 0 0 1 .52 1.18V81a4.05 4.05 0 0 1-1.82 3.13l-78.1 45.17a1.257 1.257 0 0 1-1.29.12l-3.07-1.77a1.297 1.297 0 0 1-.54-1.19v-22.1a4.085 4.085 0 0 1 1.82-3.18Z" fill="#F0F0F0"/><path d="M233.88 129.3a1.257 1.257 0 0 1-1.29.12l-3.07-1.77a1.297 1.297 0 0 1-.54-1.19v-22.1a3.74 3.74 0 0 1 .54-1.8l3.06 1.77 20.13 14.09-18.83 10.88Z" fill="#E0E0E0"/><path d="m312.95 56.252-78.12 45.21a4.059 4.059 0 0 0-1.83 3.18v22.1c0 1.17.82 1.64 1.83 1.06l78.12-45.21a4.053 4.053 0 0 0 1.82-3.13v-22.15c0-1.17-.82-1.65-1.82-1.06Z" fill="#FAFAFA"/><path d="M232.26 160.37v-11.29l22.81 24.45-22.81-13.16Z" fill="#E0E0E0"/><path d="M342.999 128.42a10.76 10.76 0 0 1-4.86 8.42h-.05c-2.69 1.55-4.86.29-4.86-2.81v-5.67l9.77-5.64v5.7ZM323.48 139.7a10.723 10.723 0 0 1-4.86 8.42h-.05c-2.68 1.55-4.86.3-4.86-2.8v-5.67l9.77-5.65v5.7ZM303.94 151a10.76 10.76 0 0 1-4.86 8.42h-.05c-2.69 1.55-4.87.29-4.87-2.81V151l9.78-5.64V151ZM284.39 162.27a10.762 10.762 0 0 1-4.86 8.43c-2.69 1.55-4.86.3-4.86-2.8v-5.67l9.77-5.65-.05 5.69ZM264.84 173.56a10.722 10.722 0 0 1-1.409 4.8A10.722 10.722 0 0 1 260 182h-.05c-2.68 1.55-4.86.29-4.86-2.81v-5.67l9.77-5.64-.02 5.68Z" fill="#EBEBEB"/><path d="m255.07 173.53 97.73-56.42-22.81-24.45-97.73 56.42 22.81 24.45Z" fill="#FAFAFA"/><path d="m264.84 167.89-22.81-24.45 9.78-5.64 22.81 24.45-9.78 5.64ZM284.39 156.6l-22.81-24.44 9.77-5.65 22.81 24.45-9.77 5.64ZM303.93 145.32l-22.8-24.45 9.77-5.64 22.81 24.45-9.78 5.64ZM323.48 134.03l-22.81-24.45 9.78-5.64 22.81 24.45-9.78 5.64ZM343.03 122.75 320.22 98.3l9.77-5.64 22.81 24.45-9.77 5.64Z" fill="#E32764"/><path d="M352.8 122.78a10.735 10.735 0 0 1-4.86 8.42h-.05c-2.68 1.55-4.86.29-4.86-2.81v-5.67l9.77-5.65v5.71ZM333.26 134.06a10.76 10.76 0 0 1-4.86 8.42c-2.69 1.55-4.87.29-4.87-2.81V134l9.78-5.64-.05 5.7ZM313.709 145.35a10.76 10.76 0 0 1-4.86 8.42h-.05c-2.69 1.55-4.86.29-4.86-2.81v-5.67l9.77-5.65v5.71ZM294.16 156.63a10.736 10.736 0 0 1-4.86 8.42h-.05c-2.68 1.55-4.86.3-4.86-2.81v-5.64l9.77-5.64v5.67ZM274.62 167.92a10.773 10.773 0 0 1-4.86 8.42h-.05c-2.69 1.55-4.87.29-4.87-2.81v-5.67l9.78-5.64v5.7Z" fill="#E32764"/><g opacity=".2" fill="#101828"><path opacity=".2" d="M352.8 122.78a10.735 10.735 0 0 1-4.86 8.42h-.05c-2.68 1.55-4.86.29-4.86-2.81v-5.67l9.77-5.65v5.71ZM333.26 134.06a10.76 10.76 0 0 1-4.86 8.42c-2.69 1.55-4.87.29-4.87-2.81V134l9.78-5.64-.05 5.7ZM313.709 145.35a10.76 10.76 0 0 1-4.86 8.42h-.05c-2.69 1.55-4.86.29-4.86-2.81v-5.67l9.77-5.65v5.71ZM294.16 156.63a10.736 10.736 0 0 1-4.86 8.42h-.05c-2.68 1.55-4.86.3-4.86-2.81v-5.64l9.77-5.64v5.67ZM274.62 167.92a10.773 10.773 0 0 1-4.86 8.42h-.05c-2.69 1.55-4.87.29-4.87-2.81v-5.67l9.78-5.64v5.7Z"/></g><g opacity=".1" fill="#101828"><path opacity=".1" d="m264.84 167.89-22.81-24.45 9.78-5.64 22.81 24.45-9.78 5.64ZM284.39 156.6l-22.81-24.44 9.77-5.65 22.81 24.45-9.77 5.64ZM303.93 145.319l-22.8-24.45 9.77-5.64 22.81 24.45-9.78 5.64ZM323.48 134.029l-22.81-24.45 9.78-5.64 22.81 24.45-9.78 5.64ZM343.031 122.75l-22.81-24.45 9.77-5.64 22.81 24.45-9.77 5.64Z"/></g><path opacity=".15" d="m313.409 190.76-11.17-6.45a.546.546 0 0 1-.336-.5.54.54 0 0 1 .336-.5l6.66-3.86a1.99 1.99 0 0 1 1.76 0l11.17 6.45a.535.535 0 0 1 .336.5.543.543 0 0 1-.336.5l-6.66 3.86a2.003 2.003 0 0 1-1.76 0Z" fill="#101828"/><path d="m314.579 180.57-.15.09a.133.133 0 0 0-.042.043.141.141 0 0 0-.018.057v1.8l6.46 3.67.26-1.93-6.51-3.73Z" fill="#263238"/><path d="m321.049 184.3-.16.09-6.46-3.73.15-.09 6.47 3.73Z" fill="#455A64"/><path d="m320.999 184.3-.16.09a.13.13 0 0 0-.042.042.146.146 0 0 0-.018.058v1.74l.27.15v-2s-.05-.1-.05-.08Z" fill="#37474F"/><path d="M320.799 186.23v.11l-.41.18-6.46-3.73.4-.23 6.47 3.67Z" fill="#101828"/><path d="m320.529 186.759.48-.28a.12.12 0 0 0 .038-.043.123.123 0 0 0 .012-.056l-.27-.151a.154.154 0 0 1-.014.056.14.14 0 0 1-.036.044l-.16.081h-.05v.349Z" fill="#37474F"/><path d="m320.509 184.61-.64.35a.268.268 0 0 0 0 .08v2.07l-6.46-3.73v-2a.133.133 0 0 1 .015-.055.128.128 0 0 1 .035-.045l.56-.32 6.49 3.65Z" fill="#263238"/><path opacity=".5" d="m320.508 184.61-5.91-3.41-.27-.16-.28-.16h-.05l-.56.32v.05l6.47 3.71.6-.35Z" fill="#37474F"/><path d="M319.869 185a.215.215 0 0 0 0 .08v2h.06l.62-.35v-2.11l-.68.38Z" fill="#37474F"/><path d="m319.919 187.11.08-.11a.633.633 0 0 0 .14-.4v-1.73a.506.506 0 0 0 0-.11h-.05a.268.268 0 0 1 0 .08v1.73a.792.792 0 0 1-.17.54Z" fill="#263238"/><path d="M312.669 178.91a9.562 9.562 0 0 0-.86-.55l-2.59-1.49a.642.642 0 0 0-.57 0l-5.23 3a.63.63 0 0 0-.29.5v3.16a.647.647 0 0 0 .29.5l10.58 6.14a.599.599 0 0 0 .58 0l5.22-3a.652.652 0 0 0 .29-.5v-1.78a.56.56 0 0 0-.22-.45c-1.17-.92-6.87-5.25-7.2-5.53Z" fill="#455A64"/><path d="M319.899 184.43c-1.34-1-2.66-1.93-4-2.93l-1.9-1.5a22.746 22.746 0 0 0-2-1.42c-.69-.43-1.41-.83-2.12-1.25l-.53-.32a.608.608 0 0 0-.51-.12c-.32.15-.7.39-1.06.58-1.42.82-2.857 1.62-4.31 2.4 1.4-.87 2.81-1.71 4.23-2.54.37-.21.68-.43 1.1-.62a.807.807 0 0 1 .65.13l.54.31c.71.41 1.43.79 2.14 1.22.693.453 1.36.944 2 1.47l1.95 1.51c1.25 1.02 2.54 2.05 3.82 3.08ZM320.119 186.66v-1.73a.335.335 0 0 0 0-.1l-5.8 3.34a.338.338 0 0 1 0 .11V190c0 .17-.11.24-.24.18h.52l5.22-3h.08a.681.681 0 0 0 .22-.52Z" fill="#37474F"/><path d="M306.869 182.26c1 .79 6.09 4.66 7.23 5.52a.561.561 0 0 1 .22.45V190c0 .18-.13.26-.29.16l-10.61-6.12a.652.652 0 0 1-.29-.5v-3.16c0-.19.13-.26.29-.17l2.59 1.49c.299.167.586.354.86.56Z" fill="#263238"/><path d="M306.828 181.23c.299.163.587.347.86.55.216.176.42.367.61.57a.264.264 0 0 0 .31 0l3.8-2.19a.152.152 0 0 0 .05-.054.159.159 0 0 0 .018-.071.159.159 0 0 0-.018-.071.152.152 0 0 0-.05-.054 5.998 5.998 0 0 0-.6-.56 7.646 7.646 0 0 0-.86-.55l-1.45-.84a.444.444 0 0 0-.36 0l-3.79 2.19c-.1.06-.1.15 0 .21l1.48.87Z" fill="#E0E0E0"/><path d="M309.169 178.18a.423.423 0 0 1 .35 0l1.48.82c.298.164.585.348.86.55.212.173.412.36.6.56l-3.8 2.19a.262.262 0 0 1-.31 0 6.44 6.44 0 0 0-.61-.57 7.373 7.373 0 0 0-.86-.55l-1.45-.83 3.74-2.17Z" fill="#fff"/><path d="M312.599 181.11v-.14h.14l.46-.27a.571.571 0 0 1 .66.06c.03.03.05.068.06.11v.15a.422.422 0 0 1-.2.25l-.56.32a.24.24 0 0 1-.29 0l-.27-.29a.169.169 0 0 1 0-.19Z" fill="#E32764"/><path opacity=".3" d="M312.599 181.11v-.14h.14l.46-.27a.571.571 0 0 1 .66.06c.03.03.05.068.06.11v.15a.422.422 0 0 1-.2.25l-.56.32a.24.24 0 0 1-.29 0l-.27-.29a.169.169 0 0 1 0-.19Z" fill="#101828"/><path d="m313.219 181.44.56-.32c.22-.13.28-.36.14-.51a.552.552 0 0 0-.65-.06l-.57.33a.148.148 0 0 0-.053.115c0 .022.004.043.014.063.009.02.022.038.039.052.09.1.17.2.26.29a.243.243 0 0 0 .124.059c.046.007.094 0 .136-.019Z" fill="#E32764"/><path opacity=".3" d="m313.219 181.44.56-.32c.22-.13.28-.36.14-.51a.552.552 0 0 0-.65-.06l-.57.33a.148.148 0 0 0-.053.115c0 .022.004.043.014.063.009.02.022.038.039.052.09.1.17.2.26.29a.243.243 0 0 0 .124.059c.046.007.094 0 .136-.019Z" fill="#fff"/><path d="M309.399 183.05v-.15a.385.385 0 0 1 .14-.11l.56-.33a.228.228 0 0 1 .28 0c.09.09.17.19.26.29h.08v.15s0 .06-.07.08l-.56.33a.552.552 0 0 1-.66 0 .256.256 0 0 1-.03-.26Z" fill="#E32764"/><path opacity=".3" d="M309.399 183.05v-.15a.385.385 0 0 1 .14-.11l.56-.33a.228.228 0 0 1 .28 0c.09.09.17.19.26.29h.08v.15s0 .06-.07.08l-.56.33a.552.552 0 0 1-.66 0 .256.256 0 0 1-.03-.26Z" fill="#101828"/><path d="m310.148 183.21.57-.33a.13.13 0 0 0 .061-.11.126.126 0 0 0-.016-.063.12.12 0 0 0-.045-.047l-.27-.29a.227.227 0 0 0-.28-.05l-.56.33c-.22.12-.29.35-.14.51a.531.531 0 0 0 .68.05Z" fill="#E32764"/><path opacity=".3" d="m310.148 183.21.57-.33a.13.13 0 0 0 .061-.11.126.126 0 0 0-.016-.063.12.12 0 0 0-.045-.047l-.27-.29a.227.227 0 0 0-.28-.05l-.56.33c-.22.12-.29.35-.14.51a.531.531 0 0 0 .68.05Z" fill="#fff"/><path d="M310.889 182.08v-.16h.11l.75-.44a.318.318 0 0 1 .39.07l.23.25h.07v.16a.184.184 0 0 1-.034.077.191.191 0 0 1-.066.053l-.8.46a.353.353 0 0 1-.4 0c-.07-.09-.15-.17-.22-.25a.202.202 0 0 1-.03-.22Z" fill="#E32764"/><path opacity=".3" d="M310.889 182.08v-.16h.11l.75-.44a.318.318 0 0 1 .39.07l.23.25h.07v.16a.184.184 0 0 1-.034.077.191.191 0 0 1-.066.053l-.8.46a.353.353 0 0 1-.4 0c-.07-.09-.15-.17-.22-.25a.202.202 0 0 1-.03-.22Z" fill="#101828"/><path d="m310.999 182.11.23.25a.352.352 0 0 0 .4.06l.8-.46a.2.2 0 0 0 .099-.241.192.192 0 0 0-.049-.079 2.862 2.862 0 0 1-.23-.25.338.338 0 0 0-.39-.06l-.8.46a.2.2 0 0 0-.074.058.199.199 0 0 0-.033.18.198.198 0 0 0 .047.082ZM312.099 183.85h-.1l-.42-.32a.25.25 0 0 0-.25 0l-.63.37h-.2v.16a.085.085 0 0 0 0 .08l.52.4a.249.249 0 0 0 .25 0l.78-.45a.098.098 0 0 0 .042-.031.101.101 0 0 0 .018-.049l-.01-.16Z" fill="#E32764"/><path opacity=".3" d="M312.099 183.85h-.1l-.42-.32a.25.25 0 0 0-.25 0l-.63.37h-.2v.16a.085.085 0 0 0 0 .08l.52.4a.249.249 0 0 0 .25 0l.78-.45a.098.098 0 0 0 .042-.031.101.101 0 0 0 .018-.049l-.01-.16Z" fill="#101828"/><path d="m310.499 183.81.78-.45a.25.25 0 0 1 .25 0l.519.39a.093.093 0 0 1 .035.036.105.105 0 0 1 .013.049.102.102 0 0 1-.048.085l-.78.45a.249.249 0 0 1-.25 0l-.519-.39a.102.102 0 0 1-.048-.085c0-.017.005-.034.013-.049a.093.093 0 0 1 .035-.036Z" fill="#E32764"/><path opacity=".3" d="m310.499 183.81.78-.45a.25.25 0 0 1 .25 0l.519.39a.093.093 0 0 1 .035.036.105.105 0 0 1 .013.049.102.102 0 0 1-.048.085l-.78.45a.249.249 0 0 1-.25 0l-.519-.39a.102.102 0 0 1-.048-.085c0-.017.005-.034.013-.049a.093.093 0 0 1 .035-.036Z" fill="#fff"/><path d="M315.469 186.43h-.14l-.42-.31a.25.25 0 0 0-.25 0l-.64.37h-.2v.16a.146.146 0 0 0 .05.09l.52.39a.249.249 0 0 0 .25 0l.78-.45a.115.115 0 0 0 .037-.039.114.114 0 0 0 .013-.051v-.16Z" fill="#E32764"/><path opacity=".3" d="M315.469 186.43h-.14l-.42-.31a.25.25 0 0 0-.25 0l-.64.37h-.2v.16a.146.146 0 0 0 .05.09l.52.39a.249.249 0 0 0 .25 0l.78-.45a.115.115 0 0 0 .037-.039.114.114 0 0 0 .013-.051v-.16Z" fill="#101828"/><path d="m313.879 186.39.78-.45a.25.25 0 0 1 .25 0l.52.4a.098.098 0 0 1 .034.036.095.095 0 0 1 .013.049.089.089 0 0 1-.013.048.1.1 0 0 1-.034.037l-.78.45a.249.249 0 0 1-.25 0l-.52-.4a.09.09 0 0 1-.061-.085c0-.019.006-.037.017-.052a.085.085 0 0 1 .044-.033Z" fill="#E32764"/><path opacity=".3" d="m313.879 186.39.78-.45a.25.25 0 0 1 .25 0l.52.4a.098.098 0 0 1 .034.036.095.095 0 0 1 .013.049.089.089 0 0 1-.013.048.1.1 0 0 1-.034.037l-.78.45a.249.249 0 0 1-.25 0l-.52-.4a.09.09 0 0 1-.061-.085c0-.019.006-.037.017-.052a.085.085 0 0 1 .044-.033Z" fill="#fff"/><path d="M313.219 184.71h-.14l-.42-.32a.25.25 0 0 0-.25 0l-.64.37h-.2v.17a.103.103 0 0 0 .05.08l.52.39a.229.229 0 0 0 .25 0l.78-.45a.088.088 0 0 0 .035-.034.096.096 0 0 0 .015-.046v-.16Z" fill="#E32764"/><path opacity=".3" d="M313.219 184.71h-.14l-.42-.32a.25.25 0 0 0-.25 0l-.64.37h-.2v.17a.103.103 0 0 0 .05.08l.52.39a.229.229 0 0 0 .25 0l.78-.45a.088.088 0 0 0 .035-.034.096.096 0 0 0 .015-.046v-.16Z" fill="#101828"/><path d="m311.629 184.67.78-.45a.25.25 0 0 1 .25 0l.52.39a.087.087 0 0 1 .035.036.105.105 0 0 1 .013.049.102.102 0 0 1-.048.085l-.78.45a.26.26 0 0 1-.125.033.26.26 0 0 1-.125-.033l-.52-.39a.1.1 0 0 1-.034-.037.091.091 0 0 1-.013-.048c0-.017.004-.034.013-.049a.09.09 0 0 1 .034-.036Z" fill="#E32764"/><path opacity=".3" d="m311.629 184.67.78-.45a.25.25 0 0 1 .25 0l.52.39a.087.087 0 0 1 .035.036.105.105 0 0 1 .013.049.102.102 0 0 1-.048.085l-.78.45a.26.26 0 0 1-.125.033.26.26 0 0 1-.125-.033l-.52-.39a.1.1 0 0 1-.034-.037.091.091 0 0 1-.013-.048c0-.017.004-.034.013-.049a.09.09 0 0 1 .034-.036Z" fill="#fff"/><path d="M314.349 185.57h-.15l-.42-.32a.25.25 0 0 0-.25 0l-.63.37h-.2v.17a.122.122 0 0 0 0 .08l.52.39a.249.249 0 0 0 .25 0l.78-.45a.095.095 0 0 0 .043-.036.096.096 0 0 0 .017-.054l.04-.15Z" fill="#E32764"/><path opacity=".3" d="M314.349 185.57h-.15l-.42-.32a.25.25 0 0 0-.25 0l-.63.37h-.2v.17a.122.122 0 0 0 0 .08l.52.39a.249.249 0 0 0 .25 0l.78-.45a.095.095 0 0 0 .043-.036.096.096 0 0 0 .017-.054l.04-.15Z" fill="#101828"/><path d="m312.749 185.53.78-.45a.25.25 0 0 1 .25 0l.52.4a.11.11 0 0 1 .035.036.104.104 0 0 1 0 .098.12.12 0 0 1-.035.036l-.78.45a.249.249 0 0 1-.25 0l-.52-.4a.09.09 0 0 1-.061-.085c0-.019.006-.037.017-.052a.085.085 0 0 1 .044-.033Z" fill="#E32764"/><path opacity=".3" d="m312.749 185.53.78-.45a.25.25 0 0 1 .25 0l.52.4a.11.11 0 0 1 .035.036.104.104 0 0 1 0 .098.12.12 0 0 1-.035.036l-.78.45a.249.249 0 0 1-.25 0l-.52-.4a.09.09 0 0 1-.061-.085c0-.019.006-.037.017-.052a.085.085 0 0 1 .044-.033Z" fill="#fff"/><path d="M313.839 182.85h-.15l-.42-.32a.25.25 0 0 0-.25 0l-.64.37h-.2v.16a.096.096 0 0 0 .015.046c.008.014.02.025.035.034l.52.4a.249.249 0 0 0 .25 0l.78-.45a.091.091 0 0 0 .038-.032.084.084 0 0 0 .012-.048l.01-.16Z" fill="#E32764"/><path opacity=".3" d="M313.839 182.85h-.15l-.42-.32a.25.25 0 0 0-.25 0l-.64.37h-.2v.16a.096.096 0 0 0 .015.046c.008.014.02.025.035.034l.52.4a.249.249 0 0 0 .25 0l.78-.45a.091.091 0 0 0 .038-.032.084.084 0 0 0 .012-.048l.01-.16Z" fill="#101828"/><path d="m312.239 182.81.78-.45a.25.25 0 0 1 .25 0l.52.39a.098.098 0 0 1 .034.036.095.095 0 0 1 .013.049.091.091 0 0 1-.013.048.1.1 0 0 1-.034.037l-.78.45a.249.249 0 0 1-.25 0l-.52-.39a.102.102 0 0 1-.048-.085c0-.017.005-.034.013-.049a.093.093 0 0 1 .035-.036Z" fill="#E32764"/><path opacity=".3" d="m312.239 182.81.78-.45a.25.25 0 0 1 .25 0l.52.39a.098.098 0 0 1 .034.036.095.095 0 0 1 .013.049.091.091 0 0 1-.013.048.1.1 0 0 1-.034.037l-.78.45a.249.249 0 0 1-.25 0l-.52-.39a.102.102 0 0 1-.048-.085c0-.017.005-.034.013-.049a.093.093 0 0 1 .035-.036Z" fill="#fff"/><path d="M317.209 185.43h-.15l-.41-.31a.24.24 0 0 0-.26 0l-.63.37h-.2v.16a.117.117 0 0 0 0 .09l.52.39a.249.249 0 0 0 .25 0l.78-.45a.113.113 0 0 0 .06-.09l.04-.16Z" fill="#E32764"/><path opacity=".3" d="M317.209 185.43h-.15l-.41-.31a.24.24 0 0 0-.26 0l-.63.37h-.2v.16a.117.117 0 0 0 0 .09l.52.39a.249.249 0 0 0 .25 0l.78-.45a.113.113 0 0 0 .06-.09l.04-.16Z" fill="#101828"/><path d="m315.609 185.39.78-.45a.239.239 0 0 1 .26 0l.51.4c.07.05.06.12 0 .17l-.78.44a.229.229 0 0 1-.25 0l-.52-.4a.088.088 0 0 1-.035-.034.084.084 0 0 1-.013-.046c0-.017.004-.033.013-.047a.085.085 0 0 1 .035-.033Z" fill="#E32764"/><path opacity=".3" d="m315.609 185.39.78-.45a.239.239 0 0 1 .26 0l.51.4c.07.05.06.12 0 .17l-.78.44a.229.229 0 0 1-.25 0l-.52-.4a.088.088 0 0 1-.035-.034.084.084 0 0 1-.013-.046c0-.017.004-.033.013-.047a.085.085 0 0 1 .035-.033Z" fill="#fff"/><path d="M314.999 183.71h-.15l-.41-.32a.268.268 0 0 0-.26 0l-.63.37h-.2v.17a.093.093 0 0 0 0 .08l.52.39a.231.231 0 0 0 .25 0l.78-.45a.088.088 0 0 0 .042-.031.086.086 0 0 0 .018-.049l.04-.16Z" fill="#E32764"/><path opacity=".3" d="M314.999 183.71h-.15l-.41-.32a.268.268 0 0 0-.26 0l-.63.37h-.2v.17a.093.093 0 0 0 0 .08l.52.39a.231.231 0 0 0 .25 0l.78-.45a.088.088 0 0 0 .042-.031.086.086 0 0 0 .018-.049l.04-.16Z" fill="#101828"/><path d="m313.359 183.67.78-.45a.267.267 0 0 1 .26 0l.51.39a.09.09 0 0 1 .06.085.094.094 0 0 1-.016.052.095.095 0 0 1-.044.033l-.78.45a.249.249 0 0 1-.25 0l-.52-.39a.1.1 0 0 1-.035-.036.104.104 0 0 1 0-.098.093.093 0 0 1 .035-.036Z" fill="#E32764"/><path opacity=".3" d="m313.359 183.67.78-.45a.267.267 0 0 1 .26 0l.51.39a.09.09 0 0 1 .06.085.094.094 0 0 1-.016.052.095.095 0 0 1-.044.033l-.78.45a.249.249 0 0 1-.25 0l-.52-.39a.1.1 0 0 1-.035-.036.104.104 0 0 1 0-.098.093.093 0 0 1 .035-.036Z" fill="#fff"/><path d="M316.089 184.57h-.15l-.42-.31a.25.25 0 0 0-.25 0l-.64.37h-.2v.17a.148.148 0 0 0 .05.08l.52.39a.249.249 0 0 0 .25 0l.78-.45a.095.095 0 0 0 .039-.038.086.086 0 0 0 .011-.052l.01-.16Z" fill="#E32764"/><path opacity=".3" d="M316.089 184.57h-.15l-.42-.31a.25.25 0 0 0-.25 0l-.64.37h-.2v.17a.148.148 0 0 0 .05.08l.52.39a.249.249 0 0 0 .25 0l.78-.45a.095.095 0 0 0 .039-.038.086.086 0 0 0 .011-.052l.01-.16Z" fill="#101828"/><path d="m314.489 184.53.78-.45a.25.25 0 0 1 .25 0l.52.4a.093.093 0 0 1 .035.036.104.104 0 0 1 0 .098.1.1 0 0 1-.035.036l-.78.45a.249.249 0 0 1-.25 0l-.52-.4a.09.09 0 0 1-.044-.033.094.094 0 0 1-.016-.052c0-.019.006-.037.016-.052a.085.085 0 0 1 .044-.033Z" fill="#E32764"/><path opacity=".3" d="m314.489 184.53.78-.45a.25.25 0 0 1 .25 0l.52.4a.093.093 0 0 1 .035.036.104.104 0 0 1 0 .098.1.1 0 0 1-.035.036l-.78.45a.249.249 0 0 1-.25 0l-.52-.4a.09.09 0 0 1-.044-.033.094.094 0 0 1-.016-.052c0-.019.006-.037.016-.052a.085.085 0 0 1 .044-.033Z" fill="#fff"/><path d="M315.569 181.85h-.15l-.41-.32a.27.27 0 0 0-.26 0l-.63.37h-.2v.16a.08.08 0 0 0-.01.04.08.08 0 0 0 .01.04l.52.39a.229.229 0 0 0 .25 0l.78-.45a.098.098 0 0 0 .042-.031.094.094 0 0 0 .018-.049l.04-.15Z" fill="#E32764"/><path opacity=".3" d="M315.569 181.85h-.15l-.41-.32a.27.27 0 0 0-.26 0l-.63.37h-.2v.16a.08.08 0 0 0-.01.04.08.08 0 0 0 .01.04l.52.39a.229.229 0 0 0 .25 0l.78-.45a.098.098 0 0 0 .042-.031.094.094 0 0 0 .018-.049l.04-.15Z" fill="#101828"/><path d="m313.998 181.81.77-.45a.265.265 0 0 1 .26 0l.51.39a.089.089 0 0 1 .044.137.097.097 0 0 1-.044.033l-.78.45a.26.26 0 0 1-.125.033.262.262 0 0 1-.125-.033l-.51-.37a.1.1 0 0 1-.049-.037.094.094 0 0 1-.019-.058c0-.022.006-.042.019-.059a.093.093 0 0 1 .049-.036Z" fill="#E32764"/><path opacity=".3" d="m313.998 181.81.77-.45a.265.265 0 0 1 .26 0l.51.39a.089.089 0 0 1 .044.137.097.097 0 0 1-.044.033l-.78.45a.26.26 0 0 1-.125.033.262.262 0 0 1-.125-.033l-.51-.37a.1.1 0 0 1-.049-.037.094.094 0 0 1-.019-.058c0-.022.006-.042.019-.059a.093.093 0 0 1 .049-.036Z" fill="#fff"/><path d="M318.998 184.43h-.15l-.42-.32a.25.25 0 0 0-.25 0l-.64.37h-.2v.16a.106.106 0 0 0 0 .08l.52.4a.251.251 0 0 0 .25 0l.78-.45a.079.079 0 0 0 .05-.09l.06-.15Z" fill="#E32764"/><path opacity=".3" d="M318.998 184.43h-.15l-.42-.32a.25.25 0 0 0-.25 0l-.64.37h-.2v.16a.106.106 0 0 0 0 .08l.52.4a.251.251 0 0 0 .25 0l.78-.45a.079.079 0 0 0 .05-.09l.06-.15Z" fill="#101828"/><path d="m317.349 184.38.78-.44a.229.229 0 0 1 .25 0l.52.4a.088.088 0 0 1 .049.08.098.098 0 0 1-.013.047.095.095 0 0 1-.036.033l-.78.45a.229.229 0 0 1-.25 0l-.52-.4c-.08-.05-.07-.12 0-.17Z" fill="#E32764"/><path opacity=".3" d="m317.349 184.38.78-.44a.229.229 0 0 1 .25 0l.52.4a.088.088 0 0 1 .049.08.098.098 0 0 1-.013.047.095.095 0 0 1-.036.033l-.78.45a.229.229 0 0 1-.25 0l-.52-.4c-.08-.05-.07-.12 0-.17Z" fill="#fff"/><path d="M317.819 183.57h-.15l-.41-.31a.27.27 0 0 0-.26 0l-.63.37h-.2v.16a.117.117 0 0 0 0 .09l.52.39a.249.249 0 0 0 .25 0l.78-.45a.107.107 0 0 0 .043-.036.096.096 0 0 0 .017-.054l.04-.16Z" fill="#E32764"/><path opacity=".3" d="M317.819 183.57h-.15l-.41-.31a.27.27 0 0 0-.26 0l-.63.37h-.2v.16a.117.117 0 0 0 0 .09l.52.39a.249.249 0 0 0 .25 0l.78-.45a.107.107 0 0 0 .043-.036.096.096 0 0 0 .017-.054l.04-.16Z" fill="#101828"/><path d="m316.229 183.53.77-.45a.271.271 0 0 1 .13-.034c.045 0 .09.012.13.034l.51.4c.07 0 .07.12 0 .17l-.78.45a.249.249 0 0 1-.25 0l-.52-.4a.092.092 0 0 1-.056-.089.088.088 0 0 1 .02-.051.088.088 0 0 1 .046-.03Z" fill="#E32764"/><path opacity=".3" d="m316.229 183.53.77-.45a.271.271 0 0 1 .13-.034c.045 0 .09.012.13.034l.51.4c.07 0 .07.12 0 .17l-.78.45a.249.249 0 0 1-.25 0l-.52-.4a.092.092 0 0 1-.056-.089.088.088 0 0 1 .02-.051.088.088 0 0 1 .046-.03Z" fill="#fff"/><path d="M316.699 182.71h-.15l-.42-.32a.25.25 0 0 0-.25 0l-.64.37h-.24v.17a.136.136 0 0 0 0 .08l.52.39a.249.249 0 0 0 .25 0l.78-.45a.107.107 0 0 0 .043-.036.114.114 0 0 0 .017-.054l.09-.15Z" fill="#E32764"/><path opacity=".3" d="M316.699 182.71h-.15l-.42-.32a.25.25 0 0 0-.25 0l-.64.37h-.24v.17a.136.136 0 0 0 0 .08l.52.39a.249.249 0 0 0 .25 0l.78-.45a.107.107 0 0 0 .043-.036.114.114 0 0 0 .017-.054l.09-.15Z" fill="#101828"/><path d="m315.099 182.67.78-.45a.25.25 0 0 1 .25 0l.52.4a.09.09 0 0 1 .034.036.095.095 0 0 1 .013.049.091.091 0 0 1-.013.048.1.1 0 0 1-.034.037l-.78.45a.26.26 0 0 1-.125.033.26.26 0 0 1-.125-.033l-.52-.39a.09.09 0 0 1-.09-.09.09.09 0 0 1 .026-.064.09.09 0 0 1 .064-.026Z" fill="#E32764"/><path opacity=".3" d="m315.099 182.67.78-.45a.25.25 0 0 1 .25 0l.52.4a.09.09 0 0 1 .034.036.095.095 0 0 1 .013.049.091.091 0 0 1-.013.048.1.1 0 0 1-.034.037l-.78.45a.26.26 0 0 1-.125.033.26.26 0 0 1-.125-.033l-.52-.39a.09.09 0 0 1-.09-.09.09.09 0 0 1 .026-.064.09.09 0 0 1 .064-.026Z" fill="#fff"/><path d="M315.25 233.81a6.806 6.806 0 0 0 4.39-6.05c.33-3 .13-6.32-4.5-9.46-4.63-3.14-8.17-2-10-1.21l10.11 16.72Z" fill="#455A64"/><path d="M313.339 234.15a4.63 4.63 0 0 1-2.1-.8l-4.79-3.2a7.802 7.802 0 0 1-3.34-6.7l.41-3.7a3.169 3.169 0 0 1 1.121-2.282 3.16 3.16 0 0 1 2.439-.718 4.77 4.77 0 0 1 2.11.81l4.78 3.19a7.802 7.802 0 0 1 3.34 6.71l-.4 3.69a3.157 3.157 0 0 1-3.57 3Z" fill="#263238"/><path d="m308.399 218.52 4.78 3.19a6.576 6.576 0 0 1 2.78 5.58l-.4 3.7c-.21 1.92-1.79 2.53-3.53 1.37l-4.79-3.19a6.582 6.582 0 0 1-2.78-5.58l.41-3.69c.21-1.9 1.79-2.54 3.53-1.38Z" fill="#455A64"/><g opacity=".2" fill="#fff"><path opacity=".2" d="m309.829 219.48-5.35 3.85.47-4.27 1.52-1.1a2.8 2.8 0 0 1 1.94.57l1.42.95ZM313.999 222.37l-7.92 5.72a8.804 8.804 0 0 1-.58-.79l7.7-5.56c.289.181.557.392.8.63ZM316 227.29l-.07.64-5.05 3.64-2.21-1.46 7-5.07c.275.716.388 1.485.33 2.25Z"/></g><path d="m330.04 372.19-35.58-20.54 23.72-13.69 35.57 20.54-23.71 13.69Z" fill="#E32764"/><path opacity=".3" d="m330.04 372.19-35.58-20.54 23.72-13.69 35.57 20.54-23.71 13.69Z" fill="#101828"/><path d="m448.29 304.03-35.57-20.53 5.77-7.21 35.57 20.54-5.77 7.2Z" fill="#E32764"/><path opacity=".3" d="m448.29 304.03-35.57-20.53 5.77-7.21 35.57 20.54-5.77 7.2Z" fill="#101828"/><path d="m317.85 374 4.07-8.08-9.68-5.6c-3.08-1.77-7.18-1.57-11.68 1-9.56 5.52-17.31 19.75-17.31 31.8 0 6.3 2.13 10.75 5.52 12.77l.14.08 9.92 5.73 4.29-8.52c8.14-6.18 14.41-18.43 14.73-29.18Z" fill="#37474F"/><path d="m317.85 374 4.07-8.08-9.68-5.6c-3.08-1.77-7.18-1.57-11.68 1-9.56 5.52-17.31 19.75-17.31 31.8 0 6.3 2.13 10.75 5.52 12.77l.14.08 9.92 5.73 4.29-8.52c8.14-6.18 14.41-18.43 14.73-29.18Z" fill="#101828"/><path d="M310.63 374.44c6.08-3.51 11 .15 11 8.18s-4.93 17.38-11 20.89c-6.07 3.51-11-.15-11-8.17s4.92-17.34 11-20.9Z" fill="#37474F"/><path d="M315.609 386.76c-.42 4-3 8.22-5.74 9.44a2.646 2.646 0 0 1-3-.25c-1-.82-1.46-2.51-1.23-4.75.42-4 3-8.23 5.74-9.45a3.082 3.082 0 0 1 2-.27c1.62.4 2.53 2.37 2.23 5.28Z" fill="#455A64"/><path d="M327.94 379c0 10.38-5.77 22.4-13.48 29a49.245 49.245 0 0 0 11-21.25c1.46-6.94.91-16.9-5.05-19.42-5.96-2.52-13.82 2.79-16.31 5.21a28.179 28.179 0 0 1 6.55-5.4c9.54-5.48 17.29-.2 17.29 11.86Z" fill="#455A64"/><path d="m436.1 305.85 4.07-8.08-9.68-5.6c-3.08-1.77-7.17-1.57-11.68 1-9.55 5.52-17.3 19.75-17.31 31.8 0 6.3 2.13 10.75 5.53 12.77l.13.07 9.92 5.72 4.29-8.52c8.15-6.16 14.42-18.42 14.73-29.16Z" fill="#37474F"/><path d="m436.1 305.85 4.07-8.08-9.68-5.6c-3.08-1.77-7.17-1.57-11.68 1-9.55 5.52-17.3 19.75-17.31 31.8 0 6.3 2.13 10.75 5.53 12.77l.13.07 9.92 5.72 4.29-8.52c8.15-6.16 14.42-18.42 14.73-29.16Z" fill="#101828"/><path d="M446.189 310.82c0 10.38-5.76 22.4-13.48 29.05a25.754 25.754 0 0 1-3.79 2.72c-9.57 5.52-17.32.23-17.31-11.81 0-9.1 4.42-19.45 10.7-26.35h.06a27.988 27.988 0 0 1 6.55-5.4c9.53-5.53 17.27-.25 17.27 11.79Z" fill="#263238"/><path d="M428.89 306.28c6.08-3.51 11 .15 11 8.18s-4.93 17.38-11 20.89c-6.07 3.51-11-.15-11-8.17s4.91-17.39 11-20.9Z" fill="#37474F"/><path d="M433.859 318.6c-.42 4-3 8.22-5.73 9.44a2.659 2.659 0 0 1-3-.25c-1-.82-1.46-2.51-1.22-4.75.42-4 3-8.23 5.73-9.45a3.108 3.108 0 0 1 2-.27c1.6.4 2.53 2.37 2.22 5.28Z" fill="#455A64"/><path d="M446.189 310.82c0 10.38-5.76 22.4-13.48 29.05a49.11 49.11 0 0 0 11-21.25c1.47-6.94.92-16.9-5-19.42-5.92-2.52-13.82 2.79-16.31 5.21a27.988 27.988 0 0 1 6.55-5.4c9.5-5.51 17.24-.23 17.24 11.81Z" fill="#455A64"/><path d="M464.45 271.62v11.53c0 6.39-5.66 14.83-12.64 18.85l-3.53 2.05c-2-10-9.93-13.75-19.41-8.29a31.851 31.851 0 0 0-7.53 6.18s0 .06-.06.09a49.51 49.51 0 0 0-11.83 24.44L330 372.18c-2-10-9.93-13.75-19.41-8.29a33.004 33.004 0 0 0-7.54 6.21l-.05.06a49.552 49.552 0 0 0-11.8 24.44l-7.82 4.52c-7 4-13.48 4.32-25.28 0s-43.89-22-57.71-33.34c-9-7.28-12.64-13.42-12.64-21v-15.67c0-.62.06-1.28.12-1.92.143-2.746.478-5.48 1-8.18.21-1.22.44-2.39.76-3.56a74.009 74.009 0 0 1 9-22c8.53-13.46 11.79-16.52 20.41-21.48l28 11.23s95.48-55 110.69-63.81c15.21-8.81 55.87-6 79.46 8.91 23.59 14.91 27.26 27.7 27.26 43.32Z" fill="#E32764"/><path opacity=".15" d="M464.45 271.62v11.53c0 6.39-5.66 14.83-12.64 18.85l-3.53 2.05c-2-10-9.93-13.75-19.41-8.29a31.851 31.851 0 0 0-7.53 6.18s0 .06-.06.09a49.51 49.51 0 0 0-11.83 24.44L330 372.18c-2-10-9.93-13.75-19.41-8.29a33.004 33.004 0 0 0-7.54 6.21l-.05.06a49.552 49.552 0 0 0-11.8 24.44l-7.82 4.52c-7 4-13.48 4.32-25.28 0s-43.89-22-57.71-33.34c-9-7.28-12.64-13.42-12.64-21v-15.67c0-.62.06-1.28.12-1.92.143-2.747.478-5.48 1-8.18.21-1.22.44-2.39.76-3.56a73.998 73.998 0 0 1 9-22c8.53-13.46 11.79-16.52 20.41-21.48l28 11.23 90.81-52.34c9.27-5.35 73.2 42.79 76.91 41.69 21.42-6.32 37.45-16.74 40.1-29.7 7.97 9.31 9.59 18.41 9.59 28.77Z" fill="#101828"/><path opacity=".15" d="m295.509 309.87-77-37.61c-8.24 4.79-11.55 8-19.91 21.19a74.035 74.035 0 0 0-9 22c-.32 1.17-.55 2.34-.76 3.56a59.52 59.52 0 0 0-1 8.18c-.06.64-.09 1.28-.12 1.92-.03.64 0 1.34 0 2v13.69c0 7.56 3.6 13.7 12.64 21 13.82 11.32 45.91 29 57.71 33.34 7.77 2.84 13.23 3.65 18 2.75-1.92-5-.19-15.48 2.42-35.88 3.41-26.01 7.84-45.85 17.02-56.14Z" fill="#101828"/><path d="M413.05 273.77c4.52-2.68 6.58-6.58 4.8-10.8l-48.25-9.31.09 13.71 43.36 6.4Z" fill="#263238"/><path d="M310.31 223.67h47.43c7.62 0 20.82 4.42 37.34 15.24 16.52 10.82 34.1 25.09 19.68 33.64l-104.45-48.88Z" fill="#263238"/><path d="M311.899 225.19h47.43c7.4 0 22.13 7.89 34 14.74 11.87 6.85 30 23.76 23.72 27.38-2.33 1.35-7.82.66-23.72-1.32l-20.24-2.53-61.19-38.27Z" fill="#455A64"/><path opacity=".2" d="M414.509 257.74c-5.07-6.25-14.21-13.77-21.2-17.81-11.85-6.85-26.58-14.74-34-14.74h-47.41l22 13.75 5.74-2.63c-7.19-4.17 13-6.3 24.49-4.74 11.49 1.56 41.95 15.53 50.38 26.17Z" fill="#fff"/><path d="M299.559 316.39a80.03 80.03 0 0 0-.32 14.05c.16 4.67 3.72 6.77 7.91 4.36l105.9-61c4.19-2.42 3.69-4.86-1.11-5.46l-27.55-3.44a30.4 30.4 0 0 0-16.27 3.3l-61 35.09c-4.12 2.38-6.86 6.46-7.56 13.1Z" fill="#263238"/><path d="M301.8 315.74a58.984 58.984 0 0 0-.47 14.13c.33 2.71 2.74 3.72 5.53 2.11l98.31-56.64c2.79-1.61 2.46-3.25-.74-3.65l-24-3c-3.75-.29-7.506.469-10.85 2.19L306.86 307c-2.79 1.6-4.18 3.38-5.06 8.74Z" fill="#37474F"/><path d="M345.5 281.7v30.36l2-1.16v-30.35l-2 1.15ZM381.46 266.6v24.66l2-1.16v-24.66l-2 1.16Z" fill="#263238"/><path d="M275 313a16.757 16.757 0 0 0 15.17 0l78.63-45.27c7-4 7-10.57 0-14.6L323 226.69c-7-4-18.3-4-25.28 0L219.05 272c-4.19 2.42-4.19 6.34 0 8.76L275 313Z" fill="#E32764"/><path opacity=".15" d="M279.57 305.94c-12.76-5.87-21.69-10.7-32.23-20.44-10.54-9.74-4.37-22.62 21.1-42.05L219.05 272c-4.19 2.42-4.19 6.34 0 8.76L275 313a16.757 16.757 0 0 0 15.17 0l26.14-15c-.15.05-24.02 13.79-36.74 7.94Z" fill="#101828"/><path opacity=".3" d="m368.819 253.17-45.82-26.48c-4.66-2.69-11.24-3.54-17.19-2.64a21.935 21.935 0 0 1 10.48 2.19c5.93 2.57 23.08 12.72 42.44 23.39s11.76 14.6 6.43 17.68-66.56 40.87-74.97 45.69l78.63-45.27c6.98-3.99 6.98-10.53 0-14.56Z" fill="#fff"/><path d="M212.75 361.07v-10.38c0-1.29.92-1.82 2-1.17l17.66 10.19a3.544 3.544 0 0 1 1.6 2.77v10.24c0 1.3-.92 1.83-2 1.19l-17.65-10.09a3.516 3.516 0 0 1-1.61-2.75Z" fill="#37474F"/><path d="M216.069 338.19v-1.36c0-1.61 1.13-2.27 2.53-1.46l16.23 9.37a5.589 5.589 0 0 1 2.53 4.38v1.23c0 1.61-1.14 2.27-2.54 1.47l-16.21-9.26a5.548 5.548 0 0 1-2.54-4.37Z" fill="#E32764"/><path opacity=".2" d="M216.069 338.19v-1.36c0-1.61 1.13-2.27 2.53-1.46l16.23 9.37a5.589 5.589 0 0 1 2.53 4.38v1.23c0 1.61-1.14 2.27-2.54 1.47l-16.21-9.26a5.548 5.548 0 0 1-2.54-4.37Z" fill="#fff"/><path d="M263.419 357.24c-3.55.95-7.84 3.17-9 8.1-1.42 6 .76 11 5.68 12.24 2.11.56 7.28-.29 11.37-6.18 2.8-4 3.17-10.43 1.62-12.46-1.55-2.03-5.86-2.72-9.67-1.7Z" fill="#37474F"/><path d="M265.34 363.93a3.9 3.9 0 1 1-7.8.021 3.9 3.9 0 0 1 7.8-.021ZM262.19 371.86a2.32 2.32 0 1 1-4.64 0 2.32 2.32 0 0 1 4.64 0Z" fill="#E32764"/><path d="M192.42 336.62c-.78 1.17-2.59 1.14-4.67-1.37v-6.14c0-.62.06-1.28.12-1.92.143-2.746.478-5.48 1-8.18.21-1.22.44-2.39.76-3.56a12.243 12.243 0 0 1 3.82 7.39c.43 4.73.05 12.29-1.03 13.78Z" fill="#37474F"/><path d="M189.13 329a2.081 2.081 0 0 0-1.36.53v3.09c.372.354.866.551 1.38.55a2.087 2.087 0 0 0 2.234-2.085 2.093 2.093 0 0 0-1.391-1.97 2.105 2.105 0 0 0-.843-.115h-.02ZM191.93 323a4.172 4.172 0 0 1-4 4.18c.143-2.747.477-5.48 1-8.18a4.211 4.211 0 0 1 3 4ZM447.789 235.94c9 11.5-17.51 30.11-29.48 36.88-11.97 6.77-86.82 50.18-86.82 50.18s92.36-48.87 114.7-57c14.77-5.4 18.26 13 18.27 17.15V271.6c0-12.89-2.54-23.83-16.67-35.66Z" fill="#E32764"/><path opacity=".1" d="M447.789 235.94c9 11.5-17.51 30.11-29.48 36.88-11.97 6.77-86.82 50.18-86.82 50.18s92.36-48.87 114.7-57c14.77-5.4 18.26 13 18.27 17.15V271.6c0-12.89-2.54-23.83-16.67-35.66Z" fill="#fff"/><path d="M301.14 365.2a39.117 39.117 0 0 1 7.71-7.05 25.62 25.62 0 0 1 9.67-4.09 16.599 16.599 0 0 1 5.31.09 12.91 12.91 0 0 1 4.85 2.14 16.109 16.109 0 0 1 5.66 8.67 17.015 17.015 0 0 0-6-8.21 13.492 13.492 0 0 0-4.66-1.95 16.027 16.027 0 0 0-5.07 0 25.873 25.873 0 0 0-9.47 3.84 46.686 46.686 0 0 0-8 6.56ZM419 297.12a38.8 38.8 0 0 1 7.71-7 25.473 25.473 0 0 1 9.67-4.09 16.343 16.343 0 0 1 5.31.09 12.91 12.91 0 0 1 4.85 2.14 16.007 16.007 0 0 1 5.66 8.67 17.002 17.002 0 0 0-6-8.21 13.282 13.282 0 0 0-4.66-1.95 16.027 16.027 0 0 0-5.07 0 26.004 26.004 0 0 0-9.47 3.83 47.618 47.618 0 0 0-8 6.52Z" fill="#E32764"/><path opacity=".2" d="M337.229 363.11a857.66 857.66 0 0 1 33.28-20.29c5.59-3.3 11.2-6.57 16.87-9.73 5.67-3.16 11.29-6.43 17-9.49l-.38.61a41.036 41.036 0 0 1 3-10.9 28.426 28.426 0 0 1 6.2-9.28 30.745 30.745 0 0 0-5.32 9.62 44.028 44.028 0 0 0-2.3 10.68v.39l-.35.21c-5.53 3.42-11.16 6.65-16.76 9.94-5.6 3.29-11.24 6.51-16.9 9.69a886.352 886.352 0 0 1-34.34 18.55Z" fill="#101828"/><path d="M457.74 246.6c1.83 5-3 12.29-2.21 19.33.79 7.04 6.33 7.53 8.72 0 1.08-7.93-4.72-18.24-6.51-19.33Z" fill="#FAFAFA"/><path d="M196.199 304.24a98.775 98.775 0 0 1 13.93-19.8 6.998 6.998 0 0 1 8.89-.68 375.015 375.015 0 0 0 58.38 33.65 5.595 5.595 0 0 1 2.906 3.245 5.59 5.59 0 0 1-.306 4.345 120.979 120.979 0 0 0-7.9 23.34 4.876 4.876 0 0 1-2.491 3.409 4.868 4.868 0 0 1-4.219.181c-25.49-10.16-48.21-22.89-67.48-38.78a7.477 7.477 0 0 1-1.71-8.91Z" fill="#263238"/><path d="M267.369 350.3a3.328 3.328 0 0 1-1.21-.24c-26.07-10.4-48.59-23.33-66.93-38.45a5.459 5.459 0 0 1-1.24-6.39 96.148 96.148 0 0 1 13.64-19.39 4.463 4.463 0 0 1 3.29-1.29 5.136 5.136 0 0 1 2.92.88 379.4 379.4 0 0 0 58.69 33.84 3.422 3.422 0 0 1 1.84 2 3.846 3.846 0 0 1-.19 2.93 122.328 122.328 0 0 0-8.05 23.74 2.88 2.88 0 0 1-2.76 2.37Z" fill="#455A64"/><path d="M278.37 321.23a3.418 3.418 0 0 0-1.84-2 384.443 384.443 0 0 1-50.88-28.49L197.49 307a5.45 5.45 0 0 0 1.74 4.58c18.34 15.12 40.86 28.05 66.93 38.45.385.155.795.236 1.21.24a2.882 2.882 0 0 0 2.76-2.4 122.261 122.261 0 0 1 8.05-23.74c.44-.904.508-1.945.19-2.9Z" fill="#37474F"/><path d="M186.29 344.8c.84 3.93 13.69 16.48 35 28.31 21.31 11.83 39.1 21.4 49.87 20.88 10.77-.52 24.41-9.58 24.41-9.58s-2.63 8-2.76 11.61c0 0-11.21 7.08-20.49 7.78-6.13.46-14.08 1.66-51.31-19.83-24.7-14.27-32.22-22.07-35-28.34-1.42-3.18-1.36-7.85-1.32-9.93.15-7.05 3.15-7.74 3.15-7.74-1.44 1.3-2.39 2.9-1.55 6.84Z" fill="#E32764"/><path opacity=".3" d="M186.29 344.8c.84 3.93 13.69 16.48 35 28.31 21.31 11.83 39.1 21.4 49.87 20.88 10.77-.52 24.41-9.58 24.41-9.58s-2.63 8-2.76 11.61c0 0-11.21 7.08-20.49 7.78-6.13.46-14.08 1.66-51.31-19.83-24.7-14.27-32.22-22.07-35-28.34-1.42-3.18-1.36-7.85-1.32-9.93.15-7.05 3.15-7.74 3.15-7.74-1.44 1.3-2.39 2.9-1.55 6.84Z" fill="#101828"/><path d="M187.749 338c-1.35 1.3-2.3 2.9-1.46 6.84.84 3.94 13.69 16.48 35 28.31 21.31 11.83 39.1 21.4 49.87 20.88 10.77-.52 24.41-9.58 24.41-9.58l-1.23-.68s-13.84 8.79-23.22 8.66c-9.38-.13-22-4.84-48.53-20.2s-33.54-24.71-34.77-28l-.07-6.23Z" fill="#E32764"/><path d="M412.149 289.79a6.767 6.767 0 0 0 4.38-6c.33-3 .13-6.32-4.5-9.46-4.63-3.14-8.17-2-10-1.21l10.12 16.67Z" fill="#455A64"/><path d="M410.24 290.14a4.64 4.64 0 0 1-2.11-.81l-4.79-3.19a7.82 7.82 0 0 1-3.34-6.71l.41-3.69a3.168 3.168 0 0 1 3.57-3 4.774 4.774 0 0 1 2.11.81l4.78 3.19a7.817 7.817 0 0 1 3.34 6.71l-.4 3.69a3.167 3.167 0 0 1-1.124 2.286 3.155 3.155 0 0 1-2.446.714Z" fill="#263238"/><path d="m405.3 274.51 4.78 3.19a6.626 6.626 0 0 1 2.78 5.58l-.41 3.7c-.2 1.92-1.79 2.53-3.53 1.37l-4.79-3.19a6.58 6.58 0 0 1-2.77-5.58l.4-3.69c.24-1.89 1.8-2.54 3.54-1.38Z" fill="#455A64"/><g opacity=".2" fill="#fff"><path opacity=".2" d="m406.73 275.46-5.35 3.86.46-4.28 1.53-1.1a2.87 2.87 0 0 1 1.93.57l1.43.95ZM410.87 278.36l-7.93 5.72a6.414 6.414 0 0 1-.57-.8l7.71-5.56c.284.187.548.401.79.64ZM412.85 283.28l-.07.64-5 3.64-2.21-1.47 7-5.06c.26.72.356 1.488.28 2.25Z"/></g><path opacity=".2" d="M296.69 324.89c.29 6.13.33 12.29.75 18.4.3 3 .52 6.17 1.8 8.88a3.884 3.884 0 0 0 3.16 2.55 11.36 11.36 0 0 0 4.26-1.15 66.448 66.448 0 0 1 8.84-2.75 21.998 21.998 0 0 1 9.25-.33 12.624 12.624 0 0 1 7.64 5 26.393 26.393 0 0 1 3.69 8.42 26.494 26.494 0 0 0-4-8.21 12.226 12.226 0 0 0-7.46-4.75 21.327 21.327 0 0 0-9 .45 68.032 68.032 0 0 0-8.71 2.83c-.73.25-1.39.57-2.19.77-.379.129-.767.23-1.16.3l-1.23.06a4.494 4.494 0 0 1-3.64-2.95c-1.33-2.9-1.47-6.05-1.74-9.1-.39-6.13-.26-12.31-.26-18.42ZM347.849 312.23c.3 7.49.32 15 .37 22.46l-.09 11.23a516.303 516.303 0 0 1-.28 11.23c-.13-3.74-.23-7.48-.28-11.23l-.08-11.23c.04-7.49.06-14.97.36-22.46ZM398.509 283.13c.3 7.46.33 14.92.37 22.38l-.09 11.19c0 3.73-.14 7.46-.28 11.19-.13-3.73-.23-7.46-.28-11.19l-.08-11.19c.04-7.46.06-14.92.36-22.38Z" fill="#101828"/><path d="m312.46 336.51 6.92-3.95c1.4-.8 2.54-.68 2.54.27 0 .95-1.14 2.36-2.54 3.16l-6.92 3.95c-1.4.8-2.54.68-2.54-.27 0-.95 1.14-2.36 2.54-3.16ZM353.909 312.52l6.92-3.95c1.4-.8 2.53-.68 2.53.27 0 .95-1.13 2.35-2.53 3.15l-6.92 4c-1.4.79-2.54.68-2.54-.27 0-.95 1.14-2.4 2.54-3.2Z" fill="#37474F"/><path d="M451.109 168.52a22.306 22.306 0 0 1-6 15.27l-1.85 1.76a22.32 22.32 0 0 1-31.52-31.42l1.77-1.85a22.308 22.308 0 0 1 37.61 16.24h-.01Z" fill="#fff"/><path d="M428.74 144.32a24.23 24.23 0 0 0-4 48.13l2.74 7a1.397 1.397 0 0 0 2.106.657c.234-.162.413-.391.514-.657l2.71-7a24.23 24.23 0 0 0-4.1-48.12l.03-.01Zm22.37 24.2a22.31 22.31 0 0 1-6 15.27l-1.85 1.76a22.32 22.32 0 0 1-31.52-31.42l1.77-1.85a22.311 22.311 0 0 1 37.61 16.24h-.01Z" fill="#455A64"/><path opacity=".7" d="M451.109 168.52a22.306 22.306 0 0 1-6 15.27l-1.85 1.76a22.32 22.32 0 0 1-31.52-31.42l1.77-1.85a22.308 22.308 0 0 1 37.61 16.24h-.01Z" fill="#fff"/><path d="M425.78 180.62a3.225 3.225 0 0 1-2.35-1l-7.29-7.78a3.219 3.219 0 0 1-.643-3.568 3.225 3.225 0 0 1 1.825-1.709 3.22 3.22 0 0 1 3.518.877l4.73 5.06 11.21-14.2a3.223 3.223 0 0 1 4.525-.525 3.221 3.221 0 0 1 .525 4.525l-13.53 17.1a3.234 3.234 0 0 1-2.38 1.22h-.14Z" fill="#E32764"/></svg>