<svg width="500" height="418" fill="none" xmlns="http://www.w3.org/2000/svg"><path d="M90.19 356.258c89.93 36.093 235.75 36.093 325.69 0 89.94-36.094 89.93-94.604 0-130.697s-235.76-36.093-325.69 0-89.94 94.603 0 130.697Z" fill="#F5F5F5"/><path d="M442.36 319.406c-21.71 8.556-56.85 8.456-78.49-.226-21.64-8.681-21.58-22.641.13-31.198 21.71-8.556 56.85-8.448 78.49.226 21.64 8.673 21.58 22.625-.13 31.198Z" fill="#E0E0E0"/><path d="m320.51 55.51 6.81 3.278c0-.25-.06-.5-.06-.75v-1.669c0-2.927 2.47-4.12 5.51-2.652 1.308.669 2.426 1.565 3.28 2.627.5-3.678 4-5.053 8.17-3.027 4.55 2.193 8.24 7.505 8.24 11.9v2.502a5.639 5.639 0 0 1-.69 2.852l5.65 2.72c.891.484 1.632 1.136 2.163 1.904a4.98 4.98 0 0 1 .897 2.515c0 1.618-1.37 2.277-3.06 1.468L320.51 61.39c-.891-.483-1.632-1.134-2.164-1.9a4.959 4.959 0 0 1-.896-2.512c0-1.618 1.37-2.277 3.06-1.468ZM291.35 72.064l5.14 2.502V72.732c0-2.21 1.86-3.111 4.16-2.002a7.557 7.557 0 0 1 2.47 1.985c.38-2.777 3-3.811 6.17-2.285 1.812.982 3.319 2.308 4.4 3.87 1.081 1.56 1.705 3.312 1.82 5.111v1.86a4.169 4.169 0 0 1-.53 2.152l4.27 2.06a4.684 4.684 0 0 1 1.637 1.435c.401.58.632 1.231.673 1.9 0 1.226-1 1.727-2.31 1.11L291.35 76.5a4.675 4.675 0 0 1-1.629-1.438 3.74 3.74 0 0 1-.671-1.898c0-1.218 1.03-1.718 2.3-1.1Z" fill="#EBEBEB"/><path d="m108.6 282.879 6.62-3.153s3.18-14.611.81-27.17c-3.35-17.663-17.76-23.751-23-22-5.24 1.752-6.47 6.989 3 17.197 5.57 6.012 12.74 18.738 12.57 35.126Z" fill="#E32764"/><path opacity=".1" d="m108.6 282.879 6.62-3.153s3.18-14.611.81-27.17c-3.35-17.663-17.76-23.751-23-22-5.24 1.752-6.47 6.989 3 17.197 5.57 6.012 12.74 18.738 12.57 35.126Z" fill="#101828"/><path d="M110.999 275.865h-.07a.496.496 0 0 1-.309-.152.346.346 0 0 1-.091-.29c2.74-16.537-5.23-34.642-14.19-41.948a.363.363 0 0 1-.14-.276.36.36 0 0 1 .136-.278.522.522 0 0 1 .33-.117.527.527 0 0 1 .334.112c9.12 7.431 17.25 25.853 14.47 42.615a.386.386 0 0 1-.162.238.543.543 0 0 1-.308.096Z" fill="#fff"/><path d="M90.21 291.743c-1 .501-3.21-.6-4-1.059-1.416-.807-2.56-1.904-3.32-3.185-.856-1.452-1.146-3.091-.83-4.687.16-.848.397-1.684.71-2.502.28-.834.55-1.618.83-2.427a5.2 5.2 0 0 0 .43-2.443c-.26-1.668-2-2.811-3.62-3.811-1.77-1.11-3.62-2.569-3.61-4.562.135-1.546.877-3.011 2.11-4.17 1.14-1.201 2.5-2.268 3.53-3.544.812-.89 1.235-1.985 1.2-3.102a4.559 4.559 0 0 0-.8-1.935 26.41 26.41 0 0 1-2.55-3.878c-.58-1.393-.49-3.127.81-4.128a5.999 5.999 0 0 1 1.954-.762 6.5 6.5 0 0 1 2.156-.072c1.344.132 2.638.508 3.79 1.101 3.8 1.759 6 5.512 10 6.863 1.597.416 3.223.748 4.87.993a6.67 6.67 0 0 1 2.292.798c.689.396 1.27.908 1.708 1.503 1.48 2.46-1.26 5.496-.22 8.106.92 2.319 3.61 3.203 5.13 5.288.616.92.861 1.981.7 3.027a12.496 12.496 0 0 1-1.53 5.112 35.234 35.234 0 0 1-3.36 4.612c-.06.05-18.22 8.781-18.38 8.864Z" fill="#E32764"/><path d="M100.999 286.956a.501.501 0 0 1-.333-.123.353.353 0 0 1-.127-.285c.78-15.645-8.06-32.916-14.49-37.937a.4.4 0 0 1-.107-.125.343.343 0 0 1-.01-.303.386.386 0 0 1 .097-.13.492.492 0 0 1 .151-.09.559.559 0 0 1 .363-.009.5.5 0 0 1 .156.082c6.56 5.12 15.58 22.675 14.79 38.545a.333.333 0 0 1-.043.149.41.41 0 0 1-.108.124.527.527 0 0 1-.339.102Z" fill="#fff"/><path d="M98.15 268.476h-.14a74.548 74.548 0 0 0-13.61-1.834.563.563 0 0 1-.179-.037.46.46 0 0 1-.148-.09.381.381 0 0 1-.095-.131.331.331 0 0 1-.028-.151c0-.052.012-.104.037-.152a.38.38 0 0 1 .108-.126.52.52 0 0 1 .344-.097 75.92 75.92 0 0 1 13.85 1.843.49.49 0 0 1 .309.155.343.343 0 0 1 .087.291.388.388 0 0 1-.186.257.538.538 0 0 1-.35.072Z" fill="#fff"/><path d="M87.75 302.493v-6.146h1.82c2.12-3.586 6.08-6.964 11.93-9.774 18.35-8.84 48.1-8.84 66.45 0 5.86 2.81 9.82 6.188 11.94 9.774h1.8v5.946c.15 5.838-4.42 11.784-13.74 16.27-18.35 8.832-48.1 8.832-66.45 0-9.21-4.436-13.79-10.257-13.75-16.07Z" fill="#263238"/><path d="M168 280.343c-18.35-8.831-48.1-8.831-66.45 0-18.35 8.832-18.35 23.159 0 31.999s48.1 8.832 66.45 0c18.35-8.831 18.3-23.159 0-31.999Z" fill="#455A64"/><path d="M146.829 186.04v107.58c0 1.484-1.18 2.977-3.54 4.111-4.72 2.277-12.38 2.277-17.1 0-2.36-1.134-3.54-2.627-3.54-4.111V186.04h24.18Z" fill="#37474F"/><path d="M122.64 211.476v7.289l24.19 11.625v-7.239l-24.19-11.675Z" fill="#263238"/><path d="m260.32 116.497-2.06 3.444-22.15 37.028-10.51 17.596-35.6 59.494-3.92 6.555h-.69a9.418 9.418 0 0 1-4-.834l-141.8-68.384c-1.163-.631-2.13-1.482-2.826-2.483-.695-1.001-1.097-2.125-1.174-3.28v-50.954c0-25.477 20.11-55.808 44.94-67.767C92.34 41.25 103 40.792 111 44.535v-.05l149.32 72.012Z" fill="#455A64"/><path d="M230.37 119.191c-10 3.094-46.48 28.204-46.48 67.741 0 33.242.05 50.496.06 53.598.485.07.977.107 1.47.109h.69l3.92-6.555 35.57-59.494 10.51-17.588 2.41-4.028-8.15-33.783Z" fill="#37474F"/><path d="M273.36 198.858a4.712 4.712 0 0 1-1.65 1.334l-.41.217-81.88 39.421a8.954 8.954 0 0 1-3.3.776h-.69v-53.707c0-9.173 2.62-18.947 7.12-28.296l4 1.952 29 13.977 45.07 21.682 2.31 1.11c.168.061.316.154.434.272.117.117.2.256.241.405a.82.82 0 0 1-.001.453.934.934 0 0 1-.244.404Z" fill="#37474F"/><path d="M260.32 116.505c-7.94-3.477-18.44-2.868-29.95 2.686-12.91 6.196-24.56 17.404-32.74 30.297a87.33 87.33 0 0 0-5.09 9.174c-4.5 9.348-7.12 19.13-7.12 28.296v53.706h.69a8.95 8.95 0 0 0 3.3-.776l81.88-39.42.41-.217a7.33 7.33 0 0 0 1.65-1.335c1.154-1.185 1.826-2.645 1.92-4.169v-51.08c.01-13.652-5.77-23.142-14.95-27.162Zm9.16 80.31-78.25 37.678c-.66.317-1.2.058-1.2-.576v-46.984c0-8.198 2.27-17.288 6.55-26.345.069-.176.15-.348.24-.517a83.533 83.533 0 0 1 5.45-9.682c7.95-12.251 18.82-22.317 30.41-27.871 5.95-2.877 11.59-4.328 16.75-4.328 3.072-.03 6.106.574 8.83 1.76 7.83 3.477 12.41 11.925 12.41 23.717v51.48c-.032.335-.156.66-.363.949a2.444 2.444 0 0 1-.827.719Z" fill="#455A64"/><path d="M351.15 255v-4.695h-.53v.667a18.228 18.228 0 0 0-1.47-3.803c-3-5.754-9.19-11.275-18.71-15.845l-52.95-25.494a10.289 10.289 0 0 0-4-.799c-1.39 0-2.761.274-4 .799l-81 38.979a10.59 10.59 0 0 1-2.57-2.369v4.737c.045.415.222.811.512 1.15.29.338.683.607 1.138.777l53 25.485c14.17 6.83 32.7 10.183 50.65 10.008 15.53-.167 30.63-3.003 42.14-8.548 11.9-5.705 17.77-13.277 17.77-21.008l.02-.041Z" fill="#263238"/><path d="M349.15 247.169c-3-5.754-9.19-11.275-18.71-15.845l-52.95-25.494a10.289 10.289 0 0 0-4-.799c-1.39 0-2.76.274-4 .799l-81 38.979 52 25.018c14.17 6.83 32.7 10.183 50.65 10.008 15.53-.175 30.63-3.003 42.14-8.548 10.68-5.129 16.52-11.751 17.59-18.647a16.996 16.996 0 0 0-1.72-5.471Z" fill="#455A64"/><path d="M351 252.631a17.077 17.077 0 0 0-1.81-5.462c-3-5.754-9.19-11.275-18.71-15.845l-52.95-25.494a10.289 10.289 0 0 0-4-.799c-1.39 0-2.761.274-4 .799l-81 38.979-.92-.434c-2.2-1.067-2.2-2.785 0-3.844l81.88-39.43a10.289 10.289 0 0 1 4-.799c1.39 0 2.761.274 4 .799l52.95 25.494c9.52 4.587 15.75 10.108 18.71 15.845a17.526 17.526 0 0 1 1.87 5.838c.2 1.447.194 2.908-.02 4.353Z" fill="#37474F"/><path d="M270.67 143.667v52.606l-74.09-35.685c.07-.175.15-.348.24-.517 7.94-16.554 21.34-30.589 35.86-37.528 5.95-2.877 11.59-4.328 16.75-4.328 13.1-.025 21.24 9.732 21.24 25.452Z" fill="#263238"/><path d="m137.27 184.005 6.52-3.135h.05c2.23-1.051 5.3-.893 8.69.742 6.82 3.286 12.35 11.275 12.35 17.846 0 3.278-1.38 5.588-3.6 6.672l-6.06 2.894-1.1-1.526a14.145 14.145 0 0 1-3.54-1.151c-6.82-3.286-12.36-11.275-12.36-17.847a9.235 9.235 0 0 1 .39-2.627l-1.34-1.868Z" fill="#E0E0E0"/><path d="M146.259 184.598c6.82 3.285 12.36 11.275 12.36 17.846 0 6.572-5.54 9.232-12.36 5.946-6.82-3.286-12.36-11.275-12.36-17.846 0-6.572 5.53-9.232 12.36-5.946Z" fill="#FAFAFA"/><path d="M146.26 199.317c-.95 0-1.86-.315-2.532-.875-.671-.56-1.048-1.319-1.048-2.111v-84.462c0-.792.377-1.552 1.048-2.112.672-.559 1.582-.874 2.532-.874.949 0 1.86.315 2.531.874.672.56 1.049 1.32 1.049 2.112v84.47c-.003.791-.381 1.548-1.052 2.106-.671.558-1.581.872-2.528.872Z" fill="#EBEBEB"/><path d="m142.68 120.216-35.9-17.279 11.24 18.022-11.24 7.213 35.9 17.28v-25.236ZM330.119 198.232a3.157 3.157 0 0 0-.57-1.6 3.963 3.963 0 0 0-1.38-1.21l-99.69-48.002a5.006 5.006 0 0 0-1.945-.388c-.675 0-1.342.133-1.945.388l-2.2 1.059a3.958 3.958 0 0 0-1.381 1.214 3.16 3.16 0 0 0-.569 1.605v63.722c.039.564.236 1.113.574 1.602.339.49.81.906 1.376 1.217l99.69 47.993a5.038 5.038 0 0 0 1.95.388 5.03 5.03 0 0 0 1.95-.388l2.19-1.059a3.993 3.993 0 0 0 1.376-1.212 3.19 3.19 0 0 0 .574-1.598v-63.731Z" fill="#E32764"/><path opacity=".4" d="m329.55 196.631-5.55 2.686-103-49.62a3.67 3.67 0 0 1 1.38-1.218l2.2-1.051a4.931 4.931 0 0 1 1.945-.394c.677 0 1.344.135 1.945.394l99.69 47.994a3.697 3.697 0 0 1 1.39 1.209Z" fill="#fff"/><path opacity=".1" d="M330.12 198.232v63.722a3.16 3.16 0 0 1-.569 1.605c-.339.49-.812.906-1.381 1.214l-2.17 1.059c-.173.08-.353.147-.54.2a5.594 5.594 0 0 1-2.34.109l-.38-.084-.23-.075a1.398 1.398 0 0 0 .93 0c.207-.115.373-.275.479-.463a.968.968 0 0 0 .121-.604v-63.747a1.246 1.246 0 0 0-.242-.822 1.657 1.657 0 0 0-.758-.563l1-.492 5.53-2.66a2.94 2.94 0 0 1 .55 1.601Z" fill="#101828"/><path opacity=".2" d="m324 199.317-46.16 14.385a8.908 8.908 0 0 1-4.97.083c-1.619-.444-3.009-1.335-3.94-2.526l-7.41-9.474-40.89-52.247 39.41 52.606-39.62 12.926c.035.576.244 1.136.61 1.626l39.12-14.402 8.61 11.492c.957 1.277 2.435 2.224 4.161 2.666a8.904 8.904 0 0 0 5.239-.256l6.13-2.26 39.11 52.055c.208-.115.373-.275.479-.464a.968.968 0 0 0 .121-.604v-1.067l-39.5-50.012 39.5-14.527Z" fill="#101828"/><path d="m434.87 278.542-1.71-2.11s-15-21.433-18.08-25.644c-3.08-4.212-14.18-10.7-14.18-10.7l1.17-39.429L376 203.82c-.21 4.703.67 22.683 4.75 31.69 2.251 5.118 5.098 10.039 8.5 14.694 1.22 1.751 37.69 31.54 37.69 31.54l1.06.968c.702.671 1.664 1.115 2.719 1.255a5.33 5.33 0 0 0 3.051-.488l.09-.05c.904-.542 1.516-1.357 1.705-2.271.189-.914-.061-1.854-.695-2.616Z" fill="#FFA8A7"/><path d="m431.891 274.597-4.68-6.671s.07 3.135-2.45 5.003c-1.65 1.162-3.602 1.987-5.7 2.411l6.42 5.262s6.34-.117 6.41-6.005Z" fill="#F0F0F0"/><path d="M441 283.746c-.21-.976-1.62-2.327-2.53-3.186-1.83-1.91-6.05-7.772-6.86-8.523a.839.839 0 0 0-.317-.242 1.02 1.02 0 0 0-.835 0 .842.842 0 0 0-.318.242l.61.876s.87 1.551-1.45 4.169c-1 1.118-4.05 2.402-5.57 2.069l-.84-.684c-.63 1.076.39 1.668 2.27 3.211 1.88 1.542 1.2 4.603.61 5.971-1.188 2.266-2.976 4.279-5.23 5.887-4.5 3.336-4.67 4.537-2.67 5.621 1.7.918 6.69 1.36 10.43 0 3.42-1.217 4.7-2.844 5.34-5.587.64-2.744 2.64-3.628 4.37-4.871 1.73-1.242 3.26-3.485 2.99-4.953Z" fill="#263238"/><path d="m415.4 203.928-34.35-3.869h-2.34s-.9 5.837 4.78 12.426a42.744 42.744 0 0 0 6.8 6.571s-4.08 20.415-5.51 30.239c-1.16 7.931-5 36.486-6 43.524a24.048 24.048 0 0 1-.64 3.136l-1.52 5.487 7.45 1.435 2.13-4.17a33.042 33.042 0 0 1 2.37-6.105 197.626 197.626 0 0 0 9.91-24.585c2-6.529 1.17-13.91 1-15.661 0 0 12.34-21.683 15.41-34.359a30.652 30.652 0 0 0 .51-14.069Z" fill="#FFA8A7"/><path d="m378.71 293.553 1.07-7.881s4.34 2.652 11.59 1.034c-1.1 2.502-2.41 5.304-3.83 8.248 0 0-3.65 3.578-6.61 2.719-2.96-.859-2.22-4.12-2.22-4.12Z" fill="#F0F0F0"/><path d="m388.45 293.061-.4.834s-1.83 2.01-6.61 1.051c-.777-.126-1.468-.491-1.937-1.023-.469-.531-.681-1.19-.593-1.846 0 0-1.09 0-1.2.734-.471 2.91-1.885 5.658-4.09 7.947a21.479 21.479 0 0 1-4.75 3.061c-4.27 2.193-8.22 3.578-8.71 4.879-.8 2.151 2.62 4.069 8 4.328a18.654 18.654 0 0 0 7.36-1.001c2.073-.91 3.925-2.135 5.46-3.611 1.31-1.093 5.3-2.193 6.29-3.511.42-.567.64-2.81.64-4.045v-.9a19.058 19.058 0 0 1 1.47-5.396c.34-1.009-.93-1.501-.93-1.501Z" fill="#263238"/><path d="M376.001 203.82s-.21 11.308 0 16.295c.21 4.987 1.32 17.755 1.32 17.755a25.31 25.31 0 0 0 9.17 1.526l-.35 1.993c7.385 3.306 15.947 4.291 24.13 2.777 0 0 5.3-15.736 6.12-26.836.82-11.1-.92-13.402-.92-13.402l-39.47-.108Z" fill="#455A64"/><path d="M386.6 238.412c7.667 3.091 16.363 3.923 24.67 2.36l-.3.984s-11.13 3.219-24.55-2.36l.18-.984ZM377 234.584s5.56 1.668 10 1.585l-.15.834s-5.85-.159-9.85-1.535v-.884Z" fill="#37474F"/><path d="M385.74 243.274s3.69-21.307 4.55-24.184c0 0-6.34-2.027-8.28-3.887 0 0 1.38 2.594 5.91 4.904l-2.18 23.167Z" fill="#F28F8F"/><path d="M382 215.162s1.38 2.593 5.91 4.903l-1.81 19.323h.31c1.11-6.271 3.24-18.205 3.87-20.349.01.009-6.28-2.018-8.28-3.877Z" fill="#263238"/><path d="M399.521 252.372c1-1.142 3-5.003 4.18-7.555h.24l-3 8.139a31.67 31.67 0 0 1 .86 8.148l-2-1.459c.08-1.226-.28-7.273-.28-7.273Z" fill="#F28F8F"/><path d="M379.84 194.93c5-13.952 4-25.769 5-29.388l-12.87 15.011a112.697 112.697 0 0 1-2.63 14.719c-1.49 5.337-3.52 11.984-5.95 16.12-.441.73-1.188 1.3-2.1 1.601-2.43.834-3.55 1.868-5.5 3.069-1.53.943-2.69 1.068-2.59 1.451.165.432.519.796.992 1.019.473.223 1.03.288 1.558.182a17.542 17.542 0 0 0 3.41-.959c-1.117 1.535-2.522 2.912-4.16 4.078-3.72 2.702-4.26 4.612 1.94 5.554 3.88.584 7.4-.967 11.81-7.689a55.845 55.845 0 0 0 4.4-7.63c2.94-6.839 5.17-12.918 6.69-17.138Z" fill="#FFA8A7"/><path d="M389.19 159.287c-6 0-12 1.151-14 6.496-2 5.346-4.66 20.382-4.66 20.382s2.53 2.819 11 2.377l7.66-29.255Z" fill="#E0E0E0"/><path d="M401.58 159.662c4.23.834 9.13 1.568 13.22 3.261 2.85 1.176-1.32 20.849-1.32 20.849l1.92 20.131c-5.64 5.088-27.19 7.406-39.44-.108l.13-32.599c.02-5.204 3.52-11.459 13.1-11.901l12.39.367Z" fill="#F5F5F5"/><path d="M385.23 166.125c.78 1.535 2.2 2.152 4.78 2.394a11.408 11.408 0 0 0 3.825-.424 10.162 10.162 0 0 0 3.315-1.644l-3.21-2.669-4.07 2.56-.35-2.843-4.29 2.626Z" fill="#E32764"/><path opacity=".1" d="M385.23 166.125c.78 1.535 2.2 2.152 4.78 2.394a11.408 11.408 0 0 0 3.825-.424 10.162 10.162 0 0 0 3.315-1.644l-3.21-2.669-4.07 2.56-.35-2.843-4.29 2.626Z" fill="#101828"/><path d="m413.5 183.413-3.68-8.565 4.27 15.387-.59-6.822Z" fill="#E0E0E0"/><path d="m408.33 141.557-2.69 8.74c-.28.909-.916 1.715-1.807 2.289-.891.574-1.987.884-3.113.88h-3.11l.05-12.201 10.67.292Z" fill="#263238"/><path d="M398.24 138.326c.03-5.177-4.978-9.394-11.185-9.42-6.208-.025-11.265 4.151-11.295 9.328-.03 5.177 4.977 9.394 11.185 9.419 6.208.026 11.264-4.151 11.295-9.327ZM404.38 133.009a5.074 5.074 0 0 1 1.914.18c.614.18 1.17.475 1.626.863 1.51 1.301 1.19 3.694 0 9.173l-4.7.434 1.16-10.65Z" fill="#263238"/><path d="M402.14 143.692c.69.35 1.69-.767 2.56-1.518.87-.75 3.67-1.759 5.06.701 1.39 2.46-.83 5.838-3 6.546a3.88 3.88 0 0 1-2.445.148c-.807-.216-1.482-.684-1.885-1.307l-.88 11.4s-5 5.938-11.71 6.672c-1.53-2.769-2.9-4.754-.68-7.022v-3.486a24.78 24.78 0 0 1-5.13.209c-1.365-.26-2.615-.837-3.602-1.665-.988-.829-1.674-1.874-1.978-3.014a29.82 29.82 0 0 1-.48-15.386c1.83-8.682 13.51-8.798 20.09-5.321 6.58 3.478 4.08 13.043 4.08 13.043Z" fill="#FFA8A7"/><path d="M402.14 144.668c.35 0 1.69-1.835 2.56-2.502 1.2-.901-.32-9.173-.32-9.173-.58-6.772-12.55-7.322-15.86-7.506-7.58-.475-12.75 3.011-10.71 7.431 1.37 2.001 4.16 2.56 6.79 2.835 4.46.467 12.06-1.509 13-1.618 1.3-.142 1.57.909 2.26 3.761.61 2.502 1.14 6.747 2.28 6.772Z" fill="#263238"/><path d="m404.38 133.651 4.22-1.884a2.005 2.005 0 0 0-.559-.624 2.474 2.474 0 0 0-.808-.39 2.748 2.748 0 0 0-1.823.121c-.57.262-.995.697-1.188 1.215a1.782 1.782 0 0 0 .158 1.562Z" fill="#263238"/><path d="M389.22 155.834s6.25-1.025 8.44-1.993c1.279-.563 2.325-1.435 3-2.502a7.566 7.566 0 0 1-1.66 2.944c-1.6 1.668-9.75 2.936-9.75 2.936l-.03-1.385Z" fill="#F28F8F"/><path d="M389.07 143.442a.912.912 0 0 0 .086.409c.061.13.152.249.269.35.116.101.255.182.409.237.153.056.319.086.486.088.339-.007.661-.124.897-.327a.987.987 0 0 0 .363-.757.884.884 0 0 0-.061-.43 1.037 1.037 0 0 0-.264-.373 1.284 1.284 0 0 0-.422-.252 1.48 1.48 0 0 0-1.016 0 1.29 1.29 0 0 0-.421.252 1.037 1.037 0 0 0-.264.373.896.896 0 0 0-.062.43ZM390.41 139.522l2.68 1.243c.192-.306.235-.661.119-.992-.115-.332-.38-.613-.739-.784a1.777 1.777 0 0 0-1.166-.098c-.192.05-.37.131-.524.24a1.32 1.32 0 0 0-.37.391Z" fill="#263238"/><path d="m389.81 150.447-2.81.884c.055.164.15.316.279.447.129.132.289.24.469.319a1.749 1.749 0 0 0 1.182.068c.385-.135.693-.39.857-.71.164-.321.172-.682.023-1.008Z" fill="#F28F8F"/><path d="m378.57 140.365 2.45-1.568a1.38 1.38 0 0 0-.431-.343 1.748 1.748 0 0 0-1.153-.15 1.585 1.585 0 0 0-.536.218c-.328.213-.545.523-.607.866-.061.343.038.693.277.977ZM379.29 142.866a.86.86 0 0 0 .091.383c.061.122.149.232.261.325.111.093.243.167.389.217a1.412 1.412 0 0 0 .918 0c.146-.05.278-.124.39-.217a1.02 1.02 0 0 0 .26-.325.86.86 0 0 0 .091-.383.865.865 0 0 0-.078-.392 1.017 1.017 0 0 0-.255-.337 1.227 1.227 0 0 0-.391-.228 1.404 1.404 0 0 0-.466-.085 1.37 1.37 0 0 0-.861.315.95.95 0 0 0-.349.727Z" fill="#263238"/><path d="m384.56 143.025 1.15 6.221-4.12-.417 2.97-5.804Z" fill="#F28F8F"/><path d="M387.26 165.292c-.09.966-.073 1.938.05 2.902.123.866.519 1.689 1.15 2.385.407.218.869.355 1.349.398.481.043.968-.007 1.421-.148a6.147 6.147 0 0 0 1.715-2.212 5.208 5.208 0 0 0 .445-2.608l-3.52.333-2.61-1.05Z" fill="#E32764"/><path d="M388.46 170.579s-4.16 12.842-4.32 14.394c-.16 1.551 3.46 9.824 5.05 9.865 1.59.042 4.49-5.587 4.54-7.005.05-1.418-2.5-17.004-2.5-17.004l-2.77-.25Z" fill="#E32764"/><path opacity=".1" d="M391.23 170.829a3.27 3.27 0 0 1-1.426.186 3.11 3.11 0 0 1-1.344-.436l-.08.225c.401.279.877.473 1.387.564.511.092 1.04.078 1.543-.039l-.08-.5Z" fill="#101828"/><path d="m389.87 166.342 11.76-7.397.17-2.193s2.55.834 3.17 4.837c-1.874 3.465-5.08 6.312-9.11 8.089l-2.47-3.669-3.52.333ZM389.2 157.677c-1.539.198-2.922.893-3.85 1.935-1.18 1.668-.91 7.814-.91 7.814l2.82-2.135 2.61 1.051c-.25-2.06-.68-5.537-.68-5.537l.01-3.128Z" fill="#E0E0E0"/><path d="M399.62 136.453s-8.54 5.371-18.6 3.645c-10.66-1.835-3.42-7.181-3.42-7.181l22.02 3.536Z" fill="#37474F"/><path d="M372.53 126.379c2.86-2.969 14.84-6.671 25.08-4.661 10.24 2.009 13 6.471 13 6.471-4.116 2.116-8.912 3.126-13.74 2.894-8.16-.376-24.34-4.704-24.34-4.704Z" fill="#E32764"/><path opacity=".4" d="M372.53 126.379c2.86-2.969 14.84-6.671 25.08-4.661 10.24 2.009 13 6.471 13 6.471-4.116 2.116-8.912 3.126-13.74 2.894-8.16-.376-24.34-4.704-24.34-4.704Z" fill="#fff"/><path d="M409.29 130.874a8.657 8.657 0 0 0 1.29-2.685s-1.21.976-8.15.092c-6.58-.834-13.43-4.028-20.74-4.287-7.31-.258-9.16 2.385-9.16 2.385.933 2.034 2.43 3.855 4.37 5.312 0 0 3.25 3.67 11.81 3.853 8.56.184 20.58-4.67 20.58-4.67Z" fill="#E32764"/><path d="M385.37 129.565c0 1.668-1.36 2.827-3 2.61-.889-.204-1.669-.653-2.214-1.274-.544-.62-.821-1.376-.786-2.145 0-1.668 1.36-2.827 3-2.602.888.203 1.668.65 2.213 1.27.545.619.822 1.374.787 2.141Z" fill="#F5F5F5"/><path d="m409.29 130.874-.09 1.143a2.23 2.23 0 0 1-.422 1.075 2.811 2.811 0 0 1-.948.81c-5.8 2.56-12.361 3.671-18.9 3.202-6.08-.375-9.05-1.368-10.35-2.193a3.008 3.008 0 0 1-1.108-.899 2.364 2.364 0 0 1-.472-1.228l-.1-1.092s2.37 1.884 12.33 2.576c9.96.693 20.06-3.394 20.06-3.394Z" fill="#455A64"/><path d="M385.42 159.512s-4.79 2.977-1.88 15.528c3.65 15.67 14.63 32.057 14.63 32.057s-4.8 1.802-5.54 1.168c-.74-.634-7.51-13.452-10.36-20.79-2.85-7.339-7-19.181-1.66-26.862 0 0 2.51-1.651 4.81-1.101Z" fill="#E32764"/><path opacity=".1" d="M385.42 159.512s-4.79 2.977-1.88 15.528c3.65 15.67 14.63 32.057 14.63 32.057s-4.8 1.802-5.54 1.168c-.74-.634-7.51-13.452-10.36-20.79-2.85-7.339-7-19.181-1.66-26.862 0 0 2.51-1.651 4.81-1.101Z" fill="#101828"/><path d="M422.16 200.334s-28.39 6.355-29.41 7.622c-1.02 1.268 1.08 19.656 4.6 21.891 2.342 1.292 5.057 2.035 7.86 2.152 10.59-.117 26.35-4.803 26.83-8.148 1.57-10.991-9.88-23.517-9.88-23.517Z" fill="#E32764"/><path opacity=".1" d="M422.16 200.334s-28.39 6.355-29.41 7.622c-1.02 1.268 1.08 19.656 4.6 21.891 2.342 1.292 5.057 2.035 7.86 2.152 10.59-.117 26.35-4.803 26.83-8.148 1.57-10.991-9.88-23.517-9.88-23.517Z" fill="#101828"/><path d="M422.16 200.334c2.9.659 7.53 7.922 7.54 9.457 0 3.261-4.46 6.805-17.91 9.173-9.57 1.668-12.74.301-14.07-2.051-2-3.553-3.21-7.889-5-8.957 1.98-1.968 26.76-8.231 29.44-7.622Z" fill="#E32764"/><path d="M430.51 194.096c-.46-5.913-3.5-13.243-5.26-16.871l-11.74 3.686s4.33 8.765 5.35 12.76c0 4.595-2.27 12.568-4.48 16.787-.4.741-1.112 1.334-2 1.668-2.38.918-3.45 2.002-5.33 3.278-1.48 1-2.63 1.167-2.51 1.542.189.427.564.777 1.05.981a2.532 2.532 0 0 0 1.57.12 16.79 16.79 0 0 0 3.34-1.084c-1.018 1.585-2.339 3.021-3.91 4.253-3.57 2.836-4 4.77 2.23 5.479 3.91.442 7.35-1.234 11.39-8.114 1.17-1.985 3.36-5.371 4.55-7.981 3.94-8.606 5.42-12.668 5.75-16.504Z" fill="#FFA8A7"/><path d="M411.72 161.931c4.76.191 7.93 1.801 11.07 7.005 3.14 5.204 6.72 15.845 6.72 15.845-3.811 2.702-8.715 4.089-13.71 3.878 0 0-6.11-13.61-7.15-16.838-1.12-3.536-.11-8.689 3.07-9.89Z" fill="#F5F5F5"/></svg>